URWGothicL-Demi.ufo
<glyph name="quotedbl" format="1">
  <advance width="360"/>
  <unicode hex="0022"/>
  <outline>
    <contour>
      <point x="283" y="513" type="line"/>
      <point x="207" y="513" type="line"/>
      <point x="207" y="739" type="line"/>
      <point x="283" y="739" type="line"/>
    </contour>
    <contour>
      <point x="150" y="513" type="line"/>
      <point x="74" y="513" type="line"/>
      <point x="74" y="739" type="line"/>
      <point x="150" y="739" type="line"/>
    </contour>
  </outline>
</glyph>
<glyph name="ampersand" format="1">
  <advance width="680"/>
  <unicode hex="0026"/>
  <outline>
    <contour>
      <point x="511" y="433" type="line"/>
      <point x="660" y="433" type="line"/>
      <point x="532" y="214" type="line"/>
      <point x="664" y="73" type="line"/>
      <point x="569" y="-13" type="line"/>
      <point x="464" y="98" type="line"/>
      <point x="401" y="14"/>
      <point x="355" y="-13"/>
      <point x="276" y="-13" type="curve" smooth="yes"/>
      <point x="141" y="-13"/>
      <point x="35" y="91"/>
      <point x="35" y="223" type="curve" smooth="yes"/>
      <point x="35" y="313"/>
      <point x="77" y="376"/>
      <point x="173" y="433" type="curve"/>
      <point x="125" y="487"/>
      <point x="111" y="516"/>
      <point x="111" y="569" type="curve" smooth="yes"/>
      <point x="111" y="672"/>
      <point x="192" y="752"/>
      <point x="298" y="752" type="curve" smooth="yes"/>
      <point x="406" y="752"/>
      <point x="488" y="674"/>
      <point x="488" y="570" type="curve" smooth="yes"/>
      <point x="488" y="522"/>
      <point x="472" y="477"/>
      <point x="443" y="444" type="curve" smooth="yes"/>
      <point x="427" y="426"/>
      <point x="411" y="414"/>
      <point x="372" y="389" type="curve"/>
      <point x="439" y="314" type="line"/>
    </contour>
    <contour>
      <point x="289" y="481" type="curve"/>
      <point x="345" y="511"/>
      <point x="361" y="529"/>
      <point x="361" y="566" type="curve" smooth="yes"/>
      <point x="361" y="602"/>
      <point x="336" y="627"/>
      <point x="300" y="627" type="curve" smooth="yes"/>
      <point x="265" y="627"/>
      <point x="238" y="601"/>
      <point x="238" y="567" type="curve" smooth="yes"/>
      <point x="238" y="540"/>
      <point x="250" y="519"/>
    </contour>
    <contour>
      <point x="372" y="198" type="curve"/>
      <point x="257" y="322" type="line"/>
      <point x="195" y="294"/>
      <point x="168" y="262"/>
      <point x="168" y="215" type="curve" smooth="yes"/>
      <point x="168" y="160"/>
      <point x="210" y="119"/>
      <point x="268" y="119" type="curve" smooth="yes"/>
      <point x="312" y="119"/>
      <point x="338" y="138"/>
    </contour>
  </outline>
</glyph>
<glyph name="parenleft" format="1">
  <advance width="380"/>
  <unicode hex="0028"/>
  <outline>
    <contour>
      <point x="349" y="8" type="curve"/>
      <point x="349" y="-137" type="line"/>
      <point x="289" y="-116"/>
      <point x="250" y="-90"/>
      <point x="202" y="-38" type="curve"/>
      <point x="121" y="53"/>
      <point x="74" y="176"/>
      <point x="74" y="300" type="curve" smooth="yes"/>
      <point x="74" y="441"/>
      <point x="132" y="578"/>
      <point x="228" y="664" type="curve" smooth="yes"/>
      <point x="267" y="699"/>
      <point x="296" y="717"/>
      <point x="349" y="739" type="curve"/>
      <point x="349" y="595" type="line"/>
      <point x="258" y="525"/>
      <point x="209" y="421"/>
      <point x="209" y="300" type="curve" smooth="yes"/>
      <point x="209" y="183"/>
      <point x="267" y="61"/>
    </contour>
  </outline>
</glyph>
<glyph name="parenright" format="1">
  <advance width="380"/>
  <unicode hex="0029"/>
  <outline>
    <contour>
      <point x="37" y="594" type="curve"/>
      <point x="37" y="739" type="line"/>
      <point x="97" y="718"/>
      <point x="136" y="692"/>
      <point x="184" y="640" type="curve"/>
      <point x="265" y="549"/>
      <point x="312" y="426"/>
      <point x="312" y="302" type="curve" smooth="yes"/>
      <point x="312" y="161"/>
      <point x="254" y="24"/>
      <point x="158" y="-62" type="curve" smooth="yes"/>
      <point x="119" y="-97"/>
      <point x="90" y="-115"/>
      <point x="37" y="-137" type="curve"/>
      <point x="37" y="7" type="line"/>
      <point x="128" y="77"/>
      <point x="177" y="181"/>
      <point x="177" y="302" type="curve" smooth="yes"/>
      <point x="177" y="419"/>
      <point x="119" y="541"/>
    </contour>
  </outline>
</glyph>
<glyph name="plus" format="1">
  <advance width="600"/>
  <unicode hex="002B"/>
  <outline>
    <contour>
      <point x="243" y="430" type="line"/>
      <point x="243" y="625" type="line"/>
      <point x="363" y="625" type="line"/>
      <point x="363" y="430" type="line"/>
      <point x="555" y="430" type="line"/>
      <point x="555" y="312" type="line"/>
      <point x="363" y="312" type="line"/>
      <point x="363" y="117" type="line"/>
      <point x="243" y="117" type="line"/>
      <point x="243" y="312" type="line"/>
      <point x="51" y="312" type="line"/>
      <point x="51" y="430" type="line"/>
    </contour>
  </outline>
</glyph>
<glyph name="comma" format="1">
  <advance width="280"/>
  <unicode hex="002C"/>
  <outline>
    <contour>
      <point x="72" y="0" type="line"/>
      <point x="72" y="128" type="line"/>
      <point x="205" y="128" type="line"/>
      <point x="205" y="-7" type="line" smooth="yes"/>
      <point x="205" y="-64"/>
      <point x="185" y="-100"/>
      <point x="141" y="-124" type="curve" smooth="yes"/>
      <point x="119" y="-137"/>
      <point x="102" y="-140"/>
      <point x="72" y="-140" type="curve"/>
      <point x="72" y="-73" type="line"/>
      <point x="114" y="-65"/>
      <point x="131" y="-49"/>
      <point x="131" y="-17" type="curve" smooth="yes"/>
      <point x="131" y="-13"/>
      <point x="131" y="-6"/>
      <point x="130" y="0" type="curve"/>
    </contour>
  </outline>
</glyph>
<glyph name="period" format="1">
  <advance width="280"/>
  <unicode hex="002E"/>
  <outline>
    <contour>
      <point x="72" y="0" type="line"/>
      <point x="72" y="128" type="line"/>
      <point x="205" y="128" type="line"/>
      <point x="205" y="0" type="line"/>
    </contour>
  </outline>
</glyph>
<glyph name="slash" format="1">
  <advance width="460"/>
  <unicode hex="002F"/>
  <outline>
    <contour>
      <point x="26" y="-128" type="line"/>
      <point x="349" y="739" type="line"/>
      <point x="443" y="739" type="line"/>
      <point x="120" y="-128" type="line"/>
    </contour>
  </outline>
</glyph>
<glyph name="zero" format="1">
  <advance width="560"/>
  <unicode hex="0030"/>
  <outline>
    <contour>
      <point x="525" y="505" type="curve" smooth="yes"/>
      <point x="525" y="247" type="line" smooth="yes"/>
      <point x="525" y="173"/>
      <point x="511" y="124"/>
      <point x="478" y="78" type="curve" smooth="yes"/>
      <point x="435" y="18"/>
      <point x="369" y="-13"/>
      <point x="284" y="-13" type="curve" smooth="yes"/>
      <point x="194" y="-13"/>
      <point x="123" y="20"/>
      <point x="77" y="81" type="curve" smooth="yes"/>
      <point x="44" y="126"/>
      <point x="30" y="176"/>
      <point x="30" y="247" type="curve" smooth="yes"/>
      <point x="30" y="498" type="line" smooth="yes"/>
      <point x="30" y="654"/>
      <point x="126" y="752"/>
      <point x="278" y="752" type="curve" smooth="yes"/>
      <point x="428" y="752"/>
      <point x="525" y="655"/>
    </contour>
    <contour>
      <point x="163" y="498" type="curve" smooth="yes"/>
      <point x="163" y="251" type="line" smooth="yes"/>
      <point x="163" y="159"/>
      <point x="204" y="109"/>
      <point x="280" y="109" type="curve" smooth="yes"/>
      <point x="317" y="109"/>
      <point x="350" y="124"/>
      <point x="368" y="150" type="curve" smooth="yes"/>
      <point x="385" y="173"/>
      <point x="392" y="202"/>
      <point x="392" y="248" type="curve" smooth="yes"/>
      <point x="392" y="498" type="line" smooth="yes"/>
      <point x="392" y="583"/>
      <point x="351" y="630"/>
      <point x="279" y="630" type="curve" smooth="yes"/>
      <point x="207" y="630"/>
      <point x="163" y="580"/>
    </contour>
  </outline>
</glyph>
<glyph name="one" format="1">
  <advance width="560"/>
  <unicode hex="0031"/>
  <outline>
    <contour>
      <point x="246" y="0" type="line"/>
      <point x="246" y="614" type="line"/>
      <point x="153" y="614" type="line"/>
      <point x="153" y="739" type="line"/>
      <point x="379" y="739" type="line"/>
      <point x="379" y="0" type="line"/>
    </contour>
  </outline>
</glyph>
<glyph name="two" format="1">
  <advance width="560"/>
  <unicode hex="0032"/>
  <outline>
    <contour>
      <point x="39" y="0" type="line"/>
      <point x="39" y="117" type="line"/>
      <point x="302" y="366" type="line" smooth="yes"/>
      <point x="362" y="423"/>
      <point x="387" y="466"/>
      <point x="387" y="514" type="curve" smooth="yes"/>
      <point x="387" y="580"/>
      <point x="341" y="630"/>
      <point x="280" y="630" type="curve" smooth="yes"/>
      <point x="211" y="630"/>
      <point x="165" y="572"/>
      <point x="165" y="484" type="curve"/>
      <point x="34" y="484" type="line"/>
      <point x="34" y="555"/>
      <point x="45" y="599"/>
      <point x="73" y="643" type="curve" smooth="yes"/>
      <point x="115" y="711"/>
      <point x="193" y="752"/>
      <point x="279" y="752" type="curve" smooth="yes"/>
      <point x="416" y="752"/>
      <point x="520" y="648"/>
      <point x="520" y="512" type="curve" smooth="yes"/>
      <point x="520" y="462"/>
      <point x="505" y="412"/>
      <point x="476" y="370" type="curve"/>
      <point x="454" y="336"/>
      <point x="431" y="311"/>
      <point x="377" y="262" type="curve" smooth="yes"/>
      <point x="226" y="125" type="line"/>
      <point x="517" y="125" type="line"/>
      <point x="517" y="0" type="line"/>
    </contour>
  </outline>
</glyph>
<glyph name="four" format="1">
  <advance width="560"/>
  <unicode hex="0034"/>
  <outline>
    <contour>
      <point x="0" y="219" type="line"/>
      <point x="340" y="739" type="line"/>
      <point x="452" y="739" type="line"/>
      <point x="452" y="230" type="line"/>
      <point x="530" y="230" type="line"/>
      <point x="530" y="111" type="line"/>
      <point x="452" y="111" type="line"/>
      <point x="452" y="0" type="line"/>
      <point x="319" y="0" type="line"/>
      <point x="319" y="111" type="line"/>
      <point x="0" y="111" type="line"/>
    </contour>
    <contour>
      <point x="319" y="230" type="line"/>
      <point x="319" y="515" type="line"/>
      <point x="135" y="230" type="line"/>
    </contour>
  </outline>
</glyph>
<glyph name="nine" format="1">
  <advance width="560"/>
  <unicode hex="0039"/>
  <outline>
    <contour>
      <point x="266" y="0" type="line"/>
      <point x="107" y="0" type="line"/>
      <point x="285" y="263" type="line"/>
      <point x="261" y="254"/>
      <point x="247" y="251"/>
      <point x="225" y="251" type="curve" smooth="yes"/>
      <point x="110" y="251"/>
      <point x="22" y="353"/>
      <point x="22" y="487" type="curve" smooth="yes"/>
      <point x="22" y="641"/>
      <point x="127" y="752"/>
      <point x="273" y="752" type="curve" smooth="yes"/>
      <point x="422" y="752"/>
      <point x="532" y="643"/>
      <point x="532" y="496" type="curve" smooth="yes"/>
      <point x="532" y="426"/>
      <point x="512" y="369"/>
      <point x="459" y="290" type="curve" smooth="yes"/>
    </contour>
    <contour>
      <point x="273" y="630" type="curve" smooth="yes"/>
      <point x="203" y="630"/>
      <point x="155" y="576"/>
      <point x="155" y="500" type="curve" smooth="yes"/>
      <point x="155" y="424"/>
      <point x="206" y="369"/>
      <point x="276" y="369" type="curve" smooth="yes"/>
      <point x="349" y="369"/>
      <point x="399" y="423"/>
      <point x="399" y="500" type="curve" smooth="yes"/>
      <point x="399" y="576"/>
      <point x="346" y="630"/>
    </contour>
  </outline>
</glyph>
<glyph name="colon" format="1">
  <advance width="280"/>
  <unicode hex="003A"/>
  <outline>
    <contour>
      <point x="72" y="0" type="line"/>
      <point x="72" y="128" type="line"/>
      <point x="205" y="128" type="line"/>
      <point x="205" y="0" type="line"/>
    </contour>
    <contour>
      <point x="72" y="369" type="line"/>
      <point x="72" y="502" type="line"/>
      <point x="205" y="502" type="line"/>
      <point x="205" y="369" type="line"/>
    </contour>
  </outline>
</glyph>
<glyph name="semicolon" format="1">
  <advance width="280"/>
  <unicode hex="003B"/>
  <outline>
    <contour>
      <point x="72" y="0" type="line"/>
      <point x="72" y="128" type="line"/>
      <point x="205" y="128" type="line"/>
      <point x="205" y="-7" type="line" smooth="yes"/>
      <point x="205" y="-56"/>
      <point x="193" y="-84"/>
      <point x="162" y="-110" type="curve" smooth="yes"/>
      <point x="138" y="-131"/>
      <point x="109" y="-140"/>
      <point x="72" y="-140" type="curve"/>
      <point x="72" y="-73" type="line"/>
      <point x="114" y="-65"/>
      <point x="131" y="-49"/>
      <point x="131" y="-17" type="curve" smooth="yes"/>
      <point x="131" y="0" type="line"/>
    </contour>
    <contour>
      <point x="72" y="369" type="line"/>
      <point x="72" y="502" type="line"/>
      <point x="205" y="502" type="line"/>
      <point x="205" y="369" type="line"/>
    </contour>
  </outline>
</glyph>
<glyph name="greater" format="1">
  <advance width="600"/>
  <unicode hex="003E"/>
  <outline>
    <contour>
      <point x="48" y="33" type="line"/>
      <point x="48" y="149" type="line"/>
      <point x="390" y="306" type="line"/>
      <point x="48" y="465" type="line"/>
      <point x="48" y="582" type="line"/>
      <point x="557" y="356" type="line"/>
      <point x="557" y="258" type="line"/>
    </contour>
  </outline>
</glyph>
<glyph name="B" format="1">
  <advance width="580"/>
  <unicode hex="0042"/>
  <outline>
    <contour>
      <point x="68" y="0" type="line"/>
      <point x="68" y="739" type="line"/>
      <point x="220" y="739" type="line" smooth="yes"/>
      <point x="330" y="739"/>
      <point x="376" y="731"/>
      <point x="420" y="703" type="curve" smooth="yes"/>
      <point x="473" y="669"/>
      <point x="504" y="611"/>
      <point x="504" y="542" type="curve" smooth="yes"/>
      <point x="504" y="473"/>
      <point x="481" y="434"/>
      <point x="422" y="403" type="curve"/>
      <point x="470" y="383"/>
      <point x="491" y="369"/>
      <point x="512" y="341" type="curve" smooth="yes"/>
      <point x="535" y="311"/>
      <point x="548" y="266"/>
      <point x="548" y="220" type="curve" smooth="yes"/>
      <point x="548" y="144"/>
      <point x="513" y="78"/>
      <point x="452" y="41" type="curve" smooth="yes"/>
      <point x="407" y="13"/>
      <point x="347" y="0"/>
      <point x="265" y="0" type="curve" smooth="yes"/>
    </contour>
    <contour>
      <point x="205" y="131" type="line"/>
      <point x="273" y="131" type="line" smooth="yes"/>
      <point x="369" y="131"/>
      <point x="410" y="159"/>
      <point x="410" y="223" type="curve" smooth="yes"/>
      <point x="410" y="289"/>
      <point x="365" y="320"/>
      <point x="270" y="320" type="curve" smooth="yes"/>
      <point x="205" y="320" type="line"/>
    </contour>
    <contour>
      <point x="205" y="454" type="line"/>
      <point x="249" y="454" type="line" smooth="yes"/>
      <point x="332" y="454"/>
      <point x="367" y="477"/>
      <point x="367" y="530" type="curve" smooth="yes"/>
      <point x="367" y="581"/>
      <point x="332" y="605"/>
      <point x="261" y="605" type="curve" smooth="yes"/>
      <point x="205" y="605" type="line"/>
    </contour>
  </outline>
</glyph>
<glyph name="C" format="1">
  <advance width="780"/>
  <unicode hex="0043"/>
  <outline>
    <contour>
      <point x="599" y="206" type="curve"/>
      <point x="760" y="206" type="line"/>
      <point x="702" y="71"/>
      <point x="570" y="-13"/>
      <point x="419" y="-13" type="curve" smooth="yes"/>
      <point x="203" y="-13"/>
      <point x="30" y="159"/>
      <point x="30" y="372" type="curve" smooth="yes"/>
      <point x="30" y="581"/>
      <point x="201" y="752"/>
      <point x="410" y="752" type="curve" smooth="yes"/>
      <point x="500" y="752"/>
      <point x="587" y="722"/>
      <point x="655" y="667" type="curve" smooth="yes"/>
      <point x="705" y="626"/>
      <point x="731" y="591"/>
      <point x="760" y="527" type="curve"/>
      <point x="607" y="527" type="line"/>
      <point x="557" y="592"/>
      <point x="499" y="620"/>
      <point x="413" y="620" type="curve" smooth="yes"/>
      <point x="338" y="620"/>
      <point x="274" y="592"/>
      <point x="229" y="539" type="curve" smooth="yes"/>
      <point x="191" y="495"/>
      <point x="168" y="431"/>
      <point x="168" y="371" type="curve" smooth="yes"/>
      <point x="168" y="233"/>
      <point x="280" y="119"/>
      <point x="416" y="119" type="curve" smooth="yes"/>
      <point x="487" y="119"/>
      <point x="539" y="143"/>
    </contour>
  </outline>
</glyph>
<glyph name="F" format="1">
  <advance width="480"/>
  <unicode hex="0046"/>
  <outline>
    <contour>
      <point x="68" y="0" type="line"/>
      <point x="68" y="739" type="line"/>
      <point x="444" y="739" type="line"/>
      <point x="444" y="608" type="line"/>
      <point x="205" y="608" type="line"/>
      <point x="205" y="434" type="line"/>
      <point x="433" y="434" type="line"/>
      <point x="433" y="303" type="line"/>
      <point x="205" y="303" type="line"/>
      <point x="205" y="0" type="line"/>
    </contour>
  </outline>
</glyph>
<glyph name="J" format="1">
  <advance width="480"/>
  <unicode hex="004A"/>
  <outline>
    <contour>
      <point x="277" y="739" type="line"/>
      <point x="414" y="739" type="line"/>
      <point x="414" y="212" type="line" smooth="yes"/>
      <point x="414" y="73"/>
      <point x="338" y="-13"/>
      <point x="214" y="-13" type="curve" smooth="yes"/>
      <point x="152" y="-13"/>
      <point x="94" y="12"/>
      <point x="56" y="54" type="curve" smooth="yes"/>
      <point x="26" y="87"/>
      <point x="15" y="117"/>
      <point x="9" y="175" type="curve"/>
      <point x="146" y="175" type="line"/>
      <point x="155" y="138"/>
      <point x="177" y="119"/>
      <point x="211" y="119" type="curve" smooth="yes"/>
      <point x="255" y="119"/>
      <point x="277" y="151"/>
      <point x="277" y="216" type="curve" smooth="yes"/>
    </contour>
  </outline>
</glyph>
<glyph name="M" format="1">
  <advance width="900"/>
  <unicode hex="004D"/>
  <outline>
    <contour>
      <point x="68" y="0" type="line"/>
      <point x="68" y="739" type="line"/>
      <point x="256" y="739" type="line"/>
      <point x="455" y="179" type="line"/>
      <point x="652" y="739" type="line"/>
      <point x="840" y="739" type="line"/>
      <point x="840" y="0" type="line"/>
      <point x="703" y="0" type="line"/>
      <point x="703" y="554" type="line"/>
      <point x="510" y="0" type="line"/>
      <point x="398" y="0" type="line"/>
      <point x="205" y="554" type="line"/>
      <point x="205" y="0" type="line"/>
    </contour>
  </outline>
</glyph>
<glyph name="N" format="1">
  <advance width="740"/>
  <unicode hex="004E"/>
  <outline>
    <contour>
      <point x="68" y="0" type="line"/>
      <point x="68" y="739" type="line"/>
      <point x="224" y="739" type="line"/>
      <point x="530" y="201" type="line"/>
      <point x="530" y="739" type="line"/>
      <point x="667" y="739" type="line"/>
      <point x="667" y="0" type="line"/>
      <point x="514" y="0" type="line"/>
      <point x="205" y="537" type="line"/>
      <point x="205" y="0" type="line"/>
    </contour>
  </outline>
</glyph>
<glyph name="P" format="1">
  <advance width="560"/>
  <unicode hex="0050"/>
  <outline>
    <contour>
      <point x="68" y="0" type="line"/>
      <point x="68" y="739" type="line"/>
      <point x="251" y="739" type="line" smooth="yes"/>
      <point x="349" y="739"/>
      <point x="398" y="730"/>
      <point x="440" y="705" type="curve" smooth="yes"/>
      <point x="504" y="666"/>
      <point x="540" y="596"/>
      <point x="540" y="511" type="curve" smooth="yes"/>
      <point x="540" y="426"/>
      <point x="503" y="351"/>
      <point x="443" y="314" type="curve" smooth="yes"/>
      <point x="402" y="289"/>
      <point x="354" y="281"/>
      <point x="249" y="281" type="curve" smooth="yes"/>
      <point x="205" y="281" type="line"/>
      <point x="205" y="0" type="line"/>
    </contour>
    <contour>
      <point x="205" y="412" type="line"/>
      <point x="245" y="412" type="line" smooth="yes"/>
      <point x="298" y="412"/>
      <point x="336" y="418"/>
      <point x="357" y="429" type="curve" smooth="yes"/>
      <point x="386" y="445"/>
      <point x="402" y="473"/>
      <point x="402" y="509" type="curve" smooth="yes"/>
      <point x="402" y="555"/>
      <point x="378" y="590"/>
      <point x="338" y="601" type="curve"/>
      <point x="316" y="606"/>
      <point x="296" y="608"/>
      <point x="251" y="608" type="curve" smooth="yes"/>
      <point x="205" y="608" type="line"/>
    </contour>
  </outline>
</glyph>
<glyph name="Q" format="1">
  <advance width="840"/>
  <unicode hex="0051"/>
  <outline>
    <contour>
      <point x="828" y="110" type="curve"/>
      <point x="828" y="-14" type="line"/>
      <point x="820" y="-15"/>
      <point x="814" y="-15"/>
      <point x="810" y="-15" type="curve" smooth="yes"/>
      <point x="746" y="-15"/>
      <point x="698" y="2"/>
      <point x="635" y="45" type="curve"/>
      <point x="583" y="9"/>
      <point x="505" y="-13"/>
      <point x="430" y="-13" type="curve" smooth="yes"/>
      <point x="207" y="-13"/>
      <point x="30" y="157"/>
      <point x="30" y="370" type="curve" smooth="yes"/>
      <point x="30" y="585"/>
      <point x="202" y="752"/>
      <point x="424" y="752" type="curve" smooth="yes"/>
      <point x="648" y="752"/>
      <point x="815" y="587"/>
      <point x="815" y="366" type="curve" smooth="yes"/>
      <point x="815" y="268"/>
      <point x="786" y="191"/>
      <point x="726" y="129" type="curve"/>
      <point x="757" y="113"/>
      <point x="777" y="107"/>
      <point x="801" y="107" type="curve" smooth="yes"/>
      <point x="808" y="107"/>
      <point x="814" y="108"/>
    </contour>
    <contour>
      <point x="519" y="138" type="curve"/>
      <point x="434" y="206"/>
      <point x="363" y="235"/>
      <point x="282" y="235" type="curve" smooth="yes"/>
      <point x="258" y="235"/>
      <point x="243" y="233"/>
      <point x="211" y="227" type="curve"/>
      <point x="267" y="153"/>
      <point x="337" y="119"/>
      <point x="430" y="119" type="curve" smooth="yes"/>
      <point x="467" y="119"/>
      <point x="488" y="124"/>
    </contour>
    <contour>
      <point x="617" y="204" type="curve"/>
      <point x="657" y="245"/>
      <point x="677" y="297"/>
      <point x="677" y="364" type="curve" smooth="yes"/>
      <point x="677" y="511"/>
      <point x="568" y="620"/>
      <point x="422" y="620" type="curve" smooth="yes"/>
      <point x="277" y="620"/>
      <point x="167" y="512"/>
      <point x="167" y="369" type="curve" smooth="yes"/>
      <point x="167" y="360"/>
      <point x="167" y="352"/>
      <point x="169" y="334" type="curve"/>
      <point x="203" y="343"/>
      <point x="239" y="347"/>
      <point x="283" y="347" type="curve" smooth="yes"/>
      <point x="401" y="347"/>
      <point x="527" y="293"/>
    </contour>
  </outline>
</glyph>
<glyph name="W" format="1">
  <advance width="900"/>
  <unicode hex="0057"/>
  <outline>
    <contour>
      <point x="224" y="0" type="line"/>
      <point x="7" y="739" type="line"/>
      <point x="147" y="739" type="line"/>
      <point x="277" y="223" type="line"/>
      <point x="403" y="739" type="line"/>
      <point x="503" y="739" type="line"/>
      <point x="627" y="223" type="line"/>
      <point x="758" y="739" type="line"/>
      <point x="898" y="739" type="line"/>
      <point x="682" y="0" type="line"/>
      <point x="573" y="0" type="line"/>
      <point x="454" y="489" type="line"/>
      <point x="332" y="0" type="line"/>
    </contour>
  </outline>
</glyph>
<glyph name="X" format="1">
  <advance width="680"/>
  <unicode hex="0058"/>
  <outline>
    <contour>
      <point x="5" y="0" type="line"/>
      <point x="259" y="368" type="line"/>
      <point x="5" y="739" type="line"/>
      <point x="168" y="739" type="line"/>
      <point x="340" y="481" type="line"/>
      <point x="517" y="739" type="line"/>
      <point x="676" y="739" type="line"/>
      <point x="420" y="368" type="line"/>
      <point x="676" y="0" type="line"/>
      <point x="517" y="0" type="line"/>
      <point x="340" y="255" type="line"/>
      <point x="168" y="0" type="line"/>
    </contour>
  </outline>
</glyph>
<glyph name="bracketleft" format="1">
  <advance width="320"/>
  <unicode hex="005B"/>
  <outline>
    <contour>
      <point x="292" y="739" type="curve"/>
      <point x="292" y="592" type="line"/>
      <point x="256" y="577"/>
      <point x="240" y="563"/>
      <point x="229" y="539" type="curve" smooth="yes"/>
      <point x="216" y="510"/>
      <point x="209" y="469"/>
      <point x="209" y="419" type="curve" smooth="yes"/>
      <point x="209" y="164" type="line" smooth="yes"/>
      <point x="209" y="124"/>
      <point x="216" y="89"/>
      <point x="229" y="62" type="curve" smooth="yes"/>
      <point x="241" y="37"/>
      <point x="257" y="23"/>
      <point x="292" y="10" type="curve"/>
      <point x="292" y="-137" type="line"/>
      <point x="213" y="-119"/>
      <point x="164" y="-86"/>
      <point x="123" y="-23" type="curve" smooth="yes"/>
      <point x="90" y="29"/>
      <point x="74" y="96"/>
      <point x="74" y="187" type="curve" smooth="yes"/>
      <point x="74" y="446" type="line" smooth="yes"/>
      <point x="74" y="539"/>
      <point x="98" y="607"/>
      <point x="150" y="662" type="curve" smooth="yes"/>
      <point x="186" y="700"/>
      <point x="220" y="718"/>
    </contour>
  </outline>
</glyph>
<glyph name="asciicircum" format="1">
  <advance width="600"/>
  <unicode hex="005E"/>
  <outline>
    <contour>
      <point x="167" y="313" type="line"/>
      <point x="63" y="363" type="line"/>
      <point x="242" y="739" type="line"/>
      <point x="364" y="739" type="line"/>
      <point x="543" y="363" type="line"/>
      <point x="439" y="313" type="line"/>
      <point x="303" y="589" type="line"/>
    </contour>
  </outline>
</glyph>
<glyph name="f" format="1">
  <advance width="280"/>
  <unicode hex="0066"/>
  <outline>
    <contour>
      <point x="58" y="0" type="line"/>
      <point x="58" y="433" type="line"/>
      <point x="10" y="433" type="line"/>
      <point x="10" y="544" type="line"/>
      <point x="58" y="544" type="line"/>
      <point x="65" y="613"/>
      <point x="75" y="645"/>
      <point x="102" y="677" type="curve" smooth="yes"/>
      <point x="136" y="718"/>
      <point x="184" y="739"/>
      <point x="241" y="739" type="curve" smooth="yes"/>
      <point x="250" y="739"/>
      <point x="258" y="739"/>
      <point x="274" y="737" type="curve"/>
      <point x="274" y="611" type="line"/>
      <point x="261" y="611" type="line" smooth="yes"/>
      <point x="209" y="611"/>
      <point x="192" y="594"/>
      <point x="191" y="544" type="curve"/>
      <point x="266" y="544" type="line"/>
      <point x="266" y="433" type="line"/>
      <point x="191" y="433" type="line"/>
      <point x="191" y="0" type="line"/>
    </contour>
  </outline>
</glyph>
<glyph name="m" format="1">
  <advance width="940"/>
  <unicode hex="006D"/>
  <outline>
    <contour>
      <point x="54" y="0" type="line"/>
      <point x="54" y="554" type="line"/>
      <point x="176" y="554" type="line"/>
      <point x="176" y="502" type="line"/>
      <point x="215" y="549"/>
      <point x="255" y="567"/>
      <point x="320" y="567" type="curve" smooth="yes"/>
      <point x="396" y="567"/>
      <point x="445" y="541"/>
      <point x="483" y="481" type="curve"/>
      <point x="528" y="541"/>
      <point x="583" y="567"/>
      <point x="661" y="567" type="curve" smooth="yes"/>
      <point x="744" y="567"/>
      <point x="814" y="535"/>
      <point x="849" y="479" type="curve" smooth="yes"/>
      <point x="873" y="441"/>
      <point x="885" y="387"/>
      <point x="885" y="320" type="curve" smooth="yes"/>
      <point x="885" y="0" type="line"/>
      <point x="752" y="0" type="line"/>
      <point x="752" y="304" type="line" smooth="yes"/>
      <point x="752" y="359"/>
      <point x="745" y="390"/>
      <point x="727" y="411" type="curve" smooth="yes"/>
      <point x="709" y="433"/>
      <point x="681" y="445"/>
      <point x="648" y="445" type="curve" smooth="yes"/>
      <point x="606" y="445"/>
      <point x="572" y="426"/>
      <point x="555" y="392" type="curve" smooth="yes"/>
      <point x="541" y="366"/>
      <point x="536" y="335"/>
      <point x="536" y="273" type="curve" smooth="yes"/>
      <point x="536" y="0" type="line"/>
      <point x="403" y="0" type="line"/>
      <point x="403" y="304" type="line" smooth="yes"/>
      <point x="403" y="356"/>
      <point x="396" y="389"/>
      <point x="380" y="410" type="curve" smooth="yes"/>
      <point x="362" y="432"/>
      <point x="331" y="445"/>
      <point x="295" y="445" type="curve" smooth="yes"/>
      <point x="251" y="445"/>
      <point x="217" y="424"/>
      <point x="201" y="388" type="curve"/>
      <point x="192" y="365"/>
      <point x="187" y="328"/>
      <point x="187" y="273" type="curve" smooth="yes"/>
      <point x="187" y="0" type="line"/>
    </contour>
  </outline>
</glyph>
<glyph name="p" format="1">
  <advance width="660"/>
  <unicode hex="0070"/>
  <outline>
    <contour>
      <point x="54" y="-185" type="line"/>
      <point x="54" y="554" type="line"/>
      <point x="176" y="554" type="line"/>
      <point x="176" y="489" type="line"/>
      <point x="219" y="539"/>
      <point x="283" y="567"/>
      <point x="358" y="567" type="curve" smooth="yes"/>
      <point x="518" y="567"/>
      <point x="634" y="446"/>
      <point x="634" y="279" type="curve" smooth="yes"/>
      <point x="634" y="111"/>
      <point x="517" y="-13"/>
      <point x="357" y="-13" type="curve" smooth="yes"/>
      <point x="289" y="-13"/>
      <point x="237" y="7"/>
      <point x="187" y="52" type="curve"/>
      <point x="187" y="-185" type="line"/>
    </contour>
    <contour>
      <point x="341" y="445" type="curve" smooth="yes"/>
      <point x="249" y="445"/>
      <point x="179" y="373"/>
      <point x="179" y="278" type="curve" smooth="yes"/>
      <point x="179" y="181"/>
      <point x="249" y="109"/>
      <point x="343" y="109" type="curve" smooth="yes"/>
      <point x="431" y="109"/>
      <point x="500" y="182"/>
      <point x="500" y="276" type="curve" smooth="yes"/>
      <point x="500" y="372"/>
      <point x="431" y="445"/>
    </contour>
  </outline>
</glyph>
<glyph name="q" format="1">
  <advance width="660"/>
  <unicode hex="0071"/>
  <outline>
    <contour>
      <point x="489" y="554" type="line"/>
      <point x="611" y="554" type="line"/>
      <point x="611" y="-185" type="line"/>
      <point x="478" y="-185" type="line"/>
      <point x="478" y="53" type="line"/>
      <point x="434" y="9"/>
      <point x="379" y="-13"/>
      <point x="311" y="-13" type="curve" smooth="yes"/>
      <point x="152" y="-13"/>
      <point x="30" y="114"/>
      <point x="30" y="279" type="curve" smooth="yes"/>
      <point x="30" y="439"/>
      <point x="154" y="567"/>
      <point x="309" y="567" type="curve" smooth="yes"/>
      <point x="390" y="567"/>
      <point x="446" y="541"/>
      <point x="489" y="483" type="curve"/>
    </contour>
    <contour>
      <point x="328" y="445" type="curve" smooth="yes"/>
      <point x="234" y="445"/>
      <point x="164" y="373"/>
      <point x="164" y="276" type="curve" smooth="yes"/>
      <point x="164" y="180"/>
      <point x="233" y="109"/>
      <point x="327" y="109" type="curve" smooth="yes"/>
      <point x="418" y="109"/>
      <point x="486" y="180"/>
      <point x="486" y="275" type="curve" smooth="yes"/>
      <point x="486" y="372"/>
      <point x="418" y="445"/>
    </contour>
  </outline>
</glyph>
<glyph name="x" format="1">
  <advance width="560"/>
  <unicode hex="0078"/>
  <outline>
    <contour>
      <point x="1" y="0" type="line"/>
      <point x="197" y="286" type="line"/>
      <point x="27" y="554" type="line"/>
      <point x="177" y="554" type="line"/>
      <point x="277" y="387" type="line"/>
      <point x="375" y="554" type="line"/>
      <point x="525" y="554" type="line"/>
      <point x="356" y="286" type="line"/>
      <point x="553" y="0" type="line"/>
      <point x="393" y="0" type="line"/>
      <point x="277" y="190" type="line"/>
      <point x="161" y="0" type="line"/>
    </contour>
  </outline>
</glyph>
<glyph name="y" format="1">
  <advance width="580"/>
  <unicode hex="0079"/>
  <outline>
    <contour>
      <point x="105" y="-185" type="line"/>
      <point x="209" y="52" type="line"/>
      <point x="6" y="554" type="line"/>
      <point x="158" y="554" type="line"/>
      <point x="281" y="195" type="line"/>
      <point x="415" y="554" type="line"/>
      <point x="568" y="554" type="line"/>
      <point x="248" y="-185" type="line"/>
    </contour>
  </outline>
</glyph>
<glyph name="braceleft" format="1">
  <advance width="340"/>
  <unicode hex="007B"/>
  <outline>
    <contour>
      <point x="223" y="557" type="curve" smooth="yes"/>
      <point x="223" y="434" type="line" smooth="yes"/>
      <point x="223" y="356"/>
      <point x="200" y="323"/>
      <point x="133" y="305" type="curve"/>
      <point x="199" y="289"/>
      <point x="223" y="255"/>
      <point x="223" y="177" type="curve" smooth="yes"/>
      <point x="223" y="54" type="line" smooth="yes"/>
      <point x="223" y="-31"/>
      <point x="231" y="-42"/>
      <point x="302" y="-48" type="curve"/>
      <point x="302" y="-128" type="line"/>
      <point x="287" y="-129"/>
      <point x="269" y="-129"/>
      <point x="261" y="-129" type="curve" smooth="yes"/>
      <point x="160" y="-129"/>
      <point x="118" y="-88"/>
      <point x="118" y="10" type="curve" smooth="yes"/>
      <point x="118" y="167" type="line" smooth="yes"/>
      <point x="118" y="227"/>
      <point x="93" y="258"/>
      <point x="37" y="265" type="curve"/>
      <point x="37" y="346" type="line"/>
      <point x="93" y="353"/>
      <point x="118" y="384"/>
      <point x="118" y="444" type="curve" smooth="yes"/>
      <point x="118" y="601" type="line" smooth="yes"/>
      <point x="118" y="699"/>
      <point x="160" y="740"/>
      <point x="261" y="740" type="curve" smooth="yes"/>
      <point x="269" y="740"/>
      <point x="287" y="740"/>
      <point x="302" y="739" type="curve"/>
      <point x="302" y="659" type="line"/>
      <point x="231" y="653"/>
      <point x="223" y="642"/>
    </contour>
  </outline>
</glyph>
<glyph name="braceright" format="1">
  <advance width="340"/>
  <unicode hex="007D"/>
  <outline>
    <contour>
      <point x="117" y="54" type="curve" smooth="yes"/>
      <point x="117" y="177" type="line" smooth="yes"/>
      <point x="117" y="255"/>
      <point x="140" y="288"/>
      <point x="207" y="306" type="curve"/>
      <point x="141" y="322"/>
      <point x="117" y="356"/>
      <point x="117" y="434" type="curve" smooth="yes"/>
      <point x="117" y="557" type="line" smooth="yes"/>
      <point x="117" y="642"/>
      <point x="109" y="653"/>
      <point x="38" y="659" type="curve"/>
      <point x="38" y="739" type="line"/>
      <point x="53" y="740"/>
      <point x="71" y="740"/>
      <point x="79" y="740" type="curve" smooth="yes"/>
      <point x="180" y="740"/>
      <point x="222" y="699"/>
      <point x="222" y="601" type="curve" smooth="yes"/>
      <point x="222" y="444" type="line" smooth="yes"/>
      <point x="222" y="384"/>
      <point x="247" y="353"/>
      <point x="303" y="346" type="curve"/>
      <point x="303" y="265" type="line"/>
      <point x="247" y="258"/>
      <point x="222" y="227"/>
      <point x="222" y="167" type="curve" smooth="yes"/>
      <point x="222" y="10" type="line" smooth="yes"/>
      <point x="222" y="-88"/>
      <point x="180" y="-129"/>
      <point x="79" y="-129" type="curve" smooth="yes"/>
      <point x="71" y="-129"/>
      <point x="53" y="-129"/>
      <point x="38" y="-128" type="curve"/>
      <point x="38" y="-48" type="line"/>
      <point x="109" y="-42"/>
      <point x="117" y="-31"/>
    </contour>
  </outline>
</glyph>
<glyph name="asciitilde" format="1">
  <advance width="600"/>
  <unicode hex="007E"/>
  <outline>
    <contour>
      <point x="491" y="421" type="curve"/>
      <point x="555" y="347" type="line"/>
      <point x="503" y="261"/>
      <point x="464" y="230"/>
      <point x="410" y="230" type="curve" smooth="yes"/>
      <point x="390" y="230"/>
      <point x="355" y="239"/>
      <point x="319" y="254" type="curve" smooth="yes"/>
      <point x="265" y="276" type="line" smooth="yes"/>
      <point x="230" y="291"/>
      <point x="216" y="295"/>
      <point x="201" y="295" type="curve" smooth="yes"/>
      <point x="183" y="295"/>
      <point x="168" y="288"/>
      <point x="154" y="273" type="curve" smooth="yes"/>
      <point x="148" y="267"/>
      <point x="148" y="267"/>
      <point x="121" y="224" type="curve" smooth="yes"/>
      <point x="120" y="223"/>
      <point x="117" y="219"/>
      <point x="114" y="214" type="curve"/>
      <point x="51" y="289" type="line"/>
      <point x="76" y="330"/>
      <point x="83" y="342"/>
      <point x="99" y="361" type="curve" smooth="yes"/>
      <point x="124" y="393"/>
      <point x="161" y="412"/>
      <point x="199" y="412" type="curve" smooth="yes"/>
      <point x="222" y="412"/>
      <point x="252" y="406"/>
      <point x="276" y="396" type="curve" smooth="yes"/>
      <point x="343" y="369" type="line" smooth="yes"/>
      <point x="397" y="347"/>
      <point x="397" y="347"/>
      <point x="414" y="347" type="curve" smooth="yes"/>
      <point x="437" y="347"/>
      <point x="465" y="374"/>
    </contour>
  </outline>
</glyph>
<glyph name="exclamdown" format="1">
  <advance width="280"/>
  <unicode hex="00A1"/>
  <outline>
    <contour>
      <point x="205" y="366" type="line"/>
      <point x="205" y="-185" type="line"/>
      <point x="72" y="-185" type="line"/>
      <point x="72" y="366" type="line"/>
    </contour>
    <contour>
      <point x="205" y="554" type="line"/>
      <point x="205" y="426" type="line"/>
      <point x="72" y="426" type="line"/>
      <point x="72" y="554" type="line"/>
    </contour>
  </outline>
</glyph>
<glyph name="yen" format="1">
  <advance width="560"/>
  <unicode hex="00A5"/>
  <outline>
    <contour>
      <point x="208" y="0" type="line"/>
      <point x="208" y="187" type="line"/>
      <point x="12" y="187" type="line"/>
      <point x="12" y="275" type="line"/>
      <point x="208" y="275" type="line"/>
      <point x="152" y="380" type="line"/>
      <point x="12" y="380" type="line"/>
      <point x="12" y="468" type="line"/>
      <point x="106" y="468" type="line"/>
      <point x="-35" y="739" type="line"/>
      <point x="114" y="739" type="line"/>
      <point x="274" y="398" type="line"/>
      <point x="435" y="739" type="line"/>
      <point x="589" y="739" type="line"/>
      <point x="446" y="468" type="line"/>
      <point x="538" y="468" type="line"/>
      <point x="538" y="380" type="line"/>
      <point x="398" y="380" type="line"/>
      <point x="341" y="275" type="line"/>
      <point x="538" y="275" type="line"/>
      <point x="538" y="187" type="line"/>
      <point x="341" y="187" type="line"/>
      <point x="341" y="0" type="line"/>
    </contour>
  </outline>
</glyph>
<glyph name="dieresis" format="1">
  <advance width="500"/>
  <unicode hex="00A8"/>
  <outline>
    <contour>
      <point x="74" y="630" type="line"/>
      <point x="74" y="763" type="line"/>
      <point x="207" y="763" type="line"/>
      <point x="207" y="630" type="line"/>
    </contour>
    <contour>
      <point x="284" y="630" type="line"/>
      <point x="284" y="763" type="line"/>
      <point x="417" y="763" type="line"/>
      <point x="417" y="630" type="line"/>
    </contour>
  </outline>
</glyph>
<glyph name="copyright" format="1">
  <advance width="740"/>
  <unicode hex="00A9"/>
  <outline>
    <contour>
      <point x="477" y="320" type="curve"/>
      <point x="588" y="320" type="line"/>
      <point x="564" y="222"/>
      <point x="480" y="157"/>
      <point x="379" y="157" type="curve" smooth="yes"/>
      <point x="258" y="157"/>
      <point x="161" y="253"/>
      <point x="161" y="373" type="curve" smooth="yes"/>
      <point x="161" y="493"/>
      <point x="256" y="588"/>
      <point x="377" y="588" type="curve" smooth="yes"/>
      <point x="480" y="588"/>
      <point x="572" y="515"/>
      <point x="588" y="422" type="curve"/>
      <point x="477" y="422" type="line"/>
      <point x="461" y="467"/>
      <point x="422" y="495"/>
      <point x="377" y="495" type="curve" smooth="yes"/>
      <point x="314" y="495"/>
      <point x="266" y="442"/>
      <point x="266" y="374" type="curve" smooth="yes"/>
      <point x="266" y="304"/>
      <point x="315" y="250"/>
      <point x="377" y="250" type="curve" smooth="yes"/>
      <point x="421" y="250"/>
      <point x="455" y="274"/>
    </contour>
    <contour>
      <point x="373" y="752" type="curve" smooth="yes"/>
      <point x="589" y="752"/>
      <point x="759" y="581"/>
      <point x="759" y="365" type="curve" smooth="yes"/>
      <point x="759" y="159"/>
      <point x="584" y="-13"/>
      <point x="374" y="-13" type="curve" smooth="yes"/>
      <point x="161" y="-13"/>
      <point x="-12" y="159"/>
      <point x="-12" y="370" type="curve" smooth="yes"/>
      <point x="-12" y="580"/>
      <point x="161" y="752"/>
    </contour>
    <contour>
      <point x="373" y="675" type="curve" smooth="yes"/>
      <point x="205" y="675"/>
      <point x="68" y="538"/>
      <point x="68" y="370" type="curve" smooth="yes"/>
      <point x="68" y="203"/>
      <point x="205" y="67"/>
      <point x="373" y="67" type="curve" smooth="yes"/>
      <point x="540" y="67"/>
      <point x="679" y="203"/>
      <point x="679" y="366" type="curve" smooth="yes"/>
      <point x="679" y="539"/>
      <point x="544" y="675"/>
    </contour>
  </outline>
</glyph>
<glyph name="registered" format="1">
  <advance width="740"/>
  <unicode hex="00AE"/>
  <outline>
    <contour>
      <point x="229" y="166" type="line"/>
      <point x="229" y="579" type="line"/>
      <point x="360" y="579" type="line" smooth="yes"/>
      <point x="429" y="579"/>
      <point x="458" y="572"/>
      <point x="486" y="549" type="curve" smooth="yes"/>
      <point x="518" y="524"/>
      <point x="537" y="481"/>
      <point x="537" y="437" type="curve" smooth="yes"/>
      <point x="537" y="369"/>
      <point x="497" y="318"/>
      <point x="435" y="307" type="curve"/>
      <point x="547" y="166" type="line"/>
      <point x="426" y="166" type="line"/>
      <point x="330" y="300" type="line"/>
      <point x="330" y="166" type="line"/>
    </contour>
    <contour>
      <point x="330" y="372" type="line"/>
      <point x="367" y="372" type="line" smooth="yes"/>
      <point x="411" y="372"/>
      <point x="436" y="393"/>
      <point x="436" y="430" type="curve" smooth="yes"/>
      <point x="436" y="466"/>
      <point x="412" y="486"/>
      <point x="368" y="486" type="curve" smooth="yes"/>
      <point x="330" y="486" type="line"/>
    </contour>
    <contour>
      <point x="373" y="752" type="curve" smooth="yes"/>
      <point x="589" y="752"/>
      <point x="759" y="581"/>
      <point x="759" y="365" type="curve" smooth="yes"/>
      <point x="759" y="159"/>
      <point x="584" y="-13"/>
      <point x="374" y="-13" type="curve" smooth="yes"/>
      <point x="161" y="-13"/>
      <point x="-12" y="159"/>
      <point x="-12" y="370" type="curve" smooth="yes"/>
      <point x="-12" y="580"/>
      <point x="161" y="752"/>
    </contour>
    <contour>
      <point x="373" y="675" type="curve" smooth="yes"/>
      <point x="205" y="675"/>
      <point x="68" y="538"/>
      <point x="68" y="370" type="curve" smooth="yes"/>
      <point x="68" y="203"/>
      <point x="205" y="67"/>
      <point x="373" y="67" type="curve" smooth="yes"/>
      <point x="540" y="67"/>
      <point x="679" y="203"/>
      <point x="679" y="366" type="curve" smooth="yes"/>
      <point x="679" y="539"/>
      <point x="544" y="675"/>
    </contour>
  </outline>
</glyph>
<glyph name="macron" format="1">
  <advance width="420"/>
  <unicode hex="00AF"/>
  <outline>
    <contour>
      <point x="74" y="648" type="line"/>
      <point x="74" y="748" type="line"/>
      <point x="351" y="748" type="line"/>
      <point x="351" y="648" type="line"/>
    </contour>
  </outline>
</glyph>
<glyph name="plusminus" format="1">
  <advance width="600"/>
  <unicode hex="00B1"/>
  <outline>
    <contour>
      <point x="243" y="458" type="line"/>
      <point x="243" y="653" type="line"/>
      <point x="363" y="653" type="line"/>
      <point x="363" y="458" type="line"/>
      <point x="555" y="458" type="line"/>
      <point x="555" y="340" type="line"/>
      <point x="363" y="340" type="line"/>
      <point x="363" y="175" type="line"/>
      <point x="243" y="175" type="line"/>
      <point x="243" y="340" type="line"/>
      <point x="51" y="340" type="line"/>
      <point x="51" y="458" type="line"/>
    </contour>
    <contour>
      <point x="555" y="118" type="line"/>
      <point x="555" y="0" type="line"/>
      <point x="51" y="0" type="line"/>
      <point x="51" y="118" type="line"/>
    </contour>
  </outline>
</glyph>
<glyph name="threesuperior" format="1">
  <advance width="336"/>
  <unicode hex="00B3"/>
  <outline>
    <contour>
      <point x="128" y="506" type="line"/>
      <point x="128" y="588" type="line"/>
      <point x="189" y="589"/>
      <point x="211" y="600"/>
      <point x="211" y="630" type="curve" smooth="yes"/>
      <point x="211" y="652"/>
      <point x="193" y="668"/>
      <point x="168" y="668" type="curve" smooth="yes"/>
      <point x="143" y="668"/>
      <point x="131" y="657"/>
      <point x="126" y="628" type="curve"/>
      <point x="37" y="628" type="line"/>
      <point x="41" y="667"/>
      <point x="49" y="687"/>
      <point x="69" y="708" type="curve"/>
      <point x="94" y="732"/>
      <point x="129" y="746"/>
      <point x="167" y="746" type="curve" smooth="yes"/>
      <point x="243" y="746"/>
      <point x="299" y="695"/>
      <point x="299" y="625" type="curve" smooth="yes"/>
      <point x="299" y="593"/>
      <point x="287" y="568"/>
      <point x="265" y="551" type="curve"/>
      <point x="307" y="531"/>
      <point x="331" y="491"/>
      <point x="331" y="439" type="curve" smooth="yes"/>
      <point x="331" y="352"/>
      <point x="263" y="288"/>
      <point x="170" y="288" type="curve" smooth="yes"/>
      <point x="76" y="288"/>
      <point x="9" y="348"/>
      <point x="4" y="435" type="curve"/>
      <point x="92" y="435" type="line"/>
      <point x="98" y="393"/>
      <point x="127" y="367"/>
      <point x="170" y="367" type="curve" smooth="yes"/>
      <point x="212" y="367"/>
      <point x="244" y="396"/>
      <point x="244" y="436" type="curve" smooth="yes"/>
      <point x="244" y="479"/>
      <point x="207" y="506"/>
      <point x="149" y="506" type="curve" smooth="yes"/>
    </contour>
  </outline>
</glyph>
<glyph name="paragraph" format="1">
  <advance width="600"/>
  <unicode hex="00B6"/>
  <outline>
    <contour>
      <point x="241" y="-128" type="line"/>
      <point x="241" y="330" type="line"/>
      <point x="119" y="332"/>
      <point x="37" y="414"/>
      <point x="37" y="533" type="curve" smooth="yes"/>
      <point x="37" y="610"/>
      <point x="73" y="675"/>
      <point x="134" y="708" type="curve" smooth="yes"/>
      <point x="172" y="729"/>
      <point x="231" y="739"/>
      <point x="309" y="739" type="curve" smooth="yes"/>
      <point x="527" y="739" type="line"/>
      <point x="527" y="-128" type="line"/>
      <point x="426" y="-128" type="line"/>
      <point x="426" y="632" type="line"/>
      <point x="342" y="632" type="line"/>
      <point x="342" y="-128" type="line"/>
    </contour>
  </outline>
</glyph>
<glyph name="onesuperior" format="1">
  <advance width="336"/>
  <unicode hex="00B9"/>
  <outline>
    <contour>
      <point x="153" y="296" type="line"/>
      <point x="153" y="659" type="line"/>
      <point x="94" y="659" type="line"/>
      <point x="94" y="739" type="line"/>
      <point x="241" y="739" type="line"/>
      <point x="241" y="296" type="line"/>
    </contour>
  </outline>
</glyph>
<glyph name="ordmasculine" format="1">
  <advance width="360"/>
  <unicode hex="00BA"/>
  <outline>
    <contour>
      <point x="185" y="750" type="curve" smooth="yes"/>
      <point x="270" y="750"/>
      <point x="338" y="682"/>
      <point x="338" y="596" type="curve" smooth="yes"/>
      <point x="338" y="510"/>
      <point x="270" y="442"/>
      <point x="184" y="442" type="curve" smooth="yes"/>
      <point x="100" y="442"/>
      <point x="31" y="513"/>
      <point x="31" y="599" type="curve" smooth="yes"/>
      <point x="31" y="681"/>
      <point x="101" y="750"/>
    </contour>
    <contour>
      <point x="185" y="680" type="curve" smooth="yes"/>
      <point x="141" y="680"/>
      <point x="104" y="643"/>
      <point x="104" y="599" type="curve" smooth="yes"/>
      <point x="104" y="551"/>
      <point x="138" y="516"/>
      <point x="184" y="516" type="curve" smooth="yes"/>
      <point x="230" y="516"/>
      <point x="265" y="551"/>
      <point x="265" y="597" type="curve" smooth="yes"/>
      <point x="265" y="642"/>
      <point x="228" y="680"/>
    </contour>
    <contour>
      <point x="31" y="311" type="line"/>
      <point x="31" y="381" type="line"/>
      <point x="338" y="381" type="line"/>
      <point x="338" y="311" type="line"/>
    </contour>
  </outline>
</glyph>
<glyph name="onequarter" format="1">
  <advance width="840"/>
  <unicode hex="00BC"/>
  <outline>
    <contour>
      <point x="220" y="0" type="line"/>
      <point x="526" y="739" type="line"/>
      <point x="621" y="739" type="line"/>
      <point x="315" y="0" type="line"/>
    </contour>
    <contour>
      <point x="506" y="133" type="line"/>
      <point x="714" y="443" type="line"/>
      <point x="788" y="443" type="line"/>
      <point x="788" y="142" type="line"/>
      <point x="836" y="142" type="line"/>
      <point x="836" y="66" type="line"/>
      <point x="788" y="66" type="line"/>
      <point x="788" y="0" type="line"/>
      <point x="700" y="0" type="line"/>
      <point x="700" y="66" type="line"/>
      <point x="506" y="66" type="line"/>
    </contour>
    <contour>
      <point x="700" y="142" type="line"/>
      <point x="700" y="296" type="line"/>
      <point x="598" y="142" type="line"/>
    </contour>
    <contour>
      <point x="153" y="296" type="line"/>
      <point x="153" y="659" type="line"/>
      <point x="94" y="659" type="line"/>
      <point x="94" y="739" type="line"/>
      <point x="241" y="739" type="line"/>
      <point x="241" y="296" type="line"/>
    </contour>
  </outline>
</glyph>
<glyph name="onehalf" format="1">
  <advance width="840"/>
  <unicode hex="00BD"/>
  <outline>
    <contour>
      <point x="199" y="0" type="line"/>
      <point x="505" y="739" type="line"/>
      <point x="600" y="739" type="line"/>
      <point x="294" y="0" type="line"/>
    </contour>
    <contour>
      <point x="153" y="296" type="line"/>
      <point x="153" y="659" type="line"/>
      <point x="94" y="659" type="line"/>
      <point x="94" y="739" type="line"/>
      <point x="241" y="739" type="line"/>
      <point x="241" y="296" type="line"/>
    </contour>
    <contour>
      <point x="517" y="0" type="line"/>
      <point x="517" y="74" type="line"/>
      <point x="687" y="222" type="line" smooth="yes"/>
      <point x="728" y="259"/>
      <point x="742" y="280"/>
      <point x="742" y="307" type="curve" smooth="yes"/>
      <point x="742" y="344"/>
      <point x="713" y="372"/>
      <point x="674" y="372" type="curve" smooth="yes"/>
      <point x="629" y="372"/>
      <point x="602" y="341"/>
      <point x="601" y="286" type="curve"/>
      <point x="514" y="286" type="line"/>
      <point x="514" y="333"/>
      <point x="521" y="358"/>
      <point x="539" y="386" type="curve"/>
      <point x="567" y="426"/>
      <point x="617" y="451"/>
      <point x="673" y="451" type="curve" smooth="yes"/>
      <point x="763" y="451"/>
      <point x="830" y="388"/>
      <point x="830" y="305" type="curve" smooth="yes"/>
      <point x="830" y="253"/>
      <point x="800" y="202"/>
      <point x="741" y="155" type="curve" smooth="yes"/>
      <point x="647" y="80" type="line"/>
      <point x="828" y="80" type="line"/>
      <point x="828" y="0" type="line"/>
    </contour>
  </outline>
</glyph>
<glyph name="threequarters" format="1">
  <advance width="840"/>
  <unicode hex="00BE"/>
  <outline>
    <contour>
      <point x="250" y="0" type="line"/>
      <point x="556" y="739" type="line"/>
      <point x="651" y="739" type="line"/>
      <point x="345" y="0" type="line"/>
    </contour>
    <contour>
      <point x="506" y="133" type="line"/>
      <point x="714" y="443" type="line"/>
      <point x="788" y="443" type="line"/>
      <point x="788" y="142" type="line"/>
      <point x="836" y="142" type="line"/>
      <point x="836" y="66" type="line"/>
      <point x="788" y="66" type="line"/>
      <point x="788" y="0" type="line"/>
      <point x="700" y="0" type="line"/>
      <point x="700" y="66" type="line"/>
      <point x="506" y="66" type="line"/>
    </contour>
    <contour>
      <point x="700" y="142" type="line"/>
      <point x="700" y="296" type="line"/>
      <point x="598" y="142" type="line"/>
    </contour>
    <contour>
      <point x="128" y="506" type="line"/>
      <point x="128" y="588" type="line"/>
      <point x="189" y="589"/>
      <point x="211" y="600"/>
      <point x="211" y="630" type="curve" smooth="yes"/>
      <point x="211" y="652"/>
      <point x="193" y="668"/>
      <point x="168" y="668" type="curve" smooth="yes"/>
      <point x="143" y="668"/>
      <point x="131" y="657"/>
      <point x="126" y="628" type="curve"/>
      <point x="37" y="628" type="line"/>
      <point x="41" y="667"/>
      <point x="49" y="687"/>
      <point x="69" y="708" type="curve"/>
      <point x="94" y="732"/>
      <point x="129" y="746"/>
      <point x="167" y="746" type="curve" smooth="yes"/>
      <point x="243" y="746"/>
      <point x="299" y="695"/>
      <point x="299" y="625" type="curve" smooth="yes"/>
      <point x="299" y="593"/>
      <point x="287" y="568"/>
      <point x="265" y="551" type="curve"/>
      <point x="307" y="531"/>
      <point x="331" y="491"/>
      <point x="331" y="439" type="curve" smooth="yes"/>
      <point x="331" y="352"/>
      <point x="263" y="288"/>
      <point x="170" y="288" type="curve" smooth="yes"/>
      <point x="76" y="288"/>
      <point x="9" y="348"/>
      <point x="4" y="435" type="curve"/>
      <point x="92" y="435" type="line"/>
      <point x="98" y="393"/>
      <point x="127" y="367"/>
      <point x="170" y="367" type="curve" smooth="yes"/>
      <point x="212" y="367"/>
      <point x="244" y="396"/>
      <point x="244" y="436" type="curve" smooth="yes"/>
      <point x="244" y="479"/>
      <point x="207" y="506"/>
      <point x="149" y="506" type="curve" smooth="yes"/>
    </contour>
  </outline>
</glyph>
<glyph name="Ccedilla" format="1">
  <advance width="780"/>
  <unicode hex="00C7"/>
  <outline>
    <contour>
      <point x="399" y="-13" type="curve"/>
      <point x="383" y="-58" type="line"/>
      <point x="397" y="-53"/>
      <point x="403" y="-51"/>
      <point x="412" y="-51" type="curve" smooth="yes"/>
      <point x="462" y="-51"/>
      <point x="504" y="-97"/>
      <point x="504" y="-152" type="curve" smooth="yes"/>
      <point x="504" y="-211"/>
      <point x="465" y="-251"/>
      <point x="408" y="-251" type="curve" smooth="yes"/>
      <point x="356" y="-251"/>
      <point x="315" y="-216"/>
      <point x="307" y="-166" type="curve"/>
      <point x="369" y="-166" type="line"/>
      <point x="377" y="-186"/>
      <point x="389" y="-196"/>
      <point x="407" y="-196" type="curve" smooth="yes"/>
      <point x="428" y="-196"/>
      <point x="446" y="-175"/>
      <point x="446" y="-150" type="curve" smooth="yes"/>
      <point x="446" y="-126"/>
      <point x="428" y="-106"/>
      <point x="407" y="-106" type="curve" smooth="yes"/>
      <point x="393" y="-106"/>
      <point x="382" y="-113"/>
      <point x="369" y="-133" type="curve"/>
      <point x="316" y="-107" type="line"/>
      <point x="349" y="-7" type="line"/>
      <point x="170" y="20"/>
      <point x="30" y="186"/>
      <point x="30" y="372" type="curve" smooth="yes"/>
      <point x="30" y="581"/>
      <point x="201" y="752"/>
      <point x="410" y="752" type="curve" smooth="yes"/>
      <point x="500" y="752"/>
      <point x="587" y="722"/>
      <point x="655" y="667" type="curve" smooth="yes"/>
      <point x="705" y="626"/>
      <point x="731" y="591"/>
      <point x="760" y="527" type="curve"/>
      <point x="607" y="527" type="line"/>
      <point x="557" y="592"/>
      <point x="499" y="620"/>
      <point x="413" y="620" type="curve" smooth="yes"/>
      <point x="338" y="620"/>
      <point x="274" y="592"/>
      <point x="229" y="539" type="curve" smooth="yes"/>
      <point x="191" y="495"/>
      <point x="168" y="431"/>
      <point x="168" y="371" type="curve" smooth="yes"/>
      <point x="168" y="233"/>
      <point x="280" y="119"/>
      <point x="416" y="119" type="curve" smooth="yes"/>
      <point x="487" y="119"/>
      <point x="539" y="143"/>
      <point x="599" y="206" type="curve"/>
      <point x="760" y="206" type="line"/>
      <point x="698" y="65"/>
      <point x="561" y="-18"/>
    </contour>
  </outline>
</glyph>
<glyph name="Egrave" format="1">
  <advance width="520"/>
  <unicode hex="00C8"/>
  <outline>
    <contour>
      <point x="68" y="0" type="line"/>
      <point x="68" y="739" type="line"/>
      <point x="465" y="739" type="line"/>
      <point x="465" y="608" type="line"/>
      <point x="205" y="608" type="line"/>
      <point x="205" y="434" type="line"/>
      <point x="454" y="434" type="line"/>
      <point x="454" y="303" type="line"/>
      <point x="205" y="303" type="line"/>
      <point x="205" y="131" type="line"/>
      <point x="465" y="131" type="line"/>
      <point x="465" y="0" type="line"/>
    </contour>
    <contour>
      <point x="87" y="912" type="line"/>
      <point x="144" y="1000" type="line"/>
      <point x="366" y="867" type="line"/>
      <point x="313" y="788" type="line"/>
    </contour>
  </outline>
</glyph>
<glyph name="Eacute" format="1">
  <advance width="520"/>
  <unicode hex="00C9"/>
  <outline>
    <contour>
      <point x="68" y="0" type="line"/>
      <point x="68" y="739" type="line"/>
      <point x="465" y="739" type="line"/>
      <point x="465" y="608" type="line"/>
      <point x="205" y="608" type="line"/>
      <point x="205" y="434" type="line"/>
      <point x="454" y="434" type="line"/>
      <point x="454" y="303" type="line"/>
      <point x="205" y="303" type="line"/>
      <point x="205" y="131" type="line"/>
      <point x="465" y="131" type="line"/>
      <point x="465" y="0" type="line"/>
    </contour>
    <contour>
      <point x="225" y="788" type="line"/>
      <point x="174" y="866" type="line"/>
      <point x="398" y="1000" type="line"/>
      <point x="452" y="908" type="line"/>
    </contour>
  </outline>
</glyph>
<glyph name="Iacute" format="1">
  <advance width="280"/>
  <unicode hex="00CD"/>
  <outline>
    <contour>
      <point x="68" y="0" type="line"/>
      <point x="68" y="739" type="line"/>
      <point x="205" y="739" type="line"/>
      <point x="205" y="0" type="line"/>
    </contour>
    <contour>
      <point x="55" y="788" type="line"/>
      <point x="4" y="866" type="line"/>
      <point x="228" y="1000" type="line"/>
      <point x="282" y="908" type="line"/>
    </contour>
  </outline>
</glyph>
<glyph name="Icircumflex" format="1">
  <advance width="280"/>
  <unicode hex="00CE"/>
  <outline>
    <contour>
      <point x="68" y="0" type="line"/>
      <point x="68" y="739" type="line"/>
      <point x="205" y="739" type="line"/>
      <point x="205" y="0" type="line"/>
    </contour>
    <contour>
      <point x="-56" y="805" type="line"/>
      <point x="91" y="943" type="line"/>
      <point x="198" y="943" type="line"/>
      <point x="343" y="805" type="line"/>
      <point x="198" y="805" type="line"/>
      <point x="145" y="869" type="line"/>
      <point x="91" y="805" type="line"/>
    </contour>
  </outline>
</glyph>
<glyph name="Eth" format="1">
  <advance width="742"/>
  <unicode hex="00D0"/>
  <outline>
    <contour>
      <point x="110" y="0" type="line"/>
      <point x="110" y="315" type="line"/>
      <point x="14" y="315" type="line"/>
      <point x="14" y="422" type="line"/>
      <point x="110" y="422" type="line"/>
      <point x="110" y="739" type="line"/>
      <point x="279" y="739" type="line" smooth="yes"/>
      <point x="395" y="739"/>
      <point x="483" y="721"/>
      <point x="541" y="686" type="curve" smooth="yes"/>
      <point x="644" y="624"/>
      <point x="702" y="508"/>
      <point x="702" y="367" type="curve" smooth="yes"/>
      <point x="702" y="218"/>
      <point x="635" y="97"/>
      <point x="521" y="41" type="curve" smooth="yes"/>
      <point x="461" y="11"/>
      <point x="395" y="0"/>
      <point x="282" y="0" type="curve" smooth="yes"/>
    </contour>
    <contour>
      <point x="247" y="131" type="line"/>
      <point x="277" y="131" type="line" smooth="yes"/>
      <point x="359" y="131"/>
      <point x="416" y="141"/>
      <point x="457" y="164" type="curve" smooth="yes"/>
      <point x="523" y="200"/>
      <point x="564" y="278"/>
      <point x="564" y="368" type="curve" smooth="yes"/>
      <point x="564" y="462"/>
      <point x="521" y="542"/>
      <point x="451" y="578" type="curve" smooth="yes"/>
      <point x="408" y="600"/>
      <point x="362" y="608"/>
      <point x="274" y="608" type="curve" smooth="yes"/>
      <point x="247" y="608" type="line"/>
      <point x="247" y="422" type="line"/>
      <point x="401" y="422" type="line"/>
      <point x="401" y="315" type="line"/>
      <point x="247" y="315" type="line"/>
    </contour>
  </outline>
</glyph>
<glyph name="Otilde" format="1">
  <advance width="840"/>
  <unicode hex="00D5"/>
  <outline>
    <contour>
      <point x="420" y="752" type="curve" smooth="yes"/>
      <point x="631" y="752"/>
      <point x="800" y="581"/>
      <point x="800" y="370" type="curve" smooth="yes"/>
      <point x="800" y="154"/>
      <point x="634" y="-13"/>
      <point x="419" y="-13" type="curve" smooth="yes"/>
      <point x="202" y="-13"/>
      <point x="30" y="156"/>
      <point x="30" y="369" type="curve" smooth="yes"/>
      <point x="30" y="585"/>
      <point x="200" y="752"/>
    </contour>
    <contour>
      <point x="418" y="620" type="curve" smooth="yes"/>
      <point x="276" y="620"/>
      <point x="168" y="512"/>
      <point x="168" y="369" type="curve" smooth="yes"/>
      <point x="168" y="229"/>
      <point x="278" y="119"/>
      <point x="418" y="119" type="curve" smooth="yes"/>
      <point x="558" y="119"/>
      <point x="662" y="226"/>
      <point x="662" y="368" type="curve" smooth="yes"/>
      <point x="662" y="510"/>
      <point x="555" y="620"/>
    </contour>
    <contour>
      <point x="304" y="811" type="curve"/>
      <point x="250" y="891" type="line"/>
      <point x="285" y="926"/>
      <point x="311" y="938"/>
      <point x="353" y="938" type="curve" smooth="yes"/>
      <point x="374" y="938"/>
      <point x="384" y="936"/>
      <point x="413" y="924" type="curve" smooth="yes"/>
      <point x="433" y="916"/>
      <point x="447" y="913"/>
      <point x="460" y="913" type="curve" smooth="yes"/>
      <point x="486" y="913"/>
      <point x="506" y="923"/>
      <point x="527" y="947" type="curve"/>
      <point x="581" y="866" type="line"/>
      <point x="549" y="827"/>
      <point x="522" y="811"/>
      <point x="487" y="811" type="curve" smooth="yes"/>
      <point x="472" y="811"/>
      <point x="454" y="815"/>
      <point x="428" y="824" type="curve" smooth="yes"/>
      <point x="400" y="834"/>
      <point x="390" y="836"/>
      <point x="374" y="836" type="curve" smooth="yes"/>
      <point x="349" y="836"/>
      <point x="342" y="833"/>
    </contour>
  </outline>
</glyph>
<glyph name="Oslash" format="1">
  <advance width="840"/>
  <unicode hex="00D8"/>
  <outline>
    <contour>
      <point x="738" y="743" type="line"/>
      <point x="677" y="653" type="line"/>
      <point x="759" y="578"/>
      <point x="803" y="479"/>
      <point x="803" y="370" type="curve" smooth="yes"/>
      <point x="803" y="154"/>
      <point x="636" y="-13"/>
      <point x="421" y="-13" type="curve" smooth="yes"/>
      <point x="361" y="-13"/>
      <point x="306" y="-1"/>
      <point x="253" y="23" type="curve"/>
      <point x="193" y="-65" type="line"/>
      <point x="97" y="0" type="line"/>
      <point x="156" y="87" type="line"/>
      <point x="76" y="159"/>
      <point x="30" y="263"/>
      <point x="30" y="370" type="curve" smooth="yes"/>
      <point x="30" y="582"/>
      <point x="202" y="752"/>
      <point x="416" y="752" type="curve" smooth="yes"/>
      <point x="473" y="752"/>
      <point x="526" y="741"/>
      <point x="581" y="717" type="curve"/>
      <point x="643" y="809" type="line"/>
    </contour>
    <contour>
      <point x="601" y="540" type="curve"/>
      <point x="329" y="135" type="line"/>
      <point x="360" y="124"/>
      <point x="389" y="119"/>
      <point x="420" y="119" type="curve" smooth="yes"/>
      <point x="560" y="119"/>
      <point x="665" y="226"/>
      <point x="665" y="368" type="curve" smooth="yes"/>
      <point x="665" y="433"/>
      <point x="643" y="491"/>
    </contour>
    <contour>
      <point x="233" y="201" type="curve"/>
      <point x="505" y="605" type="line"/>
      <point x="476" y="615"/>
      <point x="448" y="620"/>
      <point x="416" y="620" type="curve" smooth="yes"/>
      <point x="278" y="620"/>
      <point x="168" y="510"/>
      <point x="168" y="370" type="curve" smooth="yes"/>
      <point x="168" y="309"/>
      <point x="191" y="249"/>
    </contour>
  </outline>
</glyph>
<glyph name="Yacute" format="1">
  <advance width="620"/>
  <unicode hex="00DD"/>
  <outline>
    <contour>
      <point x="246" y="0" type="line"/>
      <point x="246" y="273" type="line"/>
      <point x="3" y="739" type="line"/>
      <point x="151" y="739" type="line"/>
      <point x="315" y="399" type="line"/>
      <point x="478" y="739" type="line"/>
      <point x="626" y="739" type="line"/>
      <point x="383" y="273" type="line"/>
      <point x="383" y="0" type="line"/>
    </contour>
    <contour>
      <point x="267" y="788" type="line"/>
      <point x="216" y="866" type="line"/>
      <point x="440" y="1000" type="line"/>
      <point x="494" y="908" type="line"/>
    </contour>
  </outline>
</glyph>
<glyph name="Thorn" format="1">
  <advance width="560"/>
  <unicode hex="00DE"/>
  <outline>
    <contour>
      <point x="68" y="0" type="line"/>
      <point x="68" y="739" type="line"/>
      <point x="205" y="739" type="line"/>
      <point x="205" y="608" type="line"/>
      <point x="251" y="608" type="line" smooth="yes"/>
      <point x="349" y="608"/>
      <point x="398" y="599"/>
      <point x="440" y="574" type="curve" smooth="yes"/>
      <point x="504" y="535"/>
      <point x="540" y="465"/>
      <point x="540" y="380" type="curve" smooth="yes"/>
      <point x="540" y="294"/>
      <point x="503" y="220"/>
      <point x="443" y="182" type="curve" smooth="yes"/>
      <point x="402" y="157"/>
      <point x="354" y="149"/>
      <point x="249" y="149" type="curve" smooth="yes"/>
      <point x="205" y="149" type="line"/>
      <point x="205" y="0" type="line"/>
    </contour>
    <contour>
      <point x="205" y="280" type="line"/>
      <point x="245" y="280" type="line" smooth="yes"/>
      <point x="299" y="280"/>
      <point x="336" y="286"/>
      <point x="357" y="297" type="curve" smooth="yes"/>
      <point x="386" y="313"/>
      <point x="402" y="341"/>
      <point x="402" y="377" type="curve" smooth="yes"/>
      <point x="402" y="424"/>
      <point x="378" y="459"/>
      <point x="338" y="470" type="curve" smooth="yes"/>
      <point x="317" y="475"/>
      <point x="296" y="477"/>
      <point x="251" y="477" type="curve" smooth="yes"/>
      <point x="205" y="477" type="line"/>
    </contour>
  </outline>
</glyph>
<glyph name="ae" format="1">
  <advance width="1080"/>
  <unicode hex="00E6"/>
  <outline>
    <contour>
      <point x="887" y="164" type="curve"/>
      <point x="1032" y="164" type="line"/>
      <point x="999" y="63"/>
      <point x="889" y="-13"/>
      <point x="776" y="-13" type="curve" smooth="yes"/>
      <point x="702" y="-13"/>
      <point x="651" y="9"/>
      <point x="607" y="60" type="curve"/>
      <point x="607" y="0" type="line"/>
      <point x="485" y="0" type="line"/>
      <point x="485" y="60" type="line"/>
      <point x="440" y="7"/>
      <point x="396" y="-13"/>
      <point x="320" y="-13" type="curve" smooth="yes"/>
      <point x="154" y="-13"/>
      <point x="30" y="110"/>
      <point x="30" y="275" type="curve" smooth="yes"/>
      <point x="30" y="440"/>
      <point x="155" y="567"/>
      <point x="318" y="567" type="curve" smooth="yes"/>
      <point x="389" y="567"/>
      <point x="439" y="547"/>
      <point x="485" y="499" type="curve"/>
      <point x="485" y="554" type="line"/>
      <point x="607" y="554" type="line"/>
      <point x="607" y="499" type="line"/>
      <point x="654" y="547"/>
      <point x="704" y="567"/>
      <point x="774" y="567" type="curve" smooth="yes"/>
      <point x="929" y="567"/>
      <point x="1051" y="444"/>
      <point x="1051" y="288" type="curve" smooth="yes"/>
      <point x="1051" y="265"/>
      <point x="1049" y="249"/>
      <point x="1042" y="219" type="curve"/>
      <point x="614" y="219" type="line"/>
      <point x="637" y="150"/>
      <point x="695" y="109"/>
      <point x="770" y="109" type="curve" smooth="yes"/>
      <point x="819" y="109"/>
      <point x="855" y="126"/>
    </contour>
    <contour>
      <point x="323" y="445" type="curve" smooth="yes"/>
      <point x="234" y="445"/>
      <point x="164" y="372"/>
      <point x="164" y="280" type="curve" smooth="yes"/>
      <point x="164" y="181"/>
      <point x="231" y="109"/>
      <point x="325" y="109" type="curve" smooth="yes"/>
      <point x="414" y="109"/>
      <point x="481" y="181"/>
      <point x="481" y="276" type="curve" smooth="yes"/>
      <point x="481" y="372"/>
      <point x="412" y="445"/>
    </contour>
    <contour>
      <point x="607" y="337" type="curve"/>
      <point x="911" y="337" type="line"/>
      <point x="892" y="409"/>
      <point x="841" y="445"/>
      <point x="761" y="445" type="curve" smooth="yes"/>
      <point x="684" y="445"/>
      <point x="633" y="410"/>
    </contour>
  </outline>
</glyph>
<glyph name="ccedilla" format="1">
  <advance width="640"/>
  <unicode hex="00E7"/>
  <outline>
    <contour>
      <point x="319" y="-13" type="curve"/>
      <point x="300" y="-58" type="line"/>
      <point x="313" y="-53"/>
      <point x="320" y="-51"/>
      <point x="331" y="-51" type="curve" smooth="yes"/>
      <point x="381" y="-51"/>
      <point x="419" y="-94"/>
      <point x="419" y="-151" type="curve" smooth="yes"/>
      <point x="419" y="-211"/>
      <point x="381" y="-251"/>
      <point x="324" y="-251" type="curve" smooth="yes"/>
      <point x="273" y="-251"/>
      <point x="232" y="-215"/>
      <point x="225" y="-166" type="curve"/>
      <point x="285" y="-166" type="line"/>
      <point x="293" y="-186"/>
      <point x="305" y="-196"/>
      <point x="323" y="-196" type="curve" smooth="yes"/>
      <point x="345" y="-196"/>
      <point x="361" y="-178"/>
      <point x="361" y="-153" type="curve" smooth="yes"/>
      <point x="361" y="-128"/>
      <point x="345" y="-109"/>
      <point x="323" y="-109" type="curve" smooth="yes"/>
      <point x="309" y="-109"/>
      <point x="298" y="-116"/>
      <point x="285" y="-133" type="curve"/>
      <point x="233" y="-107" type="line"/>
      <point x="275" y="-9" type="line"/>
      <point x="133" y="16"/>
      <point x="30" y="135"/>
      <point x="30" y="277" type="curve" smooth="yes"/>
      <point x="30" y="440"/>
      <point x="158" y="567"/>
      <point x="322" y="567" type="curve" smooth="yes"/>
      <point x="399" y="567"/>
      <point x="472" y="539"/>
      <point x="526" y="489" type="curve" smooth="yes"/>
      <point x="564" y="454"/>
      <point x="582" y="425"/>
      <point x="601" y="369" type="curve"/>
      <point x="451" y="369" type="line"/>
      <point x="424" y="420"/>
      <point x="382" y="445"/>
      <point x="322" y="445" type="curve" smooth="yes"/>
      <point x="230" y="445"/>
      <point x="164" y="375"/>
      <point x="164" y="278" type="curve" smooth="yes"/>
      <point x="164" y="181"/>
      <point x="233" y="109"/>
      <point x="325" y="109" type="curve" smooth="yes"/>
      <point x="380" y="109"/>
      <point x="418" y="131"/>
      <point x="451" y="182" type="curve"/>
      <point x="601" y="182" type="line"/>
      <point x="558" y="58"/>
      <point x="452" y="-15"/>
    </contour>
  </outline>
</glyph>
<glyph name="icircumflex" format="1">
  <advance width="240"/>
  <unicode hex="00EE"/>
  <outline>
    <contour>
      <point x="54" y="0" type="line"/>
      <point x="54" y="554" type="line"/>
      <point x="187" y="554" type="line"/>
      <point x="187" y="0" type="line"/>
    </contour>
    <contour>
      <point x="-76" y="630" type="line"/>
      <point x="71" y="768" type="line"/>
      <point x="178" y="768" type="line"/>
      <point x="323" y="630" type="line"/>
      <point x="178" y="630" type="line"/>
      <point x="125" y="694" type="line"/>
      <point x="71" y="630" type="line"/>
    </contour>
  </outline>
</glyph>
<glyph name="idieresis" format="1">
  <advance width="240"/>
  <unicode hex="00EF"/>
  <outline>
    <contour>
      <point x="54" y="0" type="line"/>
      <point x="54" y="554" type="line"/>
      <point x="187" y="554" type="line"/>
      <point x="187" y="0" type="line"/>
    </contour>
    <contour>
      <point x="-56" y="630" type="line"/>
      <point x="-56" y="763" type="line"/>
      <point x="77" y="763" type="line"/>
      <point x="77" y="630" type="line"/>
    </contour>
    <contour>
      <point x="154" y="630" type="line"/>
      <point x="154" y="763" type="line"/>
      <point x="287" y="763" type="line"/>
      <point x="287" y="630" type="line"/>
    </contour>
  </outline>
</glyph>
<glyph name="ntilde" format="1">
  <advance width="600"/>
  <unicode hex="00F1"/>
  <outline>
    <contour>
      <point x="54" y="0" type="line"/>
      <point x="54" y="554" type="line"/>
      <point x="177" y="554" type="line"/>
      <point x="177" y="501" type="line"/>
      <point x="226" y="548"/>
      <point x="270" y="567"/>
      <point x="333" y="567" type="curve" smooth="yes"/>
      <point x="410" y="567"/>
      <point x="470" y="539"/>
      <point x="506" y="487" type="curve" smooth="yes"/>
      <point x="536" y="444"/>
      <point x="546" y="396"/>
      <point x="546" y="297" type="curve" smooth="yes"/>
      <point x="546" y="0" type="line"/>
      <point x="413" y="0" type="line"/>
      <point x="413" y="271" type="line" smooth="yes"/>
      <point x="413" y="345"/>
      <point x="405" y="386"/>
      <point x="387" y="410" type="curve" smooth="yes"/>
      <point x="369" y="433"/>
      <point x="341" y="445"/>
      <point x="307" y="445" type="curve" smooth="yes"/>
      <point x="265" y="445"/>
      <point x="230" y="427"/>
      <point x="209" y="394" type="curve" smooth="yes"/>
      <point x="192" y="367"/>
      <point x="187" y="335"/>
      <point x="187" y="261" type="curve" smooth="yes"/>
      <point x="187" y="0" type="line"/>
    </contour>
    <contour>
      <point x="179" y="636" type="curve"/>
      <point x="125" y="716" type="line"/>
      <point x="160" y="751"/>
      <point x="186" y="763"/>
      <point x="228" y="763" type="curve" smooth="yes"/>
      <point x="249" y="763"/>
      <point x="259" y="761"/>
      <point x="288" y="749" type="curve" smooth="yes"/>
      <point x="308" y="741"/>
      <point x="322" y="738"/>
      <point x="335" y="738" type="curve" smooth="yes"/>
      <point x="361" y="738"/>
      <point x="381" y="748"/>
      <point x="402" y="772" type="curve"/>
      <point x="456" y="691" type="line"/>
      <point x="424" y="652"/>
      <point x="397" y="636"/>
      <point x="362" y="636" type="curve" smooth="yes"/>
      <point x="347" y="636"/>
      <point x="329" y="640"/>
      <point x="303" y="649" type="curve" smooth="yes"/>
      <point x="275" y="659"/>
      <point x="265" y="661"/>
      <point x="249" y="661" type="curve" smooth="yes"/>
      <point x="224" y="661"/>
      <point x="217" y="658"/>
    </contour>
  </outline>
</glyph>
<glyph name="divide" format="1">
  <advance width="600"/>
  <unicode hex="00F7"/>
  <outline>
    <contour>
      <point x="370" y="538" type="line"/>
      <point x="235" y="538" type="line"/>
      <point x="235" y="669" type="line"/>
      <point x="370" y="669" type="line"/>
    </contour>
    <contour>
      <point x="370" y="73" type="line"/>
      <point x="235" y="73" type="line"/>
      <point x="235" y="204" type="line"/>
      <point x="370" y="204" type="line"/>
    </contour>
    <contour>
      <point x="555" y="430" type="line"/>
      <point x="555" y="312" type="line"/>
      <point x="51" y="312" type="line"/>
      <point x="51" y="430" type="line"/>
    </contour>
  </outline>
</glyph>
<glyph name="oslash" format="1">
  <advance width="660"/>
  <unicode hex="00F8"/>
  <outline>
    <contour>
      <point x="59" y="-10" type="line"/>
      <point x="116" y="74" type="line"/>
      <point x="61" y="126"/>
      <point x="30" y="200"/>
      <point x="30" y="277" type="curve" smooth="yes"/>
      <point x="30" y="437"/>
      <point x="163" y="567"/>
      <point x="326" y="567" type="curve" smooth="yes"/>
      <point x="365" y="567"/>
      <point x="400" y="560"/>
      <point x="435" y="546" type="curve"/>
      <point x="487" y="623" type="line"/>
      <point x="573" y="565" type="line"/>
      <point x="523" y="492" type="line"/>
      <point x="587" y="433"/>
      <point x="620" y="360"/>
      <point x="620" y="277" type="curve" smooth="yes"/>
      <point x="620" y="117"/>
      <point x="488" y="-13"/>
      <point x="326" y="-13" type="curve" smooth="yes"/>
      <point x="282" y="-13"/>
      <point x="241" y="-4"/>
      <point x="200" y="15" type="curve"/>
      <point x="144" y="-67" type="line"/>
    </contour>
    <contour>
      <point x="191" y="185" type="curve"/>
      <point x="363" y="440" type="line"/>
      <point x="348" y="444"/>
      <point x="339" y="445"/>
      <point x="325" y="445" type="curve" smooth="yes"/>
      <point x="237" y="445"/>
      <point x="164" y="370"/>
      <point x="164" y="278" type="curve" smooth="yes"/>
      <point x="164" y="245"/>
      <point x="173" y="214"/>
    </contour>
    <contour>
      <point x="450" y="383" type="curve"/>
      <point x="271" y="119" type="line"/>
      <point x="290" y="112"/>
      <point x="306" y="109"/>
      <point x="325" y="109" type="curve" smooth="yes"/>
      <point x="414" y="109"/>
      <point x="486" y="184"/>
      <point x="486" y="276" type="curve" smooth="yes"/>
      <point x="486" y="315"/>
      <point x="474" y="351"/>
    </contour>
  </outline>
</glyph>
<glyph name="ugrave" format="1">
  <advance width="600"/>
  <unicode hex="00F9"/>
  <outline>
    <contour>
      <point x="547" y="554" type="line"/>
      <point x="547" y="0" type="line"/>
      <point x="424" y="0" type="line"/>
      <point x="424" y="53" type="line"/>
      <point x="374" y="4"/>
      <point x="332" y="-13"/>
      <point x="265" y="-13" type="curve" smooth="yes"/>
      <point x="193" y="-13"/>
      <point x="133" y="16"/>
      <point x="96" y="69" type="curve" smooth="yes"/>
      <point x="65" y="115"/>
      <point x="54" y="163"/>
      <point x="54" y="257" type="curve" smooth="yes"/>
      <point x="54" y="554" type="line"/>
      <point x="187" y="554" type="line"/>
      <point x="187" y="283" type="line" smooth="yes"/>
      <point x="187" y="209"/>
      <point x="195" y="168"/>
      <point x="214" y="144" type="curve" smooth="yes"/>
      <point x="232" y="120"/>
      <point x="258" y="109"/>
      <point x="292" y="109" type="curve" smooth="yes"/>
      <point x="337" y="109"/>
      <point x="374" y="128"/>
      <point x="393" y="160" type="curve"/>
      <point x="409" y="184"/>
      <point x="414" y="220"/>
      <point x="414" y="293" type="curve" smooth="yes"/>
      <point x="414" y="554" type="line"/>
    </contour>
    <contour>
      <point x="121" y="737" type="line"/>
      <point x="178" y="825" type="line"/>
      <point x="400" y="692" type="line"/>
      <point x="347" y="613" type="line"/>
    </contour>
  </outline>
</glyph>
<glyph name="yacute" format="1">
  <advance width="580"/>
  <unicode hex="00FD"/>
  <outline>
    <contour>
      <point x="105" y="-185" type="line"/>
      <point x="209" y="52" type="line"/>
      <point x="6" y="554" type="line"/>
      <point x="158" y="554" type="line"/>
      <point x="281" y="195" type="line"/>
      <point x="415" y="554" type="line"/>
      <point x="568" y="554" type="line"/>
      <point x="248" y="-185" type="line"/>
    </contour>
    <contour>
      <point x="205" y="613" type="line"/>
      <point x="154" y="691" type="line"/>
      <point x="378" y="825" type="line"/>
      <point x="432" y="733" type="line"/>
    </contour>
  </outline>
</glyph>
<glyph name="ydieresis" format="1">
  <advance width="580"/>
  <unicode hex="00FF"/>
  <outline>
    <contour>
      <point x="105" y="-185" type="line"/>
      <point x="209" y="52" type="line"/>
      <point x="6" y="554" type="line"/>
      <point x="158" y="554" type="line"/>
      <point x="281" y="195" type="line"/>
      <point x="415" y="554" type="line"/>
      <point x="568" y="554" type="line"/>
      <point x="248" y="-185" type="line"/>
    </contour>
    <contour>
      <point x="116" y="630" type="line"/>
      <point x="116" y="763" type="line"/>
      <point x="249" y="763" type="line"/>
      <point x="249" y="630" type="line"/>
    </contour>
    <contour>
      <point x="326" y="630" type="line"/>
      <point x="326" y="763" type="line"/>
      <point x="459" y="763" type="line"/>
      <point x="459" y="630" type="line"/>
    </contour>
  </outline>
</glyph>
<glyph name="Abreve" format="1">
  <advance width="740"/>
  <unicode hex="0102"/>
  <outline>
    <contour>
      <point x="7" y="0" type="line"/>
      <point x="315" y="739" type="line"/>
      <point x="423" y="739" type="line"/>
      <point x="733" y="0" type="line"/>
      <point x="582" y="0" type="line"/>
      <point x="503" y="191" type="line"/>
      <point x="240" y="191" type="line"/>
      <point x="158" y="0" type="line"/>
    </contour>
    <contour>
      <point x="290" y="322" type="line"/>
      <point x="448" y="322" type="line"/>
      <point x="369" y="546" type="line"/>
    </contour>
    <contour>
      <point x="204" y="944" type="curve"/>
      <point x="302" y="944" type="line"/>
      <point x="314" y="915"/>
      <point x="337" y="901"/>
      <point x="370" y="901" type="curve" smooth="yes"/>
      <point x="405" y="901"/>
      <point x="427" y="916"/>
      <point x="432" y="944" type="curve"/>
      <point x="534" y="944" type="line"/>
      <point x="531" y="861"/>
      <point x="465" y="805"/>
      <point x="370" y="805" type="curve" smooth="yes"/>
      <point x="271" y="805"/>
      <point x="210" y="856"/>
    </contour>
  </outline>
</glyph>
<glyph name="abreve" format="1">
  <advance width="660"/>
  <unicode hex="0103"/>
  <outline>
    <contour>
      <point x="615" y="554" type="line"/>
      <point x="615" y="0" type="line"/>
      <point x="493" y="0" type="line"/>
      <point x="493" y="72" type="line"/>
      <point x="440" y="12"/>
      <point x="387" y="-13"/>
      <point x="309" y="-13" type="curve" smooth="yes"/>
      <point x="147" y="-13"/>
      <point x="30" y="108"/>
      <point x="30" y="275" type="curve" smooth="yes"/>
      <point x="30" y="444"/>
      <point x="148" y="567"/>
      <point x="312" y="567" type="curve" smooth="yes"/>
      <point x="392" y="567"/>
      <point x="447" y="541"/>
      <point x="493" y="480" type="curve"/>
      <point x="493" y="554" type="line"/>
    </contour>
    <contour>
      <point x="326" y="445" type="curve" smooth="yes"/>
      <point x="231" y="445"/>
      <point x="164" y="373"/>
      <point x="164" y="272" type="curve" smooth="yes"/>
      <point x="164" y="175"/>
      <point x="231" y="109"/>
      <point x="328" y="109" type="curve" smooth="yes"/>
      <point x="379" y="109"/>
      <point x="422" y="127"/>
      <point x="449" y="159" type="curve" smooth="yes"/>
      <point x="473" y="187"/>
      <point x="489" y="233"/>
      <point x="489" y="273" type="curve" smooth="yes"/>
      <point x="489" y="374"/>
      <point x="421" y="445"/>
    </contour>
    <contour>
      <point x="164" y="769" type="curve"/>
      <point x="262" y="769" type="line"/>
      <point x="274" y="740"/>
      <point x="297" y="726"/>
      <point x="330" y="726" type="curve" smooth="yes"/>
      <point x="365" y="726"/>
      <point x="387" y="741"/>
      <point x="392" y="769" type="curve"/>
      <point x="494" y="769" type="line"/>
      <point x="491" y="686"/>
      <point x="425" y="630"/>
      <point x="330" y="630" type="curve" smooth="yes"/>
      <point x="231" y="630"/>
      <point x="170" y="681"/>
    </contour>
  </outline>
</glyph>
<glyph name="Aogonek" format="1">
  <advance width="740"/>
  <unicode hex="0104"/>
  <outline>
    <contour>
      <point x="502" y="191" type="line"/>
      <point x="240" y="191" type="line"/>
      <point x="158" y="0" type="line"/>
      <point x="7" y="0" type="line"/>
      <point x="315" y="739" type="line"/>
      <point x="423" y="739" type="line"/>
      <point x="733" y="0" type="line"/>
      <point x="683" y="-36"/>
      <point x="668" y="-54"/>
      <point x="668" y="-81" type="curve" smooth="yes"/>
      <point x="668" y="-105"/>
      <point x="689" y="-123"/>
      <point x="718" y="-123" type="curve" smooth="yes"/>
      <point x="730" y="-123"/>
      <point x="739" y="-121"/>
      <point x="759" y="-113" type="curve"/>
      <point x="759" y="-190" type="line"/>
      <point x="737" y="-199"/>
      <point x="715" y="-204"/>
      <point x="693" y="-204" type="curve" smooth="yes"/>
      <point x="624" y="-204"/>
      <point x="577" y="-164"/>
      <point x="577" y="-105" type="curve" smooth="yes"/>
      <point x="577" y="-62"/>
      <point x="606" y="-27"/>
      <point x="663" y="0" type="curve"/>
      <point x="581" y="0" type="line"/>
    </contour>
    <contour>
      <point x="290" y="322" type="line"/>
      <point x="448" y="322" type="line"/>
      <point x="369" y="546" type="line"/>
    </contour>
  </outline>
</glyph>
<glyph name="cacute" format="1">
  <advance width="640"/>
  <unicode hex="0107"/>
  <outline>
    <contour>
      <point x="451" y="182" type="curve"/>
      <point x="601" y="182" type="line"/>
      <point x="555" y="58"/>
      <point x="455" y="-13"/>
      <point x="326" y="-13" type="curve" smooth="yes"/>
      <point x="162" y="-13"/>
      <point x="30" y="116"/>
      <point x="30" y="277" type="curve" smooth="yes"/>
      <point x="30" y="440"/>
      <point x="158" y="567"/>
      <point x="322" y="567" type="curve" smooth="yes"/>
      <point x="399" y="567"/>
      <point x="472" y="539"/>
      <point x="526" y="489" type="curve" smooth="yes"/>
      <point x="564" y="454"/>
      <point x="582" y="425"/>
      <point x="601" y="369" type="curve"/>
      <point x="451" y="369" type="line"/>
      <point x="424" y="420"/>
      <point x="382" y="445"/>
      <point x="322" y="445" type="curve" smooth="yes"/>
      <point x="230" y="445"/>
      <point x="164" y="375"/>
      <point x="164" y="278" type="curve" smooth="yes"/>
      <point x="164" y="181"/>
      <point x="233" y="109"/>
      <point x="325" y="109" type="curve" smooth="yes"/>
      <point x="380" y="109"/>
      <point x="418" y="131"/>
    </contour>
    <contour>
      <point x="235" y="613" type="line"/>
      <point x="184" y="691" type="line"/>
      <point x="408" y="825" type="line"/>
      <point x="462" y="733" type="line"/>
    </contour>
  </outline>
</glyph>
<glyph name="dcroat" format="1">
  <advance width="660"/>
  <unicode hex="0111"/>
  <outline>
    <contour>
      <point x="613" y="689" type="line"/>
      <point x="660" y="689" type="line"/>
      <point x="660" y="602" type="line"/>
      <point x="613" y="602" type="line"/>
      <point x="613" y="0" type="line"/>
      <point x="491" y="0" type="line"/>
      <point x="491" y="72" type="line"/>
      <point x="437" y="12"/>
      <point x="383" y="-13"/>
      <point x="308" y="-13" type="curve" smooth="yes"/>
      <point x="151" y="-13"/>
      <point x="30" y="114"/>
      <point x="30" y="278" type="curve" smooth="yes"/>
      <point x="30" y="444"/>
      <point x="152" y="574"/>
      <point x="308" y="574" type="curve" smooth="yes"/>
      <point x="377" y="574"/>
      <point x="441" y="548"/>
      <point x="480" y="504" type="curve"/>
      <point x="480" y="602" type="line"/>
      <point x="354" y="602" type="line"/>
      <point x="354" y="689" type="line"/>
      <point x="480" y="689" type="line"/>
      <point x="480" y="739" type="line"/>
      <point x="613" y="739" type="line"/>
    </contour>
    <contour>
      <point x="326" y="452" type="curve" smooth="yes"/>
      <point x="235" y="452"/>
      <point x="164" y="378"/>
      <point x="164" y="284" type="curve" smooth="yes"/>
      <point x="164" y="186"/>
      <point x="236" y="109"/>
      <point x="329" y="109" type="curve" smooth="yes"/>
      <point x="419" y="109"/>
      <point x="490" y="184"/>
      <point x="490" y="280" type="curve" smooth="yes"/>
      <point x="490" y="378"/>
      <point x="419" y="452"/>
    </contour>
  </outline>
</glyph>
<glyph name="Emacron" format="1">
  <advance width="520"/>
  <unicode hex="0112"/>
  <outline>
    <contour>
      <point x="68" y="0" type="line"/>
      <point x="68" y="739" type="line"/>
      <point x="465" y="739" type="line"/>
      <point x="465" y="608" type="line"/>
      <point x="205" y="608" type="line"/>
      <point x="205" y="434" type="line"/>
      <point x="454" y="434" type="line"/>
      <point x="454" y="303" type="line"/>
      <point x="205" y="303" type="line"/>
      <point x="205" y="131" type="line"/>
      <point x="465" y="131" type="line"/>
      <point x="465" y="0" type="line"/>
    </contour>
    <contour>
      <point x="124" y="823" type="line"/>
      <point x="124" y="923" type="line"/>
      <point x="401" y="923" type="line"/>
      <point x="401" y="823" type="line"/>
    </contour>
  </outline>
</glyph>
<glyph name="Eogonek" format="1">
  <advance width="520"/>
  <unicode hex="0118"/>
  <outline>
    <contour>
      <point x="465" y="131" type="line"/>
      <point x="465" y="0" type="line"/>
      <point x="414" y="-37"/>
      <point x="400" y="-54"/>
      <point x="400" y="-81" type="curve" smooth="yes"/>
      <point x="400" y="-105"/>
      <point x="421" y="-123"/>
      <point x="450" y="-123" type="curve" smooth="yes"/>
      <point x="462" y="-123"/>
      <point x="471" y="-121"/>
      <point x="491" y="-113" type="curve"/>
      <point x="491" y="-190" type="line"/>
      <point x="469" y="-199"/>
      <point x="447" y="-204"/>
      <point x="425" y="-204" type="curve" smooth="yes"/>
      <point x="356" y="-204"/>
      <point x="309" y="-164"/>
      <point x="309" y="-105" type="curve" smooth="yes"/>
      <point x="309" y="-62"/>
      <point x="337" y="-27"/>
      <point x="395" y="0" type="curve"/>
      <point x="68" y="0" type="line"/>
      <point x="68" y="739" type="line"/>
      <point x="465" y="739" type="line"/>
      <point x="465" y="608" type="line"/>
      <point x="205" y="608" type="line"/>
      <point x="205" y="434" type="line"/>
      <point x="454" y="434" type="line"/>
      <point x="454" y="303" type="line"/>
      <point x="205" y="303" type="line"/>
      <point x="205" y="131" type="line"/>
    </contour>
  </outline>
</glyph>
<glyph name="Ecaron" format="1">
  <advance width="520"/>
  <unicode hex="011A"/>
  <outline>
    <contour>
      <point x="68" y="0" type="line"/>
      <point x="68" y="739" type="line"/>
      <point x="465" y="739" type="line"/>
      <point x="465" y="608" type="line"/>
      <point x="205" y="608" type="line"/>
      <point x="205" y="434" type="line"/>
      <point x="454" y="434" type="line"/>
      <point x="454" y="303" type="line"/>
      <point x="205" y="303" type="line"/>
      <point x="205" y="131" type="line"/>
      <point x="465" y="131" type="line"/>
      <point x="465" y="0" type="line"/>
    </contour>
    <contour>
      <point x="64" y="943" type="line"/>
      <point x="211" y="943" type="line"/>
      <point x="265" y="879" type="line"/>
      <point x="318" y="943" type="line"/>
      <point x="463" y="943" type="line"/>
      <point x="318" y="805" type="line"/>
      <point x="211" y="805" type="line"/>
    </contour>
  </outline>
</glyph>
<glyph name="Gcommaaccent" format="1">
  <advance width="840"/>
  <unicode hex="0122"/>
  <outline>
    <contour>
      <point x="335" y="249" type="line"/>
      <point x="335" y="377" type="line"/>
      <point x="818" y="377" type="line"/>
      <point x="818" y="359" type="line" smooth="yes"/>
      <point x="818" y="264"/>
      <point x="780" y="172"/>
      <point x="712" y="101" type="curve" smooth="yes"/>
      <point x="639" y="26"/>
      <point x="543" y="-13"/>
      <point x="432" y="-13" type="curve" smooth="yes"/>
      <point x="205" y="-13"/>
      <point x="30" y="155"/>
      <point x="30" y="371" type="curve" smooth="yes"/>
      <point x="30" y="583"/>
      <point x="203" y="752"/>
      <point x="419" y="752" type="curve" smooth="yes"/>
      <point x="580" y="752"/>
      <point x="732" y="655"/>
      <point x="780" y="522" type="curve"/>
      <point x="619" y="522" type="line"/>
      <point x="573" y="586"/>
      <point x="502" y="620"/>
      <point x="416" y="620" type="curve" smooth="yes"/>
      <point x="345" y="620"/>
      <point x="280" y="594"/>
      <point x="237" y="547" type="curve"/>
      <point x="195" y="503"/>
      <point x="168" y="433"/>
      <point x="168" y="369" type="curve" smooth="yes"/>
      <point x="168" y="228"/>
      <point x="279" y="119"/>
      <point x="424" y="119" type="curve" smooth="yes"/>
      <point x="521" y="119"/>
      <point x="601" y="167"/>
      <point x="641" y="249" type="curve"/>
    </contour>
    <contour>
      <point x="316" y="-245" type="line"/>
      <point x="374" y="-53" type="line"/>
      <point x="478" y="-53" type="line"/>
      <point x="420" y="-245" type="line"/>
    </contour>
  </outline>
</glyph>
<glyph name="gcommaaccent" format="1">
  <advance width="660"/>
  <unicode hex="0123"/>
  <outline>
    <contour>
      <point x="484" y="554" type="line"/>
      <point x="611" y="554" type="line"/>
      <point x="611" y="105" type="line" smooth="yes"/>
      <point x="611" y="-1"/>
      <point x="594" y="-69"/>
      <point x="555" y="-120" type="curve" smooth="yes"/>
      <point x="503" y="-186"/>
      <point x="424" y="-221"/>
      <point x="324" y="-221" type="curve" smooth="yes"/>
      <point x="188" y="-221"/>
      <point x="84" y="-156"/>
      <point x="39" y="-45" type="curve"/>
      <point x="190" y="-45" type="line"/>
      <point x="229" y="-88"/>
      <point x="267" y="-104"/>
      <point x="329" y="-104" type="curve" smooth="yes"/>
      <point x="428" y="-104"/>
      <point x="479" y="-46"/>
      <point x="484" y="73" type="curve"/>
      <point x="432" y="12"/>
      <point x="380" y="-13"/>
      <point x="302" y="-13" type="curve" smooth="yes"/>
      <point x="144" y="-13"/>
      <point x="30" y="110"/>
      <point x="30" y="281" type="curve" smooth="yes"/>
      <point x="30" y="445"/>
      <point x="146" y="567"/>
      <point x="303" y="567" type="curve" smooth="yes"/>
      <point x="383" y="567"/>
      <point x="443" y="540"/>
      <point x="484" y="484" type="curve"/>
    </contour>
    <contour>
      <point x="318" y="445" type="curve" smooth="yes"/>
      <point x="225" y="445"/>
      <point x="164" y="377"/>
      <point x="164" y="275" type="curve" smooth="yes"/>
      <point x="164" y="174"/>
      <point x="225" y="109"/>
      <point x="320" y="109" type="curve" smooth="yes"/>
      <point x="415" y="109"/>
      <point x="478" y="175"/>
      <point x="478" y="275" type="curve" smooth="yes"/>
      <point x="478" y="376"/>
      <point x="413" y="445"/>
    </contour>
    <contour>
      <point x="272" y="607" type="line"/>
      <point x="330" y="799" type="line"/>
      <point x="434" y="799" type="line"/>
      <point x="376" y="607" type="line"/>
    </contour>
  </outline>
</glyph>
<glyph name="Hbar" format="1">
  <advance width="680"/>
  <unicode hex="0126"/>
  <outline>
    <contour>
      <point x="606" y="549" type="line"/>
      <point x="606" y="0" type="line"/>
      <point x="469" y="0" type="line"/>
      <point x="469" y="310" type="line"/>
      <point x="205" y="310" type="line"/>
      <point x="205" y="0" type="line"/>
      <point x="68" y="0" type="line"/>
      <point x="68" y="549" type="line"/>
      <point x="8" y="549" type="line"/>
      <point x="8" y="649" type="line"/>
      <point x="68" y="649" type="line"/>
      <point x="68" y="739" type="line"/>
      <point x="205" y="739" type="line"/>
      <point x="205" y="649" type="line"/>
      <point x="469" y="649" type="line"/>
      <point x="469" y="739" type="line"/>
      <point x="606" y="739" type="line"/>
      <point x="606" y="649" type="line"/>
      <point x="672" y="649" type="line"/>
      <point x="672" y="549" type="line"/>
    </contour>
    <contour>
      <point x="469" y="549" type="line"/>
      <point x="205" y="549" type="line"/>
      <point x="205" y="441" type="line"/>
      <point x="469" y="441" type="line"/>
    </contour>
  </outline>
</glyph>
<glyph name="hbar" format="1">
  <advance width="600"/>
  <unicode hex="0127"/>
  <outline>
    <contour>
      <point x="187" y="602" type="line"/>
      <point x="187" y="516" type="line"/>
      <point x="227" y="552"/>
      <point x="271" y="568"/>
      <point x="328" y="568" type="curve" smooth="yes"/>
      <point x="407" y="568"/>
      <point x="471" y="537"/>
      <point x="508" y="480" type="curve" smooth="yes"/>
      <point x="535" y="439"/>
      <point x="545" y="394"/>
      <point x="545" y="313" type="curve" smooth="yes"/>
      <point x="545" y="0" type="line"/>
      <point x="412" y="0" type="line"/>
      <point x="412" y="283" type="line" smooth="yes"/>
      <point x="412" y="399"/>
      <point x="382" y="445"/>
      <point x="304" y="445" type="curve" smooth="yes"/>
      <point x="260" y="445"/>
      <point x="225" y="426"/>
      <point x="206" y="392" type="curve" smooth="yes"/>
      <point x="192" y="367"/>
      <point x="187" y="336"/>
      <point x="187" y="281" type="curve" smooth="yes"/>
      <point x="187" y="0" type="line"/>
      <point x="54" y="0" type="line"/>
      <point x="54" y="602" type="line"/>
      <point x="-16" y="602" type="line"/>
      <point x="-16" y="702" type="line"/>
      <point x="54" y="702" type="line"/>
      <point x="54" y="739" type="line"/>
      <point x="187" y="739" type="line"/>
      <point x="187" y="702" type="line"/>
      <point x="261" y="702" type="line"/>
      <point x="261" y="602" type="line"/>
    </contour>
  </outline>
</glyph>
<glyph name="Itilde" format="1">
  <advance width="280"/>
  <unicode hex="0128"/>
  <outline>
    <contour>
      <point x="68" y="0" type="line"/>
      <point x="68" y="739" type="line"/>
      <point x="205" y="739" type="line"/>
      <point x="205" y="0" type="line"/>
    </contour>
    <contour>
      <point x="25" y="812" type="curve"/>
      <point x="-29" y="892" type="line"/>
      <point x="6" y="927"/>
      <point x="32" y="939"/>
      <point x="74" y="939" type="curve" smooth="yes"/>
      <point x="95" y="939"/>
      <point x="105" y="937"/>
      <point x="134" y="925" type="curve" smooth="yes"/>
      <point x="154" y="917"/>
      <point x="168" y="914"/>
      <point x="181" y="914" type="curve" smooth="yes"/>
      <point x="207" y="914"/>
      <point x="227" y="924"/>
      <point x="248" y="948" type="curve"/>
      <point x="302" y="867" type="line"/>
      <point x="270" y="828"/>
      <point x="243" y="812"/>
      <point x="208" y="812" type="curve" smooth="yes"/>
      <point x="193" y="812"/>
      <point x="175" y="816"/>
      <point x="149" y="825" type="curve" smooth="yes"/>
      <point x="121" y="835"/>
      <point x="111" y="837"/>
      <point x="95" y="837" type="curve" smooth="yes"/>
      <point x="70" y="837"/>
      <point x="63" y="834"/>
    </contour>
  </outline>
</glyph>
<glyph name="itilde" format="1">
  <advance width="240"/>
  <unicode hex="0129"/>
  <outline>
    <contour>
      <point x="54" y="0" type="line"/>
      <point x="54" y="554" type="line"/>
      <point x="187" y="554" type="line"/>
      <point x="187" y="0" type="line"/>
    </contour>
    <contour>
      <point x="8" y="627" type="curve"/>
      <point x="-46" y="707" type="line"/>
      <point x="-11" y="742"/>
      <point x="15" y="754"/>
      <point x="57" y="754" type="curve" smooth="yes"/>
      <point x="78" y="754"/>
      <point x="88" y="752"/>
      <point x="117" y="740" type="curve" smooth="yes"/>
      <point x="137" y="732"/>
      <point x="151" y="729"/>
      <point x="164" y="729" type="curve" smooth="yes"/>
      <point x="190" y="729"/>
      <point x="210" y="739"/>
      <point x="231" y="763" type="curve"/>
      <point x="285" y="682" type="line"/>
      <point x="253" y="643"/>
      <point x="226" y="627"/>
      <point x="191" y="627" type="curve" smooth="yes"/>
      <point x="176" y="627"/>
      <point x="158" y="631"/>
      <point x="132" y="640" type="curve" smooth="yes"/>
      <point x="104" y="650"/>
      <point x="94" y="652"/>
      <point x="78" y="652" type="curve" smooth="yes"/>
      <point x="53" y="652"/>
      <point x="46" y="649"/>
    </contour>
  </outline>
</glyph>
<glyph name="Imacron" format="1">
  <advance width="280"/>
  <unicode hex="012A"/>
  <outline>
    <contour>
      <point x="68" y="0" type="line"/>
      <point x="68" y="739" type="line"/>
      <point x="205" y="739" type="line"/>
      <point x="205" y="0" type="line"/>
    </contour>
    <contour>
      <point x="4" y="823" type="line"/>
      <point x="4" y="923" type="line"/>
      <point x="281" y="923" type="line"/>
      <point x="281" y="823" type="line"/>
    </contour>
  </outline>
</glyph>
<glyph name="imacron" format="1">
  <advance width="240"/>
  <unicode hex="012B"/>
  <outline>
    <contour>
      <point x="54" y="0" type="line"/>
      <point x="54" y="554" type="line"/>
      <point x="187" y="554" type="line"/>
      <point x="187" y="0" type="line"/>
    </contour>
    <contour>
      <point x="-16" y="648" type="line"/>
      <point x="-16" y="748" type="line"/>
      <point x="261" y="748" type="line"/>
      <point x="261" y="648" type="line"/>
    </contour>
  </outline>
</glyph>
<glyph name="Ibreve" format="1">
  <advance width="280"/>
  <unicode hex="012C"/>
  <outline>
    <contour>
      <point x="68" y="0" type="line"/>
      <point x="68" y="739" type="line"/>
      <point x="205" y="739" type="line"/>
      <point x="205" y="0" type="line"/>
    </contour>
    <contour>
      <point x="-28" y="951" type="curve"/>
      <point x="70" y="951" type="line"/>
      <point x="82" y="922"/>
      <point x="105" y="908"/>
      <point x="138" y="908" type="curve" smooth="yes"/>
      <point x="173" y="908"/>
      <point x="195" y="923"/>
      <point x="200" y="951" type="curve"/>
      <point x="302" y="951" type="line"/>
      <point x="299" y="868"/>
      <point x="233" y="812"/>
      <point x="138" y="812" type="curve" smooth="yes"/>
      <point x="39" y="812"/>
      <point x="-22" y="863"/>
    </contour>
  </outline>
</glyph>
<glyph name="ibreve" format="1">
  <advance width="240"/>
  <unicode hex="012D"/>
  <outline>
    <contour>
      <point x="54" y="0" type="line"/>
      <point x="54" y="554" type="line"/>
      <point x="187" y="554" type="line"/>
      <point x="187" y="0" type="line"/>
    </contour>
    <contour>
      <point x="-45" y="766" type="curve"/>
      <point x="53" y="766" type="line"/>
      <point x="65" y="737"/>
      <point x="88" y="723"/>
      <point x="121" y="723" type="curve" smooth="yes"/>
      <point x="156" y="723"/>
      <point x="178" y="738"/>
      <point x="183" y="766" type="curve"/>
      <point x="285" y="766" type="line"/>
      <point x="282" y="683"/>
      <point x="216" y="627"/>
      <point x="121" y="627" type="curve" smooth="yes"/>
      <point x="22" y="627"/>
      <point x="-39" y="678"/>
    </contour>
  </outline>
</glyph>
<glyph name="Iogonek" format="1">
  <advance width="280"/>
  <unicode hex="012E"/>
  <outline>
    <contour>
      <point x="205" y="739" type="line"/>
      <point x="205" y="0" type="line"/>
      <point x="154" y="-37"/>
      <point x="140" y="-54"/>
      <point x="140" y="-81" type="curve" smooth="yes"/>
      <point x="140" y="-105"/>
      <point x="161" y="-123"/>
      <point x="190" y="-123" type="curve" smooth="yes"/>
      <point x="202" y="-123"/>
      <point x="211" y="-121"/>
      <point x="231" y="-113" type="curve"/>
      <point x="231" y="-190" type="line"/>
      <point x="209" y="-199"/>
      <point x="187" y="-204"/>
      <point x="165" y="-204" type="curve" smooth="yes"/>
      <point x="96" y="-204"/>
      <point x="49" y="-164"/>
      <point x="49" y="-105" type="curve" smooth="yes"/>
      <point x="49" y="-62"/>
      <point x="77" y="-27"/>
      <point x="135" y="0" type="curve"/>
      <point x="68" y="0" type="line"/>
      <point x="68" y="739" type="line"/>
    </contour>
  </outline>
</glyph>
<glyph name="IJ" format="1">
  <advance width="762"/>
  <unicode hex="0132"/>
  <outline>
    <contour>
      <point x="550" y="739" type="line"/>
      <point x="687" y="739" type="line"/>
      <point x="687" y="212" type="line" smooth="yes"/>
      <point x="687" y="73"/>
      <point x="611" y="-13"/>
      <point x="487" y="-13" type="curve" smooth="yes"/>
      <point x="425" y="-13"/>
      <point x="367" y="12"/>
      <point x="329" y="54" type="curve" smooth="yes"/>
      <point x="299" y="87"/>
      <point x="288" y="117"/>
      <point x="282" y="175" type="curve"/>
      <point x="419" y="175" type="line"/>
      <point x="428" y="138"/>
      <point x="450" y="119"/>
      <point x="484" y="119" type="curve" smooth="yes"/>
      <point x="528" y="119"/>
      <point x="550" y="151"/>
      <point x="550" y="216" type="curve" smooth="yes"/>
    </contour>
    <contour>
      <point x="68" y="0" type="line"/>
      <point x="68" y="739" type="line"/>
      <point x="205" y="739" type="line"/>
      <point x="205" y="0" type="line"/>
    </contour>
  </outline>
</glyph>
<glyph name="ij" format="1">
  <advance width="436"/>
  <unicode hex="0133"/>
  <outline>
    <contour>
      <point x="250" y="554" type="line"/>
      <point x="383" y="554" type="line"/>
      <point x="383" y="37" type="line" smooth="yes"/>
      <point x="383" y="-46"/>
      <point x="365" y="-99"/>
      <point x="324" y="-137" type="curve" smooth="yes"/>
      <point x="291" y="-168"/>
      <point x="246" y="-185"/>
      <point x="195" y="-185" type="curve"/>
      <point x="195" y="-56" type="line"/>
      <point x="245" y="-47"/>
      <point x="250" y="-38"/>
      <point x="250" y="40" type="curve" smooth="yes"/>
    </contour>
    <contour>
      <point x="250" y="614" type="line"/>
      <point x="250" y="739" type="line"/>
      <point x="383" y="739" type="line"/>
      <point x="383" y="614" type="line"/>
    </contour>
    <contour>
      <point x="54" y="0" type="line"/>
      <point x="54" y="554" type="line"/>
      <point x="187" y="554" type="line"/>
      <point x="187" y="0" type="line"/>
    </contour>
    <contour>
      <point x="54" y="614" type="line"/>
      <point x="54" y="739" type="line"/>
      <point x="187" y="739" type="line"/>
      <point x="187" y="614" type="line"/>
    </contour>
  </outline>
</glyph>
<glyph name="jcircumflex" format="1">
  <advance width="260"/>
  <unicode hex="0135"/>
  <outline>
    <contour>
      <point x="72" y="554" type="line"/>
      <point x="205" y="554" type="line"/>
      <point x="205" y="37" type="line" smooth="yes"/>
      <point x="205" y="-46"/>
      <point x="187" y="-99"/>
      <point x="146" y="-137" type="curve" smooth="yes"/>
      <point x="113" y="-168"/>
      <point x="68" y="-185"/>
      <point x="17" y="-185" type="curve"/>
      <point x="17" y="-56" type="line"/>
      <point x="67" y="-47"/>
      <point x="72" y="-38"/>
      <point x="72" y="40" type="curve" smooth="yes"/>
    </contour>
    <contour>
      <point x="-53" y="630" type="line"/>
      <point x="94" y="768" type="line"/>
      <point x="201" y="768" type="line"/>
      <point x="346" y="630" type="line"/>
      <point x="201" y="630" type="line"/>
      <point x="148" y="694" type="line"/>
      <point x="94" y="630" type="line"/>
    </contour>
  </outline>
</glyph>
<glyph name="Kcommaaccent" format="1">
  <advance width="620"/>
  <unicode hex="0136"/>
  <outline>
    <contour>
      <point x="68" y="0" type="line"/>
      <point x="68" y="739" type="line"/>
      <point x="205" y="739" type="line"/>
      <point x="205" y="420" type="line"/>
      <point x="434" y="739" type="line"/>
      <point x="599" y="739" type="line"/>
      <point x="321" y="376" type="line"/>
      <point x="599" y="0" type="line"/>
      <point x="434" y="0" type="line"/>
      <point x="205" y="325" type="line"/>
      <point x="205" y="0" type="line"/>
    </contour>
    <contour>
      <point x="206" y="-245" type="line"/>
      <point x="264" y="-53" type="line"/>
      <point x="368" y="-53" type="line"/>
      <point x="310" y="-245" type="line"/>
    </contour>
  </outline>
</glyph>
<glyph name="kcommaaccent" format="1">
  <advance width="580"/>
  <unicode hex="0137"/>
  <outline>
    <contour>
      <point x="54" y="0" type="line"/>
      <point x="54" y="739" type="line"/>
      <point x="187" y="739" type="line"/>
      <point x="187" y="293" type="line"/>
      <point x="364" y="554" type="line"/>
      <point x="523" y="554" type="line"/>
      <point x="325" y="283" type="line"/>
      <point x="555" y="0" type="line"/>
      <point x="376" y="0" type="line"/>
      <point x="187" y="259" type="line"/>
      <point x="187" y="0" type="line"/>
    </contour>
    <contour>
      <point x="186" y="-245" type="line"/>
      <point x="244" y="-53" type="line"/>
      <point x="348" y="-53" type="line"/>
      <point x="290" y="-245" type="line"/>
    </contour>
  </outline>
</glyph>
<glyph name="Lacute" format="1">
  <advance width="440"/>
  <unicode hex="0139"/>
  <outline>
    <contour>
      <point x="68" y="0" type="line"/>
      <point x="68" y="739" type="line"/>
      <point x="205" y="739" type="line"/>
      <point x="205" y="131" type="line"/>
      <point x="431" y="131" type="line"/>
      <point x="431" y="0" type="line"/>
    </contour>
    <contour>
      <point x="135" y="788" type="line"/>
      <point x="84" y="866" type="line"/>
      <point x="308" y="1000" type="line"/>
      <point x="362" y="908" type="line"/>
    </contour>
  </outline>
</glyph>
<glyph name="Lcommaaccent" format="1">
  <advance width="440"/>
  <unicode hex="013B"/>
  <outline>
    <contour>
      <point x="68" y="0" type="line"/>
      <point x="68" y="739" type="line"/>
      <point x="205" y="739" type="line"/>
      <point x="205" y="131" type="line"/>
      <point x="431" y="131" type="line"/>
      <point x="431" y="0" type="line"/>
    </contour>
    <contour>
      <point x="116" y="-245" type="line"/>
      <point x="174" y="-53" type="line"/>
      <point x="278" y="-53" type="line"/>
      <point x="220" y="-245" type="line"/>
    </contour>
  </outline>
</glyph>
<glyph name="lcommaaccent" format="1">
  <advance width="240"/>
  <unicode hex="013C"/>
  <outline>
    <contour>
      <point x="54" y="0" type="line"/>
      <point x="54" y="739" type="line"/>
      <point x="187" y="739" type="line"/>
      <point x="187" y="0" type="line"/>
    </contour>
    <contour>
      <point x="16" y="-245" type="line"/>
      <point x="74" y="-53" type="line"/>
      <point x="178" y="-53" type="line"/>
      <point x="120" y="-245" type="line"/>
    </contour>
  </outline>
</glyph>
<glyph name="Lcaron" format="1">
  <advance width="440"/>
  <unicode hex="013D"/>
  <outline>
    <contour>
      <point x="68" y="0" type="line"/>
      <point x="68" y="739" type="line"/>
      <point x="205" y="739" type="line"/>
      <point x="205" y="131" type="line"/>
      <point x="431" y="131" type="line"/>
      <point x="431" y="0" type="line"/>
    </contour>
    <contour>
      <point x="278" y="547" type="line"/>
      <point x="336" y="739" type="line"/>
      <point x="440" y="739" type="line"/>
      <point x="382" y="547" type="line"/>
    </contour>
  </outline>
</glyph>
<glyph name="lcaron" format="1">
  <advance width="330"/>
  <unicode hex="013E"/>
  <outline>
    <contour>
      <point x="54" y="0" type="line"/>
      <point x="54" y="739" type="line"/>
      <point x="187" y="739" type="line"/>
      <point x="187" y="0" type="line"/>
    </contour>
    <contour>
      <point x="208" y="547" type="line"/>
      <point x="266" y="739" type="line"/>
      <point x="370" y="739" type="line"/>
      <point x="312" y="547" type="line"/>
    </contour>
  </outline>
</glyph>
<glyph name="Ldot" format="1">
  <advance width="440"/>
  <unicode hex="013F"/>
  <outline>
    <contour>
      <point x="239" y="305" type="line"/>
      <point x="239" y="438" type="line"/>
      <point x="372" y="438" type="line"/>
      <point x="372" y="305" type="line"/>
    </contour>
    <contour>
      <point x="68" y="0" type="line"/>
      <point x="68" y="739" type="line"/>
      <point x="205" y="739" type="line"/>
      <point x="205" y="131" type="line"/>
      <point x="431" y="131" type="line"/>
      <point x="431" y="0" type="line"/>
    </contour>
  </outline>
</glyph>
<glyph name="Lslash" format="1">
  <advance width="480"/>
  <unicode hex="0141"/>
  <outline>
    <contour>
      <point x="110" y="0" type="line"/>
      <point x="110" y="273" type="line"/>
      <point x="14" y="194" type="line"/>
      <point x="14" y="318" type="line"/>
      <point x="110" y="397" type="line"/>
      <point x="110" y="739" type="line"/>
      <point x="247" y="739" type="line"/>
      <point x="247" y="474" type="line"/>
      <point x="389" y="584" type="line"/>
      <point x="389" y="461" type="line"/>
      <point x="247" y="350" type="line"/>
      <point x="247" y="128" type="line"/>
      <point x="473" y="128" type="line"/>
      <point x="473" y="0" type="line"/>
    </contour>
  </outline>
</glyph>
<glyph name="lslash" format="1">
  <advance width="320"/>
  <unicode hex="0142"/>
  <outline>
    <contour>
      <point x="98" y="0" type="line"/>
      <point x="98" y="317" type="line"/>
      <point x="17" y="255" type="line"/>
      <point x="17" y="354" type="line"/>
      <point x="98" y="417" type="line"/>
      <point x="98" y="739" type="line"/>
      <point x="231" y="739" type="line"/>
      <point x="231" y="482" type="line"/>
      <point x="312" y="545" type="line"/>
      <point x="312" y="446" type="line"/>
      <point x="231" y="383" type="line"/>
      <point x="231" y="0" type="line"/>
    </contour>
  </outline>
</glyph>
<glyph name="nacute" format="1">
  <advance width="600"/>
  <unicode hex="0144"/>
  <outline>
    <contour>
      <point x="54" y="0" type="line"/>
      <point x="54" y="554" type="line"/>
      <point x="177" y="554" type="line"/>
      <point x="177" y="501" type="line"/>
      <point x="226" y="548"/>
      <point x="270" y="567"/>
      <point x="333" y="567" type="curve" smooth="yes"/>
      <point x="410" y="567"/>
      <point x="470" y="539"/>
      <point x="506" y="487" type="curve" smooth="yes"/>
      <point x="536" y="444"/>
      <point x="546" y="396"/>
      <point x="546" y="297" type="curve" smooth="yes"/>
      <point x="546" y="0" type="line"/>
      <point x="413" y="0" type="line"/>
      <point x="413" y="271" type="line" smooth="yes"/>
      <point x="413" y="345"/>
      <point x="405" y="386"/>
      <point x="387" y="410" type="curve" smooth="yes"/>
      <point x="369" y="433"/>
      <point x="341" y="445"/>
      <point x="307" y="445" type="curve" smooth="yes"/>
      <point x="265" y="445"/>
      <point x="230" y="427"/>
      <point x="209" y="394" type="curve" smooth="yes"/>
      <point x="192" y="367"/>
      <point x="187" y="335"/>
      <point x="187" y="261" type="curve" smooth="yes"/>
      <point x="187" y="0" type="line"/>
    </contour>
    <contour>
      <point x="215" y="613" type="line"/>
      <point x="164" y="691" type="line"/>
      <point x="388" y="825" type="line"/>
      <point x="442" y="733" type="line"/>
    </contour>
  </outline>
</glyph>
<glyph name="Ncommaaccent" format="1">
  <advance width="740"/>
  <unicode hex="0145"/>
  <outline>
    <contour>
      <point x="68" y="0" type="line"/>
      <point x="68" y="739" type="line"/>
      <point x="224" y="739" type="line"/>
      <point x="530" y="201" type="line"/>
      <point x="530" y="739" type="line"/>
      <point x="667" y="739" type="line"/>
      <point x="667" y="0" type="line"/>
      <point x="514" y="0" type="line"/>
      <point x="205" y="537" type="line"/>
      <point x="205" y="0" type="line"/>
    </contour>
    <contour>
      <point x="266" y="-245" type="line"/>
      <point x="324" y="-53" type="line"/>
      <point x="428" y="-53" type="line"/>
      <point x="370" y="-245" type="line"/>
    </contour>
  </outline>
</glyph>
<glyph name="Ncaron" format="1">
  <advance width="740"/>
  <unicode hex="0147"/>
  <outline>
    <contour>
      <point x="68" y="0" type="line"/>
      <point x="68" y="739" type="line"/>
      <point x="224" y="739" type="line"/>
      <point x="530" y="201" type="line"/>
      <point x="530" y="739" type="line"/>
      <point x="667" y="739" type="line"/>
      <point x="667" y="0" type="line"/>
      <point x="514" y="0" type="line"/>
      <point x="205" y="537" type="line"/>
      <point x="205" y="0" type="line"/>
    </contour>
    <contour>
      <point x="174" y="943" type="line"/>
      <point x="321" y="943" type="line"/>
      <point x="375" y="879" type="line"/>
      <point x="428" y="943" type="line"/>
      <point x="573" y="943" type="line"/>
      <point x="428" y="805" type="line"/>
      <point x="321" y="805" type="line"/>
    </contour>
  </outline>
</glyph>
<glyph name="Eng" format="1">
  <advance width="740"/>
  <unicode hex="014A"/>
  <outline>
    <contour>
      <point x="514" y="0" type="curve"/>
      <point x="205" y="537" type="line"/>
      <point x="205" y="0" type="line"/>
      <point x="68" y="0" type="line"/>
      <point x="68" y="739" type="line"/>
      <point x="224" y="739" type="line"/>
      <point x="530" y="201" type="line"/>
      <point x="530" y="739" type="line"/>
      <point x="667" y="739" type="line"/>
      <point x="667" y="55" type="line" smooth="yes"/>
      <point x="667" y="-26"/>
      <point x="657" y="-71"/>
      <point x="630" y="-112" type="curve" smooth="yes"/>
      <point x="593" y="-169"/>
      <point x="529" y="-197"/>
      <point x="450" y="-200" type="curve"/>
      <point x="426" y="-200" type="line"/>
      <point x="426" y="-77" type="line"/>
      <point x="480" y="-77"/>
      <point x="504" y="-53"/>
    </contour>
  </outline>
</glyph>
<glyph name="eng" format="1">
  <advance width="600"/>
  <unicode hex="014B"/>
  <outline>
    <contour>
      <point x="413" y="87" type="curve" smooth="yes"/>
      <point x="413" y="271" type="line" smooth="yes"/>
      <point x="413" y="345"/>
      <point x="405" y="386"/>
      <point x="387" y="410" type="curve" smooth="yes"/>
      <point x="369" y="433"/>
      <point x="341" y="445"/>
      <point x="307" y="445" type="curve" smooth="yes"/>
      <point x="265" y="445"/>
      <point x="230" y="427"/>
      <point x="209" y="394" type="curve" smooth="yes"/>
      <point x="192" y="367"/>
      <point x="187" y="335"/>
      <point x="187" y="261" type="curve" smooth="yes"/>
      <point x="187" y="0" type="line"/>
      <point x="54" y="0" type="line"/>
      <point x="54" y="554" type="line"/>
      <point x="177" y="554" type="line"/>
      <point x="177" y="501" type="line"/>
      <point x="226" y="548"/>
      <point x="270" y="567"/>
      <point x="333" y="567" type="curve" smooth="yes"/>
      <point x="410" y="567"/>
      <point x="470" y="539"/>
      <point x="506" y="487" type="curve" smooth="yes"/>
      <point x="536" y="444"/>
      <point x="546" y="396"/>
      <point x="546" y="297" type="curve" smooth="yes"/>
      <point x="546" y="57" type="line" smooth="yes"/>
      <point x="546" y="-24"/>
      <point x="536" y="-69"/>
      <point x="509" y="-110" type="curve" smooth="yes"/>
      <point x="472" y="-167"/>
      <point x="408" y="-195"/>
      <point x="329" y="-198" type="curve"/>
      <point x="305" y="-198" type="line"/>
      <point x="305" y="-75" type="line"/>
      <point x="383" y="-75"/>
      <point x="413" y="-29"/>
    </contour>
  </outline>
</glyph>
<glyph name="ohungarumlaut" format="1">
  <advance width="640"/>
  <unicode hex="0151"/>
  <outline>
    <contour>
      <point x="323" y="567" type="curve" smooth="yes"/>
      <point x="490" y="567"/>
      <point x="619" y="438"/>
      <point x="619" y="273" type="curve" smooth="yes"/>
      <point x="619" y="117"/>
      <point x="485" y="-13"/>
      <point x="324" y="-13" type="curve" smooth="yes"/>
      <point x="162" y="-13"/>
      <point x="30" y="117"/>
      <point x="30" y="277" type="curve" smooth="yes"/>
      <point x="30" y="436"/>
      <point x="162" y="567"/>
    </contour>
    <contour>
      <point x="324" y="445" type="curve" smooth="yes"/>
      <point x="237" y="445"/>
      <point x="164" y="370"/>
      <point x="164" y="279" type="curve" smooth="yes"/>
      <point x="164" y="184"/>
      <point x="235" y="109"/>
      <point x="325" y="109" type="curve" smooth="yes"/>
      <point x="413" y="109"/>
      <point x="485" y="184"/>
      <point x="485" y="277" type="curve" smooth="yes"/>
      <point x="485" y="369"/>
      <point x="413" y="445"/>
    </contour>
    <contour>
      <point x="44" y="682" type="line"/>
      <point x="254" y="825" type="line"/>
      <point x="316" y="745" type="line"/>
      <point x="94" y="613" type="line"/>
    </contour>
    <contour>
      <point x="327" y="682" type="line"/>
      <point x="538" y="825" type="line"/>
      <point x="599" y="745" type="line"/>
      <point x="378" y="613" type="line"/>
    </contour>
  </outline>
</glyph>
<glyph name="rcaron" format="1">
  <advance width="320"/>
  <unicode hex="0159"/>
  <outline>
    <contour>
      <point x="54" y="0" type="line"/>
      <point x="54" y="554" type="line"/>
      <point x="176" y="554" type="line"/>
      <point x="176" y="500" type="line"/>
      <point x="211" y="551"/>
      <point x="239" y="567"/>
      <point x="296" y="567" type="curve" smooth="yes"/>
      <point x="306" y="567" type="line"/>
      <point x="306" y="439" type="line"/>
      <point x="226" y="437"/>
      <point x="187" y="394"/>
      <point x="187" y="308" type="curve" smooth="yes"/>
      <point x="187" y="0" type="line"/>
    </contour>
    <contour>
      <point x="-36" y="768" type="line"/>
      <point x="111" y="768" type="line"/>
      <point x="165" y="704" type="line"/>
      <point x="218" y="768" type="line"/>
      <point x="363" y="768" type="line"/>
      <point x="218" y="630" type="line"/>
      <point x="111" y="630" type="line"/>
    </contour>
  </outline>
</glyph>
<glyph name="Tcommaaccent" format="1">
  <advance width="420"/>
  <unicode hex="0162"/>
  <outline>
    <contour>
      <point x="144" y="0" type="line"/>
      <point x="144" y="608" type="line"/>
      <point x="7" y="608" type="line"/>
      <point x="7" y="739" type="line"/>
      <point x="418" y="739" type="line"/>
      <point x="418" y="608" type="line"/>
      <point x="281" y="608" type="line"/>
      <point x="281" y="0" type="line"/>
    </contour>
    <contour>
      <point x="106" y="-245" type="line"/>
      <point x="164" y="-53" type="line"/>
      <point x="268" y="-53" type="line"/>
      <point x="210" y="-245" type="line"/>
    </contour>
  </outline>
</glyph>
<glyph name="Tcaron" format="1">
  <advance width="420"/>
  <unicode hex="0164"/>
  <outline>
    <contour>
      <point x="144" y="0" type="line"/>
      <point x="144" y="608" type="line"/>
      <point x="7" y="608" type="line"/>
      <point x="7" y="739" type="line"/>
      <point x="418" y="739" type="line"/>
      <point x="418" y="608" type="line"/>
      <point x="281" y="608" type="line"/>
      <point x="281" y="0" type="line"/>
    </contour>
    <contour>
      <point x="14" y="943" type="line"/>
      <point x="161" y="943" type="line"/>
      <point x="215" y="879" type="line"/>
      <point x="268" y="943" type="line"/>
      <point x="413" y="943" type="line"/>
      <point x="268" y="805" type="line"/>
      <point x="161" y="805" type="line"/>
    </contour>
  </outline>
</glyph>
<glyph name="tcaron" format="1">
  <advance width="369"/>
  <unicode hex="0165"/>
  <outline>
    <contour>
      <point x="74" y="0" type="line"/>
      <point x="74" y="433" type="line"/>
      <point x="9" y="433" type="line"/>
      <point x="9" y="554" type="line"/>
      <point x="74" y="554" type="line"/>
      <point x="74" y="739" type="line"/>
      <point x="207" y="739" type="line"/>
      <point x="207" y="554" type="line"/>
      <point x="287" y="554" type="line"/>
      <point x="287" y="433" type="line"/>
      <point x="207" y="433" type="line"/>
      <point x="207" y="0" type="line"/>
    </contour>
    <contour>
      <point x="250" y="567" type="line"/>
      <point x="305" y="739" type="line"/>
      <point x="409" y="739" type="line"/>
      <point x="354" y="567" type="line"/>
    </contour>
  </outline>
</glyph>
<glyph name="Tbar" format="1">
  <advance width="420"/>
  <unicode hex="0166"/>
  <outline>
    <contour>
      <point x="281" y="339" type="line"/>
      <point x="281" y="0" type="line"/>
      <point x="144" y="0" type="line"/>
      <point x="144" y="339" type="line"/>
      <point x="72" y="339" type="line"/>
      <point x="72" y="439" type="line"/>
      <point x="144" y="439" type="line"/>
      <point x="144" y="608" type="line"/>
      <point x="7" y="608" type="line"/>
      <point x="7" y="739" type="line"/>
      <point x="418" y="739" type="line"/>
      <point x="418" y="608" type="line"/>
      <point x="281" y="608" type="line"/>
      <point x="281" y="439" type="line"/>
      <point x="349" y="439" type="line"/>
      <point x="349" y="339" type="line"/>
    </contour>
  </outline>
</glyph>
<glyph name="tbar" format="1">
  <advance width="300"/>
  <unicode hex="0167"/>
  <outline>
    <contour>
      <point x="207" y="225" type="line"/>
      <point x="207" y="0" type="line"/>
      <point x="74" y="0" type="line"/>
      <point x="74" y="225" type="line"/>
      <point x="9" y="225" type="line"/>
      <point x="9" y="342" type="line"/>
      <point x="74" y="342" type="line"/>
      <point x="74" y="433" type="line"/>
      <point x="9" y="433" type="line"/>
      <point x="9" y="554" type="line"/>
      <point x="74" y="554" type="line"/>
      <point x="74" y="739" type="line"/>
      <point x="207" y="739" type="line"/>
      <point x="207" y="554" type="line"/>
      <point x="287" y="554" type="line"/>
      <point x="287" y="433" type="line"/>
      <point x="207" y="433" type="line"/>
      <point x="207" y="342" type="line"/>
      <point x="287" y="342" type="line"/>
      <point x="287" y="225" type="line"/>
    </contour>
  </outline>
</glyph>
<glyph name="Utilde" format="1">
  <advance width="640"/>
  <unicode hex="0168"/>
  <outline>
    <contour>
      <point x="206" y="839" type="curve"/>
      <point x="152" y="919" type="line"/>
      <point x="187" y="954"/>
      <point x="213" y="966"/>
      <point x="255" y="966" type="curve" smooth="yes"/>
      <point x="276" y="966"/>
      <point x="286" y="964"/>
      <point x="315" y="952" type="curve" smooth="yes"/>
      <point x="335" y="944"/>
      <point x="349" y="941"/>
      <point x="362" y="941" type="curve" smooth="yes"/>
      <point x="388" y="941"/>
      <point x="408" y="951"/>
      <point x="429" y="975" type="curve"/>
      <point x="483" y="894" type="line"/>
      <point x="451" y="855"/>
      <point x="424" y="839"/>
      <point x="389" y="839" type="curve" smooth="yes"/>
      <point x="374" y="839"/>
      <point x="356" y="843"/>
      <point x="330" y="852" type="curve" smooth="yes"/>
      <point x="302" y="862"/>
      <point x="292" y="864"/>
      <point x="276" y="864" type="curve" smooth="yes"/>
      <point x="251" y="864"/>
      <point x="244" y="861"/>
    </contour>
    <contour>
      <point x="68" y="739" type="line"/>
      <point x="205" y="739" type="line"/>
      <point x="205" y="271" type="line" smooth="yes"/>
      <point x="205" y="216"/>
      <point x="209" y="193"/>
      <point x="223" y="169" type="curve" smooth="yes"/>
      <point x="242" y="138"/>
      <point x="278" y="119"/>
      <point x="318" y="119" type="curve" smooth="yes"/>
      <point x="357" y="119"/>
      <point x="393" y="138"/>
      <point x="412" y="169" type="curve" smooth="yes"/>
      <point x="426" y="193"/>
      <point x="430" y="216"/>
      <point x="430" y="271" type="curve" smooth="yes"/>
      <point x="430" y="739" type="line"/>
      <point x="567" y="739" type="line"/>
      <point x="567" y="271" type="line" smooth="yes"/>
      <point x="567" y="185"/>
      <point x="553" y="130"/>
      <point x="517" y="82" type="curve" smooth="yes"/>
      <point x="473" y="23"/>
      <point x="397" y="-13"/>
      <point x="317" y="-13" type="curve" smooth="yes"/>
      <point x="231" y="-13"/>
      <point x="151" y="29"/>
      <point x="108" y="97" type="curve" smooth="yes"/>
      <point x="80" y="142"/>
      <point x="68" y="192"/>
      <point x="68" y="271" type="curve" smooth="yes"/>
    </contour>
  </outline>
</glyph>
<glyph name="utilde" format="1">
  <advance width="600"/>
  <unicode hex="0169"/>
  <outline>
    <contour>
      <point x="189" y="654" type="curve"/>
      <point x="135" y="734" type="line"/>
      <point x="170" y="769"/>
      <point x="196" y="781"/>
      <point x="238" y="781" type="curve" smooth="yes"/>
      <point x="259" y="781"/>
      <point x="269" y="779"/>
      <point x="298" y="767" type="curve" smooth="yes"/>
      <point x="318" y="759"/>
      <point x="332" y="756"/>
      <point x="345" y="756" type="curve" smooth="yes"/>
      <point x="371" y="756"/>
      <point x="391" y="766"/>
      <point x="412" y="790" type="curve"/>
      <point x="466" y="709" type="line"/>
      <point x="434" y="670"/>
      <point x="407" y="654"/>
      <point x="372" y="654" type="curve" smooth="yes"/>
      <point x="357" y="654"/>
      <point x="339" y="658"/>
      <point x="313" y="667" type="curve" smooth="yes"/>
      <point x="285" y="677"/>
      <point x="275" y="679"/>
      <point x="259" y="679" type="curve" smooth="yes"/>
      <point x="234" y="679"/>
      <point x="227" y="676"/>
    </contour>
    <contour>
      <point x="547" y="554" type="line"/>
      <point x="547" y="0" type="line"/>
      <point x="424" y="0" type="line"/>
      <point x="424" y="53" type="line"/>
      <point x="374" y="4"/>
      <point x="332" y="-13"/>
      <point x="265" y="-13" type="curve" smooth="yes"/>
      <point x="193" y="-13"/>
      <point x="133" y="16"/>
      <point x="96" y="69" type="curve" smooth="yes"/>
      <point x="65" y="115"/>
      <point x="54" y="163"/>
      <point x="54" y="257" type="curve" smooth="yes"/>
      <point x="54" y="554" type="line"/>
      <point x="187" y="554" type="line"/>
      <point x="187" y="283" type="line" smooth="yes"/>
      <point x="187" y="209"/>
      <point x="195" y="168"/>
      <point x="214" y="144" type="curve" smooth="yes"/>
      <point x="232" y="120"/>
      <point x="258" y="109"/>
      <point x="292" y="109" type="curve" smooth="yes"/>
      <point x="337" y="109"/>
      <point x="374" y="128"/>
      <point x="393" y="160" type="curve"/>
      <point x="409" y="184"/>
      <point x="414" y="220"/>
      <point x="414" y="293" type="curve" smooth="yes"/>
      <point x="414" y="554" type="line"/>
    </contour>
  </outline>
</glyph>
<glyph name="Ubreve" format="1">
  <advance width="640"/>
  <unicode hex="016C"/>
  <outline>
    <contour>
      <point x="152" y="978" type="curve"/>
      <point x="250" y="978" type="line"/>
      <point x="262" y="949"/>
      <point x="285" y="935"/>
      <point x="318" y="935" type="curve" smooth="yes"/>
      <point x="353" y="935"/>
      <point x="375" y="950"/>
      <point x="380" y="978" type="curve"/>
      <point x="482" y="978" type="line"/>
      <point x="479" y="895"/>
      <point x="413" y="839"/>
      <point x="318" y="839" type="curve" smooth="yes"/>
      <point x="219" y="839"/>
      <point x="158" y="890"/>
    </contour>
    <contour>
      <point x="68" y="739" type="line"/>
      <point x="205" y="739" type="line"/>
      <point x="205" y="271" type="line" smooth="yes"/>
      <point x="205" y="216"/>
      <point x="209" y="193"/>
      <point x="223" y="169" type="curve" smooth="yes"/>
      <point x="242" y="138"/>
      <point x="278" y="119"/>
      <point x="318" y="119" type="curve" smooth="yes"/>
      <point x="357" y="119"/>
      <point x="393" y="138"/>
      <point x="412" y="169" type="curve" smooth="yes"/>
      <point x="426" y="193"/>
      <point x="430" y="216"/>
      <point x="430" y="271" type="curve" smooth="yes"/>
      <point x="430" y="739" type="line"/>
      <point x="567" y="739" type="line"/>
      <point x="567" y="271" type="line" smooth="yes"/>
      <point x="567" y="185"/>
      <point x="553" y="130"/>
      <point x="517" y="82" type="curve" smooth="yes"/>
      <point x="473" y="23"/>
      <point x="397" y="-13"/>
      <point x="317" y="-13" type="curve" smooth="yes"/>
      <point x="231" y="-13"/>
      <point x="151" y="29"/>
      <point x="108" y="97" type="curve" smooth="yes"/>
      <point x="80" y="142"/>
      <point x="68" y="192"/>
      <point x="68" y="271" type="curve" smooth="yes"/>
    </contour>
  </outline>
</glyph>
<glyph name="ubreve" format="1">
  <advance width="600"/>
  <unicode hex="016D"/>
  <outline>
    <contour>
      <point x="136" y="793" type="curve"/>
      <point x="234" y="793" type="line"/>
      <point x="246" y="764"/>
      <point x="269" y="750"/>
      <point x="302" y="750" type="curve" smooth="yes"/>
      <point x="337" y="750"/>
      <point x="359" y="765"/>
      <point x="364" y="793" type="curve"/>
      <point x="466" y="793" type="line"/>
      <point x="463" y="710"/>
      <point x="397" y="654"/>
      <point x="302" y="654" type="curve" smooth="yes"/>
      <point x="203" y="654"/>
      <point x="142" y="705"/>
    </contour>
    <contour>
      <point x="547" y="554" type="line"/>
      <point x="547" y="0" type="line"/>
      <point x="424" y="0" type="line"/>
      <point x="424" y="53" type="line"/>
      <point x="374" y="4"/>
      <point x="332" y="-13"/>
      <point x="265" y="-13" type="curve" smooth="yes"/>
      <point x="193" y="-13"/>
      <point x="133" y="16"/>
      <point x="96" y="69" type="curve" smooth="yes"/>
      <point x="65" y="115"/>
      <point x="54" y="163"/>
      <point x="54" y="257" type="curve" smooth="yes"/>
      <point x="54" y="554" type="line"/>
      <point x="187" y="554" type="line"/>
      <point x="187" y="283" type="line" smooth="yes"/>
      <point x="187" y="209"/>
      <point x="195" y="168"/>
      <point x="214" y="144" type="curve" smooth="yes"/>
      <point x="232" y="120"/>
      <point x="258" y="109"/>
      <point x="292" y="109" type="curve" smooth="yes"/>
      <point x="337" y="109"/>
      <point x="374" y="128"/>
      <point x="393" y="160" type="curve"/>
      <point x="409" y="184"/>
      <point x="414" y="220"/>
      <point x="414" y="293" type="curve" smooth="yes"/>
      <point x="414" y="554" type="line"/>
    </contour>
  </outline>
</glyph>
<glyph name="uring" format="1">
  <advance width="600"/>
  <unicode hex="016F"/>
  <outline>
    <contour>
      <point x="547" y="554" type="line"/>
      <point x="547" y="0" type="line"/>
      <point x="424" y="0" type="line"/>
      <point x="424" y="53" type="line"/>
      <point x="374" y="4"/>
      <point x="332" y="-13"/>
      <point x="265" y="-13" type="curve" smooth="yes"/>
      <point x="193" y="-13"/>
      <point x="133" y="16"/>
      <point x="96" y="69" type="curve" smooth="yes"/>
      <point x="65" y="115"/>
      <point x="54" y="163"/>
      <point x="54" y="257" type="curve" smooth="yes"/>
      <point x="54" y="554" type="line"/>
      <point x="187" y="554" type="line"/>
      <point x="187" y="283" type="line" smooth="yes"/>
      <point x="187" y="209"/>
      <point x="195" y="168"/>
      <point x="214" y="144" type="curve" smooth="yes"/>
      <point x="232" y="120"/>
      <point x="258" y="109"/>
      <point x="292" y="109" type="curve" smooth="yes"/>
      <point x="337" y="109"/>
      <point x="374" y="128"/>
      <point x="393" y="160" type="curve"/>
      <point x="409" y="184"/>
      <point x="414" y="220"/>
      <point x="414" y="293" type="curve" smooth="yes"/>
      <point x="414" y="554" type="line"/>
    </contour>
    <contour>
      <point x="298" y="816" type="curve" smooth="yes"/>
      <point x="354" y="816"/>
      <point x="400" y="769"/>
      <point x="400" y="713" type="curve" smooth="yes"/>
      <point x="400" y="656"/>
      <point x="353" y="610"/>
      <point x="297" y="610" type="curve" smooth="yes"/>
      <point x="240" y="610"/>
      <point x="194" y="656"/>
      <point x="194" y="713" type="curve" smooth="yes"/>
      <point x="194" y="770"/>
      <point x="240" y="816"/>
    </contour>
    <contour>
      <point x="297" y="749" type="curve" smooth="yes"/>
      <point x="277" y="749"/>
      <point x="261" y="733"/>
      <point x="261" y="713" type="curve" smooth="yes"/>
      <point x="261" y="693"/>
      <point x="277" y="677"/>
      <point x="297" y="677" type="curve" smooth="yes"/>
      <point x="317" y="677"/>
      <point x="333" y="693"/>
      <point x="333" y="713" type="curve" smooth="yes"/>
      <point x="333" y="733"/>
      <point x="317" y="749"/>
    </contour>
  </outline>
</glyph>
<glyph name="Uogonek" format="1">
  <advance width="640"/>
  <unicode hex="0172"/>
  <outline>
    <contour>
      <point x="205" y="739" type="line"/>
      <point x="205" y="271" type="line" smooth="yes"/>
      <point x="205" y="216"/>
      <point x="209" y="193"/>
      <point x="223" y="169" type="curve" smooth="yes"/>
      <point x="242" y="138"/>
      <point x="278" y="119"/>
      <point x="318" y="119" type="curve" smooth="yes"/>
      <point x="357" y="119"/>
      <point x="393" y="138"/>
      <point x="412" y="169" type="curve" smooth="yes"/>
      <point x="426" y="193"/>
      <point x="430" y="216"/>
      <point x="430" y="271" type="curve" smooth="yes"/>
      <point x="430" y="739" type="line"/>
      <point x="567" y="739" type="line"/>
      <point x="567" y="271" type="line" smooth="yes"/>
      <point x="567" y="181"/>
      <point x="555" y="137"/>
      <point x="516" y="83" type="curve" smooth="yes"/>
      <point x="485" y="41"/>
      <point x="477" y="32"/>
      <point x="410" y="-28" type="curve" smooth="yes"/>
      <point x="391" y="-46"/>
      <point x="382" y="-63"/>
      <point x="382" y="-80" type="curve" smooth="yes"/>
      <point x="382" y="-105"/>
      <point x="403" y="-123"/>
      <point x="432" y="-123" type="curve" smooth="yes"/>
      <point x="444" y="-123"/>
      <point x="453" y="-121"/>
      <point x="473" y="-113" type="curve"/>
      <point x="473" y="-190" type="line"/>
      <point x="451" y="-199"/>
      <point x="428" y="-204"/>
      <point x="407" y="-204" type="curve" smooth="yes"/>
      <point x="338" y="-204"/>
      <point x="291" y="-164"/>
      <point x="291" y="-105" type="curve" smooth="yes"/>
      <point x="291" y="-68"/>
      <point x="311" y="-38"/>
      <point x="357" y="-10" type="curve"/>
      <point x="340" y="-12"/>
      <point x="331" y="-13"/>
      <point x="318" y="-13" type="curve" smooth="yes"/>
      <point x="231" y="-13"/>
      <point x="151" y="29"/>
      <point x="108" y="97" type="curve" smooth="yes"/>
      <point x="80" y="142"/>
      <point x="68" y="192"/>
      <point x="68" y="271" type="curve" smooth="yes"/>
      <point x="68" y="739" type="line"/>
    </contour>
  </outline>
</glyph>
<glyph name="uogonek" format="1">
  <advance width="600"/>
  <unicode hex="0173"/>
  <outline>
    <contour>
      <point x="547" y="554" type="line"/>
      <point x="547" y="0" type="line"/>
      <point x="496" y="-37"/>
      <point x="482" y="-54"/>
      <point x="482" y="-81" type="curve" smooth="yes"/>
      <point x="482" y="-105"/>
      <point x="503" y="-123"/>
      <point x="532" y="-123" type="curve" smooth="yes"/>
      <point x="544" y="-123"/>
      <point x="553" y="-121"/>
      <point x="573" y="-113" type="curve"/>
      <point x="573" y="-190" type="line"/>
      <point x="551" y="-199"/>
      <point x="529" y="-204"/>
      <point x="507" y="-204" type="curve" smooth="yes"/>
      <point x="438" y="-204"/>
      <point x="391" y="-164"/>
      <point x="391" y="-105" type="curve" smooth="yes"/>
      <point x="391" y="-62"/>
      <point x="419" y="-27"/>
      <point x="477" y="0" type="curve"/>
      <point x="424" y="0" type="line"/>
      <point x="424" y="53" type="line"/>
      <point x="374" y="4"/>
      <point x="332" y="-13"/>
      <point x="265" y="-13" type="curve" smooth="yes"/>
      <point x="193" y="-13"/>
      <point x="133" y="16"/>
      <point x="96" y="69" type="curve" smooth="yes"/>
      <point x="65" y="115"/>
      <point x="54" y="163"/>
      <point x="54" y="257" type="curve" smooth="yes"/>
      <point x="54" y="554" type="line"/>
      <point x="187" y="554" type="line"/>
      <point x="187" y="283" type="line" smooth="yes"/>
      <point x="187" y="209"/>
      <point x="195" y="168"/>
      <point x="214" y="144" type="curve" smooth="yes"/>
      <point x="232" y="120"/>
      <point x="258" y="109"/>
      <point x="292" y="109" type="curve" smooth="yes"/>
      <point x="337" y="109"/>
      <point x="374" y="128"/>
      <point x="393" y="160" type="curve"/>
      <point x="409" y="184"/>
      <point x="414" y="220"/>
      <point x="414" y="293" type="curve" smooth="yes"/>
      <point x="414" y="554" type="line"/>
    </contour>
  </outline>
</glyph>
<glyph name="Wcircumflex" format="1">
  <advance width="900"/>
  <unicode hex="0174"/>
  <outline>
    <contour>
      <point x="253" y="839" type="line"/>
      <point x="400" y="977" type="line"/>
      <point x="507" y="977" type="line"/>
      <point x="652" y="839" type="line"/>
      <point x="507" y="839" type="line"/>
      <point x="454" y="903" type="line"/>
      <point x="400" y="839" type="line"/>
    </contour>
    <contour>
      <point x="224" y="0" type="line"/>
      <point x="7" y="739" type="line"/>
      <point x="147" y="739" type="line"/>
      <point x="277" y="223" type="line"/>
      <point x="403" y="739" type="line"/>
      <point x="503" y="739" type="line"/>
      <point x="627" y="223" type="line"/>
      <point x="758" y="739" type="line"/>
      <point x="898" y="739" type="line"/>
      <point x="682" y="0" type="line"/>
      <point x="573" y="0" type="line"/>
      <point x="454" y="489" type="line"/>
      <point x="332" y="0" type="line"/>
    </contour>
  </outline>
</glyph>
<glyph name="wcircumflex" format="1">
  <advance width="800"/>
  <unicode hex="0175"/>
  <outline>
    <contour>
      <point x="198" y="654" type="line"/>
      <point x="345" y="792" type="line"/>
      <point x="452" y="792" type="line"/>
      <point x="597" y="654" type="line"/>
      <point x="452" y="654" type="line"/>
      <point x="399" y="718" type="line"/>
      <point x="345" y="654" type="line"/>
    </contour>
    <contour>
      <point x="208" y="0" type="line"/>
      <point x="10" y="554" type="line"/>
      <point x="153" y="554" type="line"/>
      <point x="252" y="216" type="line"/>
      <point x="345" y="554" type="line"/>
      <point x="451" y="554" type="line"/>
      <point x="542" y="216" type="line"/>
      <point x="643" y="554" type="line"/>
      <point x="785" y="554" type="line"/>
      <point x="585" y="0" type="line"/>
      <point x="502" y="0" type="line"/>
      <point x="397" y="359" type="line"/>
      <point x="290" y="0" type="line"/>
    </contour>
  </outline>
</glyph>
<glyph name="Ycircumflex" format="1">
  <advance width="620"/>
  <unicode hex="0176"/>
  <outline>
    <contour>
      <point x="115" y="839" type="line"/>
      <point x="262" y="977" type="line"/>
      <point x="369" y="977" type="line"/>
      <point x="514" y="839" type="line"/>
      <point x="369" y="839" type="line"/>
      <point x="316" y="903" type="line"/>
      <point x="262" y="839" type="line"/>
    </contour>
    <contour>
      <point x="246" y="0" type="line"/>
      <point x="246" y="273" type="line"/>
      <point x="3" y="739" type="line"/>
      <point x="151" y="739" type="line"/>
      <point x="315" y="399" type="line"/>
      <point x="478" y="739" type="line"/>
      <point x="626" y="739" type="line"/>
      <point x="383" y="273" type="line"/>
      <point x="383" y="0" type="line"/>
    </contour>
  </outline>
</glyph>
<glyph name="Ydieresis" format="1">
  <advance width="620"/>
  <unicode hex="0178"/>
  <outline>
    <contour>
      <point x="246" y="0" type="line"/>
      <point x="246" y="273" type="line"/>
      <point x="3" y="739" type="line"/>
      <point x="151" y="739" type="line"/>
      <point x="315" y="399" type="line"/>
      <point x="478" y="739" type="line"/>
      <point x="626" y="739" type="line"/>
      <point x="383" y="273" type="line"/>
      <point x="383" y="0" type="line"/>
    </contour>
    <contour>
      <point x="143" y="805" type="line"/>
      <point x="143" y="938" type="line"/>
      <point x="276" y="938" type="line"/>
      <point x="276" y="805" type="line"/>
    </contour>
    <contour>
      <point x="353" y="805" type="line"/>
      <point x="353" y="938" type="line"/>
      <point x="486" y="938" type="line"/>
      <point x="486" y="805" type="line"/>
    </contour>
  </outline>
</glyph>
<glyph name="Zacute" format="1">
  <advance width="500"/>
  <unicode hex="0179"/>
  <outline>
    <contour>
      <point x="18" y="116" type="line"/>
      <point x="298" y="608" type="line"/>
      <point x="33" y="608" type="line"/>
      <point x="33" y="739" type="line"/>
      <point x="461" y="739" type="line"/>
      <point x="461" y="616" type="line"/>
      <point x="183" y="131" type="line"/>
      <point x="480" y="131" type="line"/>
      <point x="480" y="0" type="line"/>
      <point x="18" y="0" type="line"/>
    </contour>
    <contour>
      <point x="165" y="788" type="line"/>
      <point x="114" y="866" type="line"/>
      <point x="338" y="1000" type="line"/>
      <point x="392" y="908" type="line"/>
    </contour>
  </outline>
</glyph>
<glyph name="zacute" format="1">
  <advance width="460"/>
  <unicode hex="017A"/>
  <outline>
    <contour>
      <point x="20" y="0" type="line"/>
      <point x="20" y="119" type="line"/>
      <point x="264" y="435" type="line"/>
      <point x="48" y="435" type="line"/>
      <point x="48" y="554" type="line"/>
      <point x="423" y="554" type="line"/>
      <point x="423" y="435" type="line"/>
      <point x="179" y="119" type="line"/>
      <point x="442" y="119" type="line"/>
      <point x="442" y="0" type="line"/>
    </contour>
    <contour>
      <point x="145" y="613" type="line"/>
      <point x="94" y="691" type="line"/>
      <point x="318" y="825" type="line"/>
      <point x="372" y="733" type="line"/>
    </contour>
  </outline>
</glyph>
<glyph name="Zdotaccent" format="1">
  <advance width="500"/>
  <unicode hex="017B"/>
  <outline>
    <contour>
      <point x="18" y="116" type="line"/>
      <point x="298" y="608" type="line"/>
      <point x="33" y="608" type="line"/>
      <point x="33" y="739" type="line"/>
      <point x="461" y="739" type="line"/>
      <point x="461" y="616" type="line"/>
      <point x="183" y="131" type="line"/>
      <point x="480" y="131" type="line"/>
      <point x="480" y="0" type="line"/>
      <point x="18" y="0" type="line"/>
    </contour>
    <contour>
      <point x="184" y="805" type="line"/>
      <point x="184" y="938" type="line"/>
      <point x="317" y="938" type="line"/>
      <point x="317" y="805" type="line"/>
    </contour>
  </outline>
</glyph>
<glyph name="zdotaccent" format="1">
  <advance width="460"/>
  <unicode hex="017C"/>
  <outline>
    <contour>
      <point x="20" y="0" type="line"/>
      <point x="20" y="119" type="line"/>
      <point x="264" y="435" type="line"/>
      <point x="48" y="435" type="line"/>
      <point x="48" y="554" type="line"/>
      <point x="423" y="554" type="line"/>
      <point x="423" y="435" type="line"/>
      <point x="179" y="119" type="line"/>
      <point x="442" y="119" type="line"/>
      <point x="442" y="0" type="line"/>
    </contour>
    <contour>
      <point x="164" y="630" type="line"/>
      <point x="164" y="763" type="line"/>
      <point x="297" y="763" type="line"/>
      <point x="297" y="630" type="line"/>
    </contour>
  </outline>
</glyph>
<glyph name="zcaron" format="1">
  <advance width="460"/>
  <unicode hex="017E"/>
  <outline>
    <contour>
      <point x="20" y="0" type="line"/>
      <point x="20" y="119" type="line"/>
      <point x="264" y="435" type="line"/>
      <point x="48" y="435" type="line"/>
      <point x="48" y="554" type="line"/>
      <point x="423" y="554" type="line"/>
      <point x="423" y="435" type="line"/>
      <point x="179" y="119" type="line"/>
      <point x="442" y="119" type="line"/>
      <point x="442" y="0" type="line"/>
    </contour>
    <contour>
      <point x="38" y="768" type="line"/>
      <point x="185" y="768" type="line"/>
      <point x="239" y="704" type="line"/>
      <point x="292" y="768" type="line"/>
      <point x="437" y="768" type="line"/>
      <point x="292" y="630" type="line"/>
      <point x="185" y="630" type="line"/>
    </contour>
  </outline>
</glyph>
<glyph name="florin" format="1">
  <advance width="560"/>
  <unicode hex="0192"/>
  <outline>
    <contour>
      <point x="364" y="585" type="curve"/>
      <point x="456" y="585" type="line"/>
      <point x="437" y="470" type="line"/>
      <point x="344" y="470" type="line"/>
      <point x="282" y="106" type="line" smooth="yes"/>
      <point x="262" y="-8"/>
      <point x="246" y="-50"/>
      <point x="207" y="-87" type="curve" smooth="yes"/>
      <point x="163" y="-129"/>
      <point x="110" y="-149"/>
      <point x="42" y="-149" type="curve" smooth="yes"/>
      <point x="19" y="-149"/>
      <point x="5" y="-147"/>
      <point x="-17" y="-142" type="curve"/>
      <point x="3" y="-26" type="line"/>
      <point x="18" y="-29"/>
      <point x="25" y="-30"/>
      <point x="36" y="-30" type="curve" smooth="yes"/>
      <point x="75" y="-30"/>
      <point x="107" y="-15"/>
      <point x="124" y="12" type="curve" smooth="yes"/>
      <point x="137" y="31"/>
      <point x="147" y="67"/>
      <point x="158" y="128" type="curve" smooth="yes"/>
      <point x="218" y="470" type="line"/>
      <point x="124" y="470" type="line"/>
      <point x="143" y="585" type="line"/>
      <point x="237" y="585" type="line"/>
      <point x="242" y="611" type="line"/>
      <point x="259" y="689"/>
      <point x="268" y="711"/>
      <point x="297" y="747" type="curve" smooth="yes"/>
      <point x="337" y="796"/>
      <point x="397" y="823"/>
      <point x="465" y="823" type="curve" smooth="yes"/>
      <point x="477" y="823"/>
      <point x="483" y="822"/>
      <point x="494" y="820" type="curve"/>
      <point x="474" y="703" type="line"/>
      <point x="465" y="703" type="line" smooth="yes"/>
      <point x="426" y="703"/>
      <point x="396" y="684"/>
      <point x="381" y="649" type="curve" smooth="yes"/>
      <point x="375" y="635"/>
      <point x="371" y="620"/>
    </contour>
  </outline>
</glyph>
<glyph name="breve" format="1">
  <advance width="480"/>
  <unicode hex="02D8"/>
  <outline>
    <contour>
      <point x="74" y="769" type="curve"/>
      <point x="172" y="769" type="line"/>
      <point x="184" y="740"/>
      <point x="207" y="726"/>
      <point x="240" y="726" type="curve" smooth="yes"/>
      <point x="275" y="726"/>
      <point x="297" y="741"/>
      <point x="302" y="769" type="curve"/>
      <point x="404" y="769" type="line"/>
      <point x="401" y="686"/>
      <point x="335" y="630"/>
      <point x="240" y="630" type="curve" smooth="yes"/>
      <point x="141" y="630"/>
      <point x="80" y="681"/>
    </contour>
  </outline>
</glyph>
<glyph name="ogonek" format="1">
  <advance width="340"/>
  <unicode hex="02DB"/>
  <outline>
    <contour>
      <point x="160" y="0" type="curve"/>
      <point x="230" y="0" type="line"/>
      <point x="180" y="-36"/>
      <point x="165" y="-54"/>
      <point x="165" y="-81" type="curve" smooth="yes"/>
      <point x="165" y="-105"/>
      <point x="186" y="-123"/>
      <point x="215" y="-123" type="curve" smooth="yes"/>
      <point x="227" y="-123"/>
      <point x="236" y="-121"/>
      <point x="256" y="-113" type="curve"/>
      <point x="256" y="-190" type="line"/>
      <point x="234" y="-199"/>
      <point x="212" y="-204"/>
      <point x="190" y="-204" type="curve" smooth="yes"/>
      <point x="121" y="-204"/>
      <point x="74" y="-164"/>
      <point x="74" y="-105" type="curve" smooth="yes"/>
      <point x="74" y="-62"/>
      <point x="103" y="-27"/>
    </contour>
  </outline>
</glyph>
<glyph name="tilde" format="1">
  <advance width="480"/>
  <unicode hex="02DC"/>
  <outline>
    <contour>
      <point x="128" y="636" type="curve"/>
      <point x="74" y="716" type="line"/>
      <point x="109" y="751"/>
      <point x="135" y="763"/>
      <point x="177" y="763" type="curve" smooth="yes"/>
      <point x="198" y="763"/>
      <point x="208" y="761"/>
      <point x="237" y="749" type="curve" smooth="yes"/>
      <point x="257" y="741"/>
      <point x="271" y="738"/>
      <point x="284" y="738" type="curve" smooth="yes"/>
      <point x="310" y="738"/>
      <point x="330" y="748"/>
      <point x="351" y="772" type="curve"/>
      <point x="405" y="691" type="line"/>
      <point x="373" y="652"/>
      <point x="346" y="636"/>
      <point x="311" y="636" type="curve" smooth="yes"/>
      <point x="296" y="636"/>
      <point x="278" y="640"/>
      <point x="252" y="649" type="curve" smooth="yes"/>
      <point x="224" y="659"/>
      <point x="214" y="661"/>
      <point x="198" y="661" type="curve" smooth="yes"/>
      <point x="173" y="661"/>
      <point x="166" y="658"/>
    </contour>
  </outline>
</glyph>
<glyph name="uni0400" format="1">
  <advance width="589"/>
  <unicode hex="0400"/>
  <outline>
    <contour>
      <point x="76" y="936" type="line"/>
      <point x="133" y="1024" type="line"/>
      <point x="355" y="891" type="line"/>
      <point x="302" y="812" type="line"/>
    </contour>
    <contour>
      <point x="68" y="0" type="line"/>
      <point x="68" y="739" type="line"/>
      <point x="535" y="739" type="line"/>
      <point x="535" y="608" type="line"/>
      <point x="205" y="608" type="line"/>
      <point x="205" y="434" type="line"/>
      <point x="524" y="434" type="line"/>
      <point x="524" y="303" type="line"/>
      <point x="205" y="303" type="line"/>
      <point x="205" y="131" type="line"/>
      <point x="535" y="131" type="line"/>
      <point x="535" y="0" type="line"/>
    </contour>
  </outline>
</glyph>
<glyph name="afii10051" format="1">
  <advance width="667"/>
  <unicode hex="0402"/>
  <outline>
    <contour>
      <point x="361" y="-175" type="line"/>
      <point x="361" y="-45" type="line"/>
      <point x="396" y="-45" type="line" smooth="yes"/>
      <point x="450" y="-45"/>
      <point x="495" y="7"/>
      <point x="495" y="60" type="curve" smooth="yes"/>
      <point x="495" y="250" type="line" smooth="yes"/>
      <point x="495" y="303"/>
      <point x="450" y="355"/>
      <point x="396" y="355" type="curve" smooth="yes"/>
      <point x="281" y="355" type="line"/>
      <point x="281" y="0" type="line"/>
      <point x="144" y="0" type="line"/>
      <point x="144" y="608" type="line"/>
      <point x="7" y="608" type="line"/>
      <point x="7" y="739" type="line"/>
      <point x="418" y="739" type="line"/>
      <point x="418" y="608" type="line"/>
      <point x="281" y="608" type="line"/>
      <point x="281" y="485" type="line"/>
      <point x="449" y="485" type="line" smooth="yes"/>
      <point x="534" y="485"/>
      <point x="632" y="393"/>
      <point x="632" y="305" type="curve" smooth="yes"/>
      <point x="632" y="5" type="line" smooth="yes"/>
      <point x="632" y="-83"/>
      <point x="534" y="-175"/>
      <point x="449" y="-175" type="curve" smooth="yes"/>
    </contour>
  </outline>
</glyph>
<glyph name="afii10052" format="1">
  <advance width="517"/>
  <unicode hex="0403"/>
  <outline>
    <contour>
      <point x="291" y="812" type="line"/>
      <point x="240" y="890" type="line"/>
      <point x="464" y="1024" type="line"/>
      <point x="518" y="932" type="line"/>
    </contour>
    <contour>
      <point x="68" y="0" type="line"/>
      <point x="68" y="739" type="line"/>
      <point x="515" y="739" type="line"/>
      <point x="515" y="608" type="line"/>
      <point x="205" y="608" type="line"/>
      <point x="205" y="0" type="line"/>
    </contour>
  </outline>
</glyph>
<glyph name="afii10056" format="1">
  <advance width="280"/>
  <unicode hex="0407"/>
  <outline>
    <contour>
      <point x="-35" y="812" type="line"/>
      <point x="-35" y="945" type="line"/>
      <point x="98" y="945" type="line"/>
      <point x="98" y="812" type="line"/>
    </contour>
    <contour>
      <point x="175" y="812" type="line"/>
      <point x="175" y="945" type="line"/>
      <point x="308" y="945" type="line"/>
      <point x="308" y="812" type="line"/>
    </contour>
    <contour>
      <point x="68" y="0" type="line"/>
      <point x="68" y="739" type="line"/>
      <point x="205" y="739" type="line"/>
      <point x="205" y="0" type="line"/>
    </contour>
  </outline>
</glyph>
<glyph name="afii10058" format="1">
  <advance width="1023"/>
  <unicode hex="0409"/>
  <outline>
    <contour>
      <point x="134" y="0" type="line" smooth="yes"/>
    </contour>
    <contour>
      <point x="405" y="739" type="line"/>
      <point x="513" y="458" type="line"/>
      <point x="700" y="458" type="line" smooth="yes"/>
      <point x="805" y="458"/>
      <point x="853" y="450"/>
      <point x="894" y="425" type="curve" smooth="yes"/>
      <point x="954" y="388"/>
      <point x="991" y="313"/>
      <point x="991" y="228" type="curve" smooth="yes"/>
      <point x="991" y="143"/>
      <point x="955" y="73"/>
      <point x="891" y="34" type="curve" smooth="yes"/>
      <point x="849" y="9"/>
      <point x="800" y="0"/>
      <point x="702" y="0" type="curve" smooth="yes"/>
      <point x="549" y="0" type="line"/>
      <point x="350" y="562" type="line"/>
      <point x="135" y="0" type="line"/>
      <point x="7" y="0" type="line"/>
      <point x="293" y="739" type="line"/>
    </contour>
    <contour>
      <point x="563" y="327" type="line"/>
      <point x="639" y="131" type="line"/>
      <point x="702" y="131" type="line" smooth="yes"/>
      <point x="747" y="131"/>
      <point x="767" y="133"/>
      <point x="789" y="138" type="curve"/>
      <point x="829" y="149"/>
      <point x="853" y="184"/>
      <point x="853" y="230" type="curve" smooth="yes"/>
      <point x="853" y="266"/>
      <point x="837" y="294"/>
      <point x="808" y="310" type="curve" smooth="yes"/>
      <point x="787" y="321"/>
      <point x="749" y="327"/>
      <point x="696" y="327" type="curve" smooth="yes"/>
    </contour>
  </outline>
</glyph>
<glyph name="afii10059" format="1">
  <advance width="973"/>
  <unicode hex="040A"/>
  <outline>
    <contour>
      <point x="606" y="739" type="line"/>
      <point x="606" y="458" type="line"/>
      <point x="650" y="458" type="line" smooth="yes"/>
      <point x="755" y="458"/>
      <point x="803" y="450"/>
      <point x="844" y="425" type="curve" smooth="yes"/>
      <point x="904" y="388"/>
      <point x="941" y="313"/>
      <point x="941" y="228" type="curve" smooth="yes"/>
      <point x="941" y="143"/>
      <point x="905" y="73"/>
      <point x="841" y="34" type="curve" smooth="yes"/>
      <point x="799" y="9"/>
      <point x="750" y="0"/>
      <point x="652" y="0" type="curve" smooth="yes"/>
      <point x="469" y="0" type="line"/>
      <point x="469" y="310" type="line"/>
      <point x="205" y="310" type="line"/>
      <point x="205" y="0" type="line"/>
      <point x="68" y="0" type="line"/>
      <point x="68" y="739" type="line"/>
      <point x="205" y="739" type="line"/>
      <point x="205" y="441" type="line"/>
      <point x="469" y="441" type="line"/>
      <point x="469" y="739" type="line"/>
    </contour>
    <contour>
      <point x="606" y="327" type="line"/>
      <point x="606" y="131" type="line"/>
      <point x="652" y="131" type="line" smooth="yes"/>
      <point x="697" y="131"/>
      <point x="717" y="133"/>
      <point x="739" y="138" type="curve"/>
      <point x="779" y="149"/>
      <point x="803" y="184"/>
      <point x="803" y="230" type="curve" smooth="yes"/>
      <point x="803" y="266"/>
      <point x="787" y="294"/>
      <point x="758" y="310" type="curve" smooth="yes"/>
      <point x="737" y="321"/>
      <point x="699" y="327"/>
      <point x="646" y="327" type="curve" smooth="yes"/>
    </contour>
  </outline>
</glyph>
<glyph name="afii10061" format="1">
  <advance width="606"/>
  <unicode hex="040C"/>
  <outline>
    <contour>
      <point x="329" y="812" type="line"/>
      <point x="278" y="890" type="line"/>
      <point x="502" y="1024" type="line"/>
      <point x="556" y="932" type="line"/>
    </contour>
    <contour>
      <point x="68" y="0" type="line"/>
      <point x="68" y="739" type="line"/>
      <point x="205" y="739" type="line"/>
      <point x="205" y="420" type="line"/>
      <point x="434" y="739" type="line"/>
      <point x="591" y="739" type="line"/>
      <point x="321" y="376" type="line"/>
      <point x="591" y="0" type="line"/>
      <point x="434" y="0" type="line"/>
      <point x="205" y="325" type="line"/>
      <point x="205" y="0" type="line"/>
    </contour>
  </outline>
</glyph>
<glyph name="uni040D" format="1">
  <advance width="735"/>
  <unicode hex="040D"/>
  <outline>
    <contour>
      <point x="142" y="936" type="line"/>
      <point x="199" y="1024" type="line"/>
      <point x="421" y="891" type="line"/>
      <point x="368" y="812" type="line"/>
    </contour>
    <contour>
      <point x="667" y="0" type="line"/>
      <point x="530" y="0" type="line"/>
      <point x="530" y="537" type="line"/>
      <point x="221" y="0" type="line"/>
      <point x="68" y="0" type="line"/>
      <point x="68" y="739" type="line"/>
      <point x="205" y="739" type="line"/>
      <point x="205" y="201" type="line"/>
      <point x="511" y="739" type="line"/>
      <point x="667" y="739" type="line"/>
    </contour>
  </outline>
</glyph>
<glyph name="afii10062" format="1">
  <advance width="637"/>
  <unicode hex="040E"/>
  <outline>
    <contour>
      <point x="156" y="951" type="curve"/>
      <point x="254" y="951" type="line"/>
      <point x="266" y="922"/>
      <point x="289" y="908"/>
      <point x="322" y="908" type="curve" smooth="yes"/>
      <point x="357" y="908"/>
      <point x="379" y="923"/>
      <point x="384" y="951" type="curve"/>
      <point x="486" y="951" type="line"/>
      <point x="483" y="868"/>
      <point x="417" y="812"/>
      <point x="322" y="812" type="curve" smooth="yes"/>
      <point x="223" y="812"/>
      <point x="162" y="863"/>
    </contour>
    <contour>
      <point x="122" y="0" type="line"/>
      <point x="250" y="273" type="line"/>
      <point x="12" y="739" type="line"/>
      <point x="155" y="739" type="line"/>
      <point x="319" y="399" type="line"/>
      <point x="482" y="739" type="line"/>
      <point x="630" y="739" type="line"/>
      <point x="276" y="0" type="line"/>
    </contour>
  </outline>
</glyph>
<glyph name="afii10145" format="1">
  <advance width="674"/>
  <unicode hex="040F"/>
  <outline>
    <contour>
      <point x="268" y="0" type="line"/>
      <point x="68" y="0" type="line"/>
      <point x="68" y="739" type="line"/>
      <point x="205" y="739" type="line"/>
      <point x="205" y="131" type="line"/>
      <point x="469" y="131" type="line"/>
      <point x="469" y="739" type="line"/>
      <point x="606" y="739" type="line"/>
      <point x="606" y="0" type="line"/>
      <point x="412" y="0" type="line"/>
      <point x="412" y="-158" type="line"/>
      <point x="268" y="-158" type="line"/>
    </contour>
  </outline>
</glyph>
<glyph name="afii10018" format="1">
  <advance width="692"/>
  <unicode hex="0411"/>
  <outline>
    <contour>
      <point x="205" y="609" type="line"/>
      <point x="205" y="515" type="line"/>
      <point x="315" y="515" type="line" smooth="yes"/>
      <point x="507" y="515"/>
      <point x="640" y="442"/>
      <point x="640" y="262" type="curve" smooth="yes"/>
      <point x="640" y="85"/>
      <point x="531" y="0"/>
      <point x="315" y="0" type="curve" smooth="yes"/>
      <point x="68" y="0" type="line"/>
      <point x="68" y="739" type="line"/>
      <point x="576" y="739" type="line"/>
      <point x="576" y="609" type="line"/>
    </contour>
    <contour>
      <point x="205" y="131" type="line"/>
      <point x="321" y="131" type="line" smooth="yes"/>
      <point x="409" y="131"/>
      <point x="504" y="174"/>
      <point x="504" y="262" type="curve" smooth="yes"/>
      <point x="504" y="343"/>
      <point x="409" y="384"/>
      <point x="324" y="384" type="curve" smooth="yes"/>
      <point x="205" y="384" type="line"/>
    </contour>
  </outline>
</glyph>
<glyph name="afii10019" format="1">
  <advance width="610"/>
  <unicode hex="0412"/>
  <outline>
    <contour>
      <point x="68" y="0" type="line"/>
      <point x="68" y="739" type="line"/>
      <point x="301" y="739" type="line" smooth="yes"/>
      <point x="448" y="739"/>
      <point x="533" y="678"/>
      <point x="533" y="542" type="curve" smooth="yes"/>
      <point x="533" y="473"/>
      <point x="510" y="414"/>
      <point x="463" y="394" type="curve"/>
      <point x="510" y="380"/>
      <point x="577" y="336"/>
      <point x="577" y="220" type="curve" smooth="yes"/>
      <point x="577" y="76"/>
      <point x="479" y="0"/>
      <point x="301" y="0" type="curve" smooth="yes"/>
    </contour>
    <contour>
      <point x="205" y="131" type="line"/>
      <point x="301" y="131" type="line" smooth="yes"/>
      <point x="397" y="131"/>
      <point x="439" y="158"/>
      <point x="439" y="222" type="curve" smooth="yes"/>
      <point x="439" y="288"/>
      <point x="396" y="320"/>
      <point x="301" y="320" type="curve" smooth="yes"/>
      <point x="205" y="320" type="line"/>
    </contour>
    <contour>
      <point x="205" y="454" type="line"/>
      <point x="301" y="454" type="line" smooth="yes"/>
      <point x="354" y="454"/>
      <point x="396" y="477"/>
      <point x="396" y="530" type="curve" smooth="yes"/>
      <point x="396" y="583"/>
      <point x="354" y="605"/>
      <point x="301" y="605" type="curve" smooth="yes"/>
      <point x="205" y="605" type="line"/>
    </contour>
  </outline>
</glyph>
<glyph name="afii10021" format="1">
  <advance width="823"/>
  <unicode hex="0414"/>
  <outline>
    <contour>
      <point x="664" y="-130" type="line"/>
      <point x="664" y="0" type="line"/>
      <point x="159" y="0" type="line"/>
      <point x="159" y="-130" type="line"/>
      <point x="37" y="-130" type="line"/>
      <point x="37" y="131" type="line"/>
      <point x="119" y="131" type="line"/>
      <point x="354" y="739" type="line"/>
      <point x="466" y="739" type="line"/>
      <point x="704" y="132" type="line"/>
      <point x="786" y="132" type="line"/>
      <point x="786" y="-130" type="line"/>
    </contour>
    <contour>
      <point x="564" y="131" type="line"/>
      <point x="411" y="562" type="line"/>
      <point x="259" y="131" type="line"/>
    </contour>
  </outline>
</glyph>
<glyph name="afii10024" format="1">
  <advance width="939"/>
  <unicode hex="0416"/>
  <outline>
    <contour>
      <point x="401" y="0" type="line"/>
      <point x="401" y="325" type="line"/>
      <point x="172" y="0" type="line"/>
      <point x="15" y="0" type="line"/>
      <point x="285" y="376" type="line"/>
      <point x="15" y="739" type="line"/>
      <point x="172" y="739" type="line"/>
      <point x="401" y="420" type="line"/>
      <point x="401" y="739" type="line"/>
      <point x="538" y="739" type="line"/>
      <point x="538" y="420" type="line"/>
      <point x="767" y="739" type="line"/>
      <point x="924" y="739" type="line"/>
      <point x="654" y="376" type="line"/>
      <point x="924" y="0" type="line"/>
      <point x="767" y="0" type="line"/>
      <point x="538" y="325" type="line"/>
      <point x="538" y="0" type="line"/>
    </contour>
  </outline>
</glyph>
<glyph name="afii10026" format="1">
  <advance width="735"/>
  <unicode hex="0418"/>
  <outline>
    <contour>
      <point x="667" y="0" type="line"/>
      <point x="530" y="0" type="line"/>
      <point x="530" y="537" type="line"/>
      <point x="221" y="0" type="line"/>
      <point x="68" y="0" type="line"/>
      <point x="68" y="739" type="line"/>
      <point x="205" y="739" type="line"/>
      <point x="205" y="201" type="line"/>
      <point x="511" y="739" type="line"/>
      <point x="667" y="739" type="line"/>
    </contour>
  </outline>
</glyph>
<glyph name="afii10027" format="1">
  <advance width="735"/>
  <unicode hex="0419"/>
  <outline>
    <contour>
      <point x="188" y="894" type="curve"/>
      <point x="286" y="894" type="line"/>
      <point x="298" y="865"/>
      <point x="321" y="851"/>
      <point x="354" y="851" type="curve" smooth="yes"/>
      <point x="389" y="851"/>
      <point x="411" y="866"/>
      <point x="416" y="894" type="curve"/>
      <point x="518" y="894" type="line"/>
      <point x="515" y="811"/>
      <point x="449" y="755"/>
      <point x="354" y="755" type="curve" smooth="yes"/>
      <point x="255" y="755"/>
      <point x="194" y="806"/>
    </contour>
    <contour>
      <point x="667" y="0" type="line"/>
      <point x="530" y="0" type="line"/>
      <point x="530" y="537" type="line"/>
      <point x="221" y="0" type="line"/>
      <point x="68" y="0" type="line"/>
      <point x="68" y="739" type="line"/>
      <point x="205" y="739" type="line"/>
      <point x="205" y="201" type="line"/>
      <point x="511" y="739" type="line"/>
      <point x="667" y="739" type="line"/>
    </contour>
  </outline>
</glyph>
<glyph name="afii10031" format="1">
  <advance width="674"/>
  <unicode hex="041D"/>
  <outline>
    <contour>
      <point x="68" y="0" type="line"/>
      <point x="68" y="739" type="line"/>
      <point x="205" y="739" type="line"/>
      <point x="205" y="441" type="line"/>
      <point x="469" y="441" type="line"/>
      <point x="469" y="739" type="line"/>
      <point x="606" y="739" type="line"/>
      <point x="606" y="0" type="line"/>
      <point x="469" y="0" type="line"/>
      <point x="469" y="310" type="line"/>
      <point x="205" y="310" type="line"/>
      <point x="205" y="0" type="line"/>
    </contour>
  </outline>
</glyph>
<glyph name="afii10033" format="1">
  <advance width="674"/>
  <unicode hex="041F"/>
  <outline>
    <contour>
      <point x="68" y="0" type="line"/>
      <point x="68" y="739" type="line"/>
      <point x="606" y="739" type="line"/>
      <point x="606" y="0" type="line"/>
      <point x="469" y="0" type="line"/>
      <point x="469" y="608" type="line"/>
      <point x="205" y="608" type="line"/>
      <point x="205" y="0" type="line"/>
    </contour>
  </outline>
</glyph>
<glyph name="afii10036" format="1">
  <advance width="520"/>
  <unicode hex="0422"/>
  <outline>
    <contour>
      <point x="194" y="0" type="line"/>
      <point x="194" y="608" type="line"/>
      <point x="7" y="608" type="line"/>
      <point x="7" y="739" type="line"/>
      <point x="518" y="739" type="line"/>
      <point x="518" y="608" type="line"/>
      <point x="331" y="608" type="line"/>
      <point x="331" y="0" type="line"/>
    </contour>
  </outline>
</glyph>
<glyph name="afii10037" format="1">
  <advance width="637"/>
  <unicode hex="0423"/>
  <outline>
    <contour>
      <point x="122" y="0" type="line"/>
      <point x="250" y="273" type="line"/>
      <point x="12" y="739" type="line"/>
      <point x="155" y="739" type="line"/>
      <point x="319" y="399" type="line"/>
      <point x="482" y="739" type="line"/>
      <point x="630" y="739" type="line"/>
      <point x="276" y="0" type="line"/>
    </contour>
  </outline>
</glyph>
<glyph name="afii10038" format="1">
  <advance width="985"/>
  <unicode hex="0424"/>
  <outline>
    <contour>
      <point x="565" y="794" type="line"/>
      <point x="565" y="766" type="line"/>
      <point x="775" y="766"/>
      <point x="945" y="594"/>
      <point x="945" y="384" type="curve" smooth="yes"/>
      <point x="945" y="169"/>
      <point x="779" y="0"/>
      <point x="565" y="0" type="curve"/>
      <point x="565" y="-42" type="line"/>
      <point x="428" y="-42" type="line"/>
      <point x="428" y="0" type="line"/>
      <point x="212" y="0"/>
      <point x="40" y="171"/>
      <point x="40" y="383" type="curve" smooth="yes"/>
      <point x="40" y="598"/>
      <point x="209" y="766"/>
      <point x="428" y="766" type="curve"/>
      <point x="428" y="794" type="line"/>
    </contour>
    <contour>
      <point x="565" y="133" type="line"/>
      <point x="704" y="133"/>
      <point x="807" y="241"/>
      <point x="807" y="382" type="curve" smooth="yes"/>
      <point x="807" y="523"/>
      <point x="701" y="634"/>
      <point x="565" y="634" type="curve"/>
    </contour>
    <contour>
      <point x="428" y="133" type="curve"/>
      <point x="428" y="634" type="line"/>
      <point x="286" y="634"/>
      <point x="178" y="526"/>
      <point x="178" y="383" type="curve" smooth="yes"/>
      <point x="178" y="244"/>
      <point x="289" y="133"/>
    </contour>
  </outline>
</glyph>
<glyph name="afii10040" format="1">
  <advance width="756"/>
  <unicode hex="0426"/>
  <outline>
    <contour>
      <point x="68" y="739" type="line"/>
      <point x="205" y="739" type="line"/>
      <point x="205" y="131" type="line"/>
      <point x="469" y="131" type="line"/>
      <point x="469" y="739" type="line"/>
      <point x="606" y="739" type="line"/>
      <point x="606" y="131" type="line"/>
      <point x="748" y="131" type="line"/>
      <point x="748" y="-140" type="line"/>
      <point x="626" y="-140" type="line"/>
      <point x="626" y="0" type="line"/>
      <point x="68" y="0" type="line"/>
    </contour>
  </outline>
</glyph>
<glyph name="afii10041" format="1">
  <advance width="654"/>
  <unicode hex="0427"/>
  <outline>
    <contour>
      <point x="50" y="434" type="curve" smooth="yes"/>
      <point x="50" y="739" type="line"/>
      <point x="187" y="739" type="line"/>
      <point x="187" y="489" type="line" smooth="yes"/>
      <point x="187" y="436"/>
      <point x="232" y="385"/>
      <point x="286" y="385" type="curve" smooth="yes"/>
      <point x="451" y="385" type="line"/>
      <point x="451" y="739" type="line"/>
      <point x="588" y="739" type="line"/>
      <point x="588" y="0" type="line"/>
      <point x="451" y="0" type="line"/>
      <point x="451" y="254" type="line"/>
      <point x="233" y="254" type="line" smooth="yes"/>
      <point x="148" y="254"/>
      <point x="50" y="346"/>
    </contour>
  </outline>
</glyph>
<glyph name="afii10043" format="1">
  <advance width="995"/>
  <unicode hex="0429"/>
  <outline>
    <contour>
      <point x="864" y="0" type="line"/>
      <point x="68" y="0" type="line"/>
      <point x="68" y="739" type="line"/>
      <point x="205" y="739" type="line"/>
      <point x="205" y="131" type="line"/>
      <point x="393" y="131" type="line"/>
      <point x="393" y="739" type="line"/>
      <point x="530" y="739" type="line"/>
      <point x="530" y="131" type="line"/>
      <point x="718" y="131" type="line"/>
      <point x="718" y="739" type="line"/>
      <point x="845" y="739" type="line"/>
      <point x="845" y="131" type="line"/>
      <point x="987" y="131" type="line"/>
      <point x="987" y="-140" type="line"/>
      <point x="865" y="-140" type="line"/>
    </contour>
  </outline>
</glyph>
<glyph name="afii10044" format="1">
  <advance width="780"/>
  <unicode hex="042A"/>
  <outline>
    <contour>
      <point x="179" y="0" type="line"/>
      <point x="179" y="608" type="line"/>
      <point x="7" y="608" type="line"/>
      <point x="7" y="739" type="line"/>
      <point x="315" y="739" type="line"/>
      <point x="315" y="535" type="line"/>
      <point x="425" y="535" type="line" smooth="yes"/>
      <point x="617" y="535"/>
      <point x="750" y="452"/>
      <point x="750" y="272" type="curve" smooth="yes"/>
      <point x="750" y="95"/>
      <point x="641" y="0"/>
      <point x="425" y="0" type="curve" smooth="yes"/>
    </contour>
    <contour>
      <point x="315" y="131" type="line"/>
      <point x="431" y="131" type="line" smooth="yes"/>
      <point x="521" y="131"/>
      <point x="614" y="182"/>
      <point x="614" y="272" type="curve" smooth="yes"/>
      <point x="614" y="353"/>
      <point x="521" y="404"/>
      <point x="434" y="404" type="curve" smooth="yes"/>
      <point x="315" y="404" type="line"/>
    </contour>
  </outline>
</glyph>
<glyph name="afii10045" format="1">
  <advance width="912"/>
  <unicode hex="042B"/>
  <outline>
    <contour>
      <point x="315" y="0" type="curve" smooth="yes"/>
      <point x="68" y="0" type="line"/>
      <point x="68" y="739" type="line"/>
      <point x="205" y="739" type="line"/>
      <point x="205" y="535" type="line"/>
      <point x="315" y="535" type="line" smooth="yes"/>
      <point x="507" y="535"/>
      <point x="640" y="452"/>
      <point x="640" y="272" type="curve" smooth="yes"/>
      <point x="640" y="95"/>
      <point x="531" y="0"/>
    </contour>
    <contour>
      <point x="205" y="131" type="line"/>
      <point x="321" y="131" type="line" smooth="yes"/>
      <point x="411" y="131"/>
      <point x="504" y="182"/>
      <point x="504" y="272" type="curve" smooth="yes"/>
      <point x="504" y="353"/>
      <point x="411" y="404"/>
      <point x="324" y="404" type="curve" smooth="yes"/>
      <point x="205" y="404" type="line"/>
    </contour>
    <contour>
      <point x="707" y="0" type="line"/>
      <point x="707" y="739" type="line"/>
      <point x="844" y="739" type="line"/>
      <point x="844" y="0" type="line"/>
    </contour>
  </outline>
</glyph>
<glyph name="afii10047" format="1">
  <advance width="780"/>
  <unicode hex="042D"/>
  <outline>
    <contour>
      <point x="603" y="441" type="line"/>
      <point x="574" y="545"/>
      <point x="481" y="620"/>
      <point x="367" y="620" type="curve" smooth="yes"/>
      <point x="281" y="620"/>
      <point x="223" y="592"/>
      <point x="173" y="527" type="curve"/>
      <point x="20" y="527" type="line"/>
      <point x="49" y="591"/>
      <point x="75" y="626"/>
      <point x="125" y="667" type="curve" smooth="yes"/>
      <point x="193" y="722"/>
      <point x="280" y="752"/>
      <point x="370" y="752" type="curve" smooth="yes"/>
      <point x="579" y="752"/>
      <point x="750" y="581"/>
      <point x="750" y="372" type="curve" smooth="yes"/>
      <point x="750" y="159"/>
      <point x="577" y="-13"/>
      <point x="361" y="-13" type="curve" smooth="yes"/>
      <point x="210" y="-13"/>
      <point x="78" y="71"/>
      <point x="20" y="206" type="curve"/>
      <point x="181" y="206" type="line"/>
      <point x="241" y="143"/>
      <point x="293" y="119"/>
      <point x="364" y="119" type="curve" smooth="yes"/>
      <point x="479" y="119"/>
      <point x="578" y="201"/>
      <point x="605" y="310" type="curve"/>
      <point x="235" y="310" type="line"/>
      <point x="235" y="441" type="line"/>
    </contour>
  </outline>
</glyph>
<glyph name="afii10048" format="1">
  <advance width="1063"/>
  <unicode hex="042E"/>
  <outline>
    <contour>
      <point x="205" y="310" type="line"/>
      <point x="205" y="0" type="line"/>
      <point x="68" y="0" type="line"/>
      <point x="68" y="739" type="line"/>
      <point x="205" y="739" type="line"/>
      <point x="205" y="441" type="line"/>
      <point x="268" y="441" type="line"/>
      <point x="302" y="620"/>
      <point x="458" y="752"/>
      <point x="652" y="752" type="curve" smooth="yes"/>
      <point x="863" y="752"/>
      <point x="1032" y="581"/>
      <point x="1032" y="370" type="curve" smooth="yes"/>
      <point x="1032" y="154"/>
      <point x="866" y="-13"/>
      <point x="651" y="-13" type="curve" smooth="yes"/>
      <point x="454" y="-13"/>
      <point x="295" y="126"/>
      <point x="267" y="310" type="curve"/>
    </contour>
    <contour>
      <point x="650" y="620" type="curve" smooth="yes"/>
      <point x="508" y="620"/>
      <point x="400" y="512"/>
      <point x="400" y="369" type="curve" smooth="yes"/>
      <point x="400" y="229"/>
      <point x="510" y="119"/>
      <point x="650" y="119" type="curve" smooth="yes"/>
      <point x="790" y="119"/>
      <point x="894" y="226"/>
      <point x="894" y="368" type="curve" smooth="yes"/>
      <point x="894" y="510"/>
      <point x="787" y="620"/>
    </contour>
  </outline>
</glyph>
<glyph name="afii10049" format="1">
  <advance width="678"/>
  <unicode hex="042F"/>
  <outline>
    <contour>
      <point x="473" y="608" type="line"/>
      <point x="357" y="608" type="line" smooth="yes"/>
      <point x="267" y="608"/>
      <point x="174" y="557"/>
      <point x="174" y="467" type="curve" smooth="yes"/>
      <point x="174" y="386"/>
      <point x="267" y="335"/>
      <point x="354" y="335" type="curve" smooth="yes"/>
      <point x="473" y="335" type="line"/>
    </contour>
    <contour>
      <point x="221" y="223" type="line"/>
      <point x="108" y="256"/>
      <point x="38" y="336"/>
      <point x="38" y="467" type="curve" smooth="yes"/>
      <point x="38" y="644"/>
      <point x="147" y="739"/>
      <point x="363" y="739" type="curve" smooth="yes"/>
      <point x="610" y="739" type="line"/>
      <point x="610" y="0" type="line"/>
      <point x="473" y="0" type="line"/>
      <point x="473" y="204" type="line"/>
      <point x="363" y="204" type="line"/>
      <point x="194" y="0" type="line"/>
      <point x="25" y="0" type="line"/>
    </contour>
  </outline>
</glyph>
<glyph name="afii10067" format="1">
  <advance width="544"/>
  <unicode hex="0432"/>
  <outline>
    <contour>
      <point x="186" y="442" type="line"/>
      <point x="186" y="354" type="line"/>
      <point x="267" y="354" type="line" smooth="yes"/>
      <point x="298" y="354"/>
      <point x="322" y="369"/>
      <point x="322" y="398" type="curve" smooth="yes"/>
      <point x="322" y="427"/>
      <point x="298" y="442"/>
      <point x="267" y="442" type="curve" smooth="yes"/>
    </contour>
    <contour>
      <point x="187" y="243" type="line"/>
      <point x="187" y="105" type="line"/>
      <point x="312" y="105" type="line" smooth="yes"/>
      <point x="361" y="105"/>
      <point x="397" y="129"/>
      <point x="397" y="174" type="curve" smooth="yes"/>
      <point x="397" y="218"/>
      <point x="362" y="243"/>
      <point x="315" y="243" type="curve" smooth="yes"/>
    </contour>
    <contour>
      <point x="409" y="322" type="curve"/>
      <point x="475" y="296"/>
      <point x="518" y="244"/>
      <point x="518" y="168" type="curve" smooth="yes"/>
      <point x="518" y="58"/>
      <point x="429" y="0"/>
      <point x="309" y="0" type="curve" smooth="yes"/>
      <point x="54" y="0" type="line"/>
      <point x="54" y="547" type="line"/>
      <point x="279" y="547" type="line" smooth="yes"/>
      <point x="399" y="547"/>
      <point x="443" y="471"/>
      <point x="443" y="411" type="curve" smooth="yes"/>
      <point x="443" y="382"/>
      <point x="433" y="349"/>
    </contour>
  </outline>
</glyph>
<glyph name="afii10069" format="1">
  <advance width="610"/>
  <unicode hex="0434"/>
  <outline>
    <contour>
      <point x="387" y="131" type="line"/>
      <point x="305" y="367" type="line"/>
      <point x="222" y="131" type="line"/>
    </contour>
    <contour>
      <point x="471" y="0" type="line"/>
      <point x="140" y="0" type="line"/>
      <point x="140" y="-120" type="line"/>
      <point x="6" y="-120" type="line"/>
      <point x="6" y="131" type="line"/>
      <point x="82" y="131" type="line"/>
      <point x="252" y="554" type="line"/>
      <point x="358" y="554" type="line"/>
      <point x="528" y="131" type="line"/>
      <point x="604" y="131" type="line"/>
      <point x="604" y="-120" type="line"/>
      <point x="471" y="-120" type="line"/>
    </contour>
  </outline>
</glyph>
<glyph name="afii10072" format="1">
  <advance width="874"/>
  <unicode hex="0436"/>
  <outline>
    <contour>
      <point x="371" y="0" type="line"/>
      <point x="371" y="259" type="line"/>
      <point x="182" y="0" type="line"/>
      <point x="3" y="0" type="line"/>
      <point x="233" y="283" type="line"/>
      <point x="35" y="554" type="line"/>
      <point x="194" y="554" type="line"/>
      <point x="371" y="293" type="line"/>
      <point x="371" y="554" type="line"/>
      <point x="504" y="554" type="line"/>
      <point x="504" y="293" type="line"/>
      <point x="681" y="554" type="line"/>
      <point x="840" y="554" type="line"/>
      <point x="642" y="283" type="line"/>
      <point x="872" y="0" type="line"/>
      <point x="693" y="0" type="line"/>
      <point x="504" y="259" type="line"/>
      <point x="504" y="0" type="line"/>
    </contour>
  </outline>
</glyph>
<glyph name="afii10075" format="1">
  <advance width="601"/>
  <unicode hex="0439"/>
  <outline>
    <contour>
      <point x="131" y="727" type="curve"/>
      <point x="229" y="727" type="line"/>
      <point x="241" y="698"/>
      <point x="264" y="684"/>
      <point x="297" y="684" type="curve" smooth="yes"/>
      <point x="332" y="684"/>
      <point x="354" y="699"/>
      <point x="359" y="727" type="curve"/>
      <point x="461" y="727" type="line"/>
      <point x="458" y="644"/>
      <point x="392" y="588"/>
      <point x="297" y="588" type="curve" smooth="yes"/>
      <point x="198" y="588"/>
      <point x="137" y="639"/>
    </contour>
    <contour>
      <point x="547" y="554" type="line"/>
      <point x="547" y="0" type="line"/>
      <point x="414" y="0" type="line"/>
      <point x="414" y="363" type="line"/>
      <point x="202" y="0" type="line"/>
      <point x="54" y="0" type="line"/>
      <point x="54" y="554" type="line"/>
      <point x="187" y="554" type="line"/>
      <point x="187" y="191" type="line"/>
      <point x="399" y="554" type="line"/>
    </contour>
  </outline>
</glyph>
<glyph name="afii10078" format="1">
  <advance width="775"/>
  <unicode hex="043C"/>
  <outline>
    <contour>
      <point x="588" y="0" type="line"/>
      <point x="588" y="367" type="line"/>
      <point x="441" y="0" type="line"/>
      <point x="335" y="0" type="line"/>
      <point x="187" y="367" type="line"/>
      <point x="187" y="0" type="line"/>
      <point x="54" y="0" type="line"/>
      <point x="54" y="554" type="line"/>
      <point x="250" y="554" type="line"/>
      <point x="388" y="187" type="line"/>
      <point x="525" y="554" type="line"/>
      <point x="721" y="554" type="line"/>
      <point x="721" y="0" type="line"/>
    </contour>
  </outline>
</glyph>
<glyph name="afii10080" format="1">
  <advance width="643"/>
  <unicode hex="043E"/>
  <outline>
    <contour>
      <point x="323" y="567" type="curve" smooth="yes"/>
      <point x="490" y="567"/>
      <point x="619" y="438"/>
      <point x="619" y="273" type="curve" smooth="yes"/>
      <point x="619" y="117"/>
      <point x="485" y="-13"/>
      <point x="324" y="-13" type="curve" smooth="yes"/>
      <point x="162" y="-13"/>
      <point x="30" y="117"/>
      <point x="30" y="277" type="curve" smooth="yes"/>
      <point x="30" y="436"/>
      <point x="162" y="567"/>
    </contour>
    <contour>
      <point x="324" y="445" type="curve" smooth="yes"/>
      <point x="237" y="445"/>
      <point x="164" y="370"/>
      <point x="164" y="279" type="curve" smooth="yes"/>
      <point x="164" y="184"/>
      <point x="235" y="109"/>
      <point x="325" y="109" type="curve" smooth="yes"/>
      <point x="413" y="109"/>
      <point x="485" y="184"/>
      <point x="485" y="277" type="curve" smooth="yes"/>
      <point x="485" y="369"/>
      <point x="413" y="445"/>
    </contour>
  </outline>
</glyph>
<glyph name="afii10085" format="1">
  <advance width="566"/>
  <unicode hex="0443"/>
  <outline>
    <contour>
      <point x="101" y="-185" type="line"/>
      <point x="205" y="52" type="line"/>
      <point x="12" y="554" type="line"/>
      <point x="148" y="554" type="line"/>
      <point x="277" y="195" type="line"/>
      <point x="428" y="554" type="line"/>
      <point x="564" y="554" type="line"/>
      <point x="244" y="-185" type="line"/>
    </contour>
  </outline>
</glyph>
<glyph name="afii10086" format="1">
  <advance width="772"/>
  <unicode hex="0444"/>
  <outline>
    <contour>
      <point x="322" y="634" type="line"/>
      <point x="455" y="634" type="line"/>
      <point x="455" y="583" type="line"/>
      <point x="621" y="583"/>
      <point x="748" y="453"/>
      <point x="748" y="289" type="curve" smooth="yes"/>
      <point x="748" y="134"/>
      <point x="615" y="3"/>
      <point x="455" y="3" type="curve"/>
      <point x="455" y="-108" type="line"/>
      <point x="322" y="-108" type="line"/>
      <point x="322" y="3" type="line"/>
      <point x="161" y="3"/>
      <point x="30" y="134"/>
      <point x="30" y="293" type="curve" smooth="yes"/>
      <point x="30" y="451"/>
      <point x="162" y="583"/>
      <point x="322" y="583" type="curve"/>
    </contour>
    <contour>
      <point x="322" y="125" type="curve"/>
      <point x="322" y="461" type="line"/>
      <point x="236" y="461"/>
      <point x="163" y="385"/>
      <point x="163" y="295" type="curve" smooth="yes"/>
      <point x="163" y="201"/>
      <point x="233" y="125"/>
    </contour>
    <contour>
      <point x="455" y="125" type="line"/>
      <point x="542" y="125"/>
      <point x="614" y="201"/>
      <point x="614" y="293" type="curve" smooth="yes"/>
      <point x="614" y="384"/>
      <point x="543" y="461"/>
      <point x="455" y="461" type="curve"/>
    </contour>
  </outline>
</glyph>
<glyph name="afii10087" format="1">
  <advance width="556"/>
  <unicode hex="0445"/>
  <outline>
    <contour>
      <point x="2" y="0" type="line"/>
      <point x="198" y="286" type="line"/>
      <point x="28" y="554" type="line"/>
      <point x="178" y="554" type="line"/>
      <point x="274" y="395" type="line"/>
      <point x="382" y="554" type="line"/>
      <point x="526" y="554" type="line"/>
      <point x="345" y="286" type="line"/>
      <point x="527" y="0" type="line"/>
      <point x="380" y="0" type="line"/>
      <point x="272" y="170" type="line"/>
      <point x="162" y="0" type="line"/>
    </contour>
  </outline>
</glyph>
<glyph name="afii10088" format="1">
  <advance width="666"/>
  <unicode hex="0446"/>
  <outline>
    <contour>
      <point x="54" y="0" type="line"/>
      <point x="54" y="554" type="line"/>
      <point x="187" y="554" type="line"/>
      <point x="187" y="131" type="line"/>
      <point x="404" y="131" type="line"/>
      <point x="404" y="554" type="line"/>
      <point x="537" y="554" type="line"/>
      <point x="537" y="132" type="line"/>
      <point x="658" y="132" type="line"/>
      <point x="658" y="-129" type="line"/>
      <point x="546" y="-129" type="line"/>
      <point x="546" y="0" type="line"/>
    </contour>
  </outline>
</glyph>
<glyph name="afii10090" format="1">
  <advance width="747"/>
  <unicode hex="0448"/>
  <outline>
    <contour>
      <point x="54" y="0" type="line"/>
      <point x="54" y="554" type="line"/>
      <point x="187" y="554" type="line"/>
      <point x="187" y="131" type="line"/>
      <point x="307" y="131" type="line"/>
      <point x="307" y="554" type="line"/>
      <point x="440" y="554" type="line"/>
      <point x="440" y="131" type="line"/>
      <point x="560" y="131" type="line"/>
      <point x="560" y="554" type="line"/>
      <point x="693" y="554" type="line"/>
      <point x="693" y="0" type="line"/>
    </contour>
  </outline>
</glyph>
<glyph name="afii10091" format="1">
  <advance width="818"/>
  <unicode hex="0449"/>
  <outline>
    <contour>
      <point x="54" y="0" type="line"/>
      <point x="54" y="554" type="line"/>
      <point x="187" y="554" type="line"/>
      <point x="187" y="131" type="line"/>
      <point x="307" y="131" type="line"/>
      <point x="307" y="554" type="line"/>
      <point x="440" y="554" type="line"/>
      <point x="440" y="131" type="line"/>
      <point x="560" y="131" type="line"/>
      <point x="560" y="554" type="line"/>
      <point x="693" y="554" type="line"/>
      <point x="693" y="132" type="line"/>
      <point x="811" y="132" type="line"/>
      <point x="811" y="-129" type="line"/>
      <point x="701" y="-129" type="line"/>
      <point x="701" y="0" type="line"/>
    </contour>
  </outline>
</glyph>
<glyph name="afii10092" format="1">
  <advance width="666"/>
  <unicode hex="044A"/>
  <outline>
    <contour>
      <point x="194" y="0" type="line"/>
      <point x="194" y="424" type="line"/>
      <point x="7" y="424" type="line"/>
      <point x="7" y="554" type="line"/>
      <point x="327" y="554" type="line"/>
      <point x="327" y="377" type="line"/>
      <point x="402" y="377" type="line" smooth="yes"/>
      <point x="543" y="377"/>
      <point x="634" y="316"/>
      <point x="634" y="187" type="curve" smooth="yes"/>
      <point x="634" y="70"/>
      <point x="543" y="0"/>
      <point x="402" y="0" type="curve" smooth="yes"/>
    </contour>
    <contour>
      <point x="327" y="120" type="line"/>
      <point x="438" y="120" type="line" smooth="yes"/>
      <point x="499" y="120"/>
      <point x="511" y="171"/>
      <point x="511" y="193" type="curve" smooth="yes"/>
      <point x="511" y="215"/>
      <point x="497" y="264"/>
      <point x="435" y="264" type="curve" smooth="yes"/>
      <point x="327" y="264" type="line"/>
    </contour>
  </outline>
</glyph>
